<svg width="209" height="251" viewBox="0 0 209 251" fill="none" xmlns="http://www.w3.org/2000/svg">
<path d="M146.06 0H63.9772C57.1868 0 51.6821 5.78219 51.6821 12.9149V215.599C51.6821 222.732 57.1868 228.514 63.9772 228.514H146.06C152.85 228.514 158.355 222.732 158.355 215.599V12.9149C158.355 5.78219 152.85 0 146.06 0Z" fill="#292A2E"/>
<path d="M146.021 4.03288H64.0157C59.353 4.03288 55.5731 8.00331 55.5731 12.9011V215.312C55.5731 220.21 59.353 224.18 64.0157 224.18H146.021C150.684 224.18 154.464 220.21 154.464 215.312V12.9011C154.464 8.00331 150.684 4.03288 146.021 4.03288Z" fill="white"/>
<path d="M84.7649 2.36511H125.272V6.76776C125.272 7.39313 125.155 8.01242 124.927 8.59025C124.7 9.16808 124.366 9.69314 123.945 10.1354C123.524 10.5777 123.024 10.9286 122.474 11.1679C121.924 11.4073 121.335 11.5305 120.739 11.5305H89.2974C88.0953 11.5305 86.9425 11.0289 86.0924 10.136C85.2424 9.24317 84.7649 8.03219 84.7649 6.76949V2.36511Z" fill="#292A2E"/>
<path opacity="0.8" d="M128.474 144.107H81.5628C78.7986 144.107 76.5579 146.46 76.5579 149.364V163.481C76.5579 166.384 78.7986 168.738 81.5628 168.738H128.474C131.239 168.738 133.479 166.384 133.479 163.481V149.364C133.479 146.46 131.239 144.107 128.474 144.107Z" fill="#367CFF"/>
<path d="M133.477 163.481V165.9C133.477 166.59 133.348 167.274 133.097 167.911C132.845 168.549 132.476 169.129 132.012 169.617C131.547 170.105 130.995 170.492 130.388 170.757C129.781 171.021 129.13 171.157 128.473 171.157H81.5625C80.9052 171.157 80.2544 171.021 79.6472 170.757C79.04 170.492 78.4882 170.105 78.0235 169.617C77.5587 169.129 77.1901 168.549 76.9386 167.911C76.6872 167.274 76.5578 166.59 76.5579 165.9V163.481C76.5579 164.875 77.0851 166.212 78.0235 167.197C78.9619 168.183 80.2347 168.737 81.5618 168.737H128.473C129.13 168.737 129.781 168.601 130.388 168.337C130.995 168.073 131.547 167.686 132.012 167.198C132.476 166.709 132.845 166.13 133.096 165.492C133.348 164.854 133.477 164.171 133.477 163.481Z" fill="#367CFF"/>
<path d="M101.89 163.699C101.694 163.699 101.504 163.625 101.355 163.491L95.9858 158.658C95.82 158.509 95.7174 158.296 95.7006 158.068C95.6837 157.839 95.754 157.613 95.896 157.439C96.0379 157.265 96.2399 157.157 96.4576 157.139C96.6752 157.122 96.8906 157.195 97.0563 157.345L101.821 161.634L112.908 148.892C113.055 148.723 113.26 148.622 113.478 148.612C113.696 148.602 113.909 148.683 114.07 148.837C114.231 148.992 114.327 149.207 114.337 149.436C114.346 149.665 114.269 149.889 114.122 150.058L102.499 163.417C102.421 163.506 102.327 163.577 102.223 163.625C102.118 163.674 102.005 163.699 101.89 163.699Z" fill="white"/>
<g opacity="0.5">
<path opacity="0.5" d="M141.123 80.1306C141.123 84.0456 137.501 87.3117 136.409 90.8435C135.277 94.5066 136.341 99.3758 134.229 102.423C132.097 105.501 127.344 105.933 124.413 108.173C121.512 110.391 119.664 115.019 116.178 116.208C112.815 117.355 108.746 114.791 105.018 114.791C101.291 114.791 97.2212 117.356 93.8589 116.208C90.3716 115.019 88.5246 110.391 85.6235 108.173C82.6929 105.933 77.9399 105.501 75.8074 102.423C73.6959 99.3758 74.7596 94.5049 73.6278 90.8435C72.5356 87.311 68.9134 84.0446 68.9134 80.1306C68.9134 76.2166 72.5356 72.9492 73.6278 69.4177C74.7596 65.7563 73.6959 60.8854 75.8074 57.8378C77.9399 54.7597 82.6929 54.3278 85.6235 52.0877C88.5246 49.8698 90.3729 45.2422 93.8585 44.0534C97.2218 42.9065 101.291 45.4703 105.018 45.4703C108.745 45.4703 112.815 42.9054 116.178 44.0534C119.665 45.2422 121.512 49.8695 124.413 52.0877C127.344 54.3278 132.097 54.7597 134.229 57.8378C136.341 60.8854 135.277 65.756 136.409 69.4174C137.501 72.9492 141.123 76.2156 141.123 80.1306Z" fill="#367CFF"/>
</g>
<path d="M115.896 102.97H125.165V59.9835H115.896V102.97Z" fill="#367CFF"/>
<path d="M108.491 69.5601C106.683 69.5601 104.914 68.9967 103.41 67.941C101.906 66.8854 100.734 65.385 100.042 63.6295C99.3494 61.8741 99.1683 59.9424 99.5212 58.0788C99.8741 56.2152 100.745 54.5034 102.024 53.1599C103.303 51.8163 104.933 50.9013 106.707 50.5306C108.481 50.1599 110.32 50.3502 111.991 51.0773C113.663 51.8045 115.091 53.0358 116.096 54.6157C117.101 56.1955 117.637 58.053 117.637 59.9531C117.635 62.5001 116.67 64.9421 114.956 66.7431C113.241 68.5442 110.916 69.5573 108.491 69.5601ZM108.491 51.3828C106.878 51.3828 105.3 51.8854 103.959 52.8271C102.617 53.7688 101.571 55.1073 100.954 56.6733C100.336 58.2394 100.174 59.9626 100.489 61.625C100.804 63.2875 101.581 64.8146 102.722 66.0132C103.863 67.2118 105.317 68.028 106.9 68.3587C108.482 68.6894 110.123 68.5197 111.614 67.871C113.105 67.2223 114.379 66.1238 115.275 64.7145C116.172 63.3051 116.65 61.6481 116.65 59.9531C116.648 57.6808 115.788 55.5024 114.258 53.8957C112.728 52.2889 110.655 51.3851 108.491 51.3824V51.3828Z" fill="#367CFF"/>
<path d="M21 244.964L20.322 249.184C20.2486 249.641 20.0126 250.058 19.6559 250.36C19.2992 250.662 18.845 250.831 18.3739 250.835L1.10319 251C0.855151 251.002 0.61372 250.921 0.418545 250.771C0.223371 250.621 0.086057 250.41 0.0291551 250.173C-0.0277468 249.935 -0.000853553 249.686 0.105418 249.466C0.211689 249.246 0.391021 249.068 0.61396 248.961L10.9824 244L21 244.964Z" fill="#E98862"/>
<path d="M178.894 210.852C178.816 210.852 178.742 210.821 178.688 210.766C178.277 210.356 177.607 202.821 175.804 180.388C175.066 171.208 174.37 162.538 173.861 157.269C173.825 156.892 173.679 156.848 173.631 156.834C172.935 156.627 170.817 158.294 169.636 159.756C169.587 159.816 169.516 159.854 169.44 159.862C169.363 159.87 169.286 159.848 169.225 159.799C169.165 159.75 169.127 159.68 169.119 159.603C169.111 159.526 169.133 159.449 169.182 159.389C169.964 158.422 172.51 155.891 173.799 156.276C174.058 156.354 174.381 156.58 174.442 157.213C174.95 162.487 175.647 171.159 176.385 180.341C177.481 193.973 178.722 209.418 179.13 210.39C179.162 210.434 179.18 210.485 179.184 210.539C179.188 210.592 179.178 210.646 179.153 210.693C179.129 210.741 179.091 210.781 179.046 210.809C179 210.837 178.947 210.852 178.894 210.852Z" fill="#494949"/>
<path d="M173.112 166.937C177.949 163.06 179.552 157.026 176.693 153.459C173.833 149.892 167.595 150.143 162.758 154.02C157.921 157.897 156.318 163.932 159.177 167.499C162.036 171.066 168.275 170.814 173.112 166.937Z" fill="#0CBC8B"/>
<path opacity="0.2" d="M173.112 166.937C177.949 163.06 179.552 157.026 176.693 153.459C173.833 149.892 167.595 150.143 162.758 154.02C157.921 157.897 156.318 163.932 159.177 167.499C162.036 171.066 168.275 170.814 173.112 166.937Z" fill="white"/>
<path d="M160.533 168.406C160.505 168.406 160.478 168.398 160.455 168.384C160.431 168.369 160.413 168.347 160.401 168.322C160.389 168.297 160.385 168.269 160.388 168.242C160.392 168.214 160.403 168.188 160.421 168.167L174.205 151.545C174.218 151.53 174.233 151.518 174.25 151.509C174.266 151.5 174.285 151.494 174.304 151.493C174.323 151.491 174.342 151.493 174.361 151.498C174.379 151.504 174.396 151.513 174.411 151.526C174.425 151.538 174.438 151.553 174.447 151.57C174.456 151.587 174.461 151.605 174.463 151.624C174.465 151.643 174.463 151.663 174.457 151.681C174.451 151.699 174.442 151.716 174.43 151.731L160.645 168.353C160.631 168.37 160.614 168.383 160.595 168.392C160.576 168.401 160.555 168.406 160.533 168.406Z" fill="white"/>
<path d="M181.9 207.288C181.867 207.288 181.835 207.283 181.804 207.272C181.731 207.247 181.671 207.193 181.638 207.124C181.604 207.054 181.599 206.974 181.625 206.901L186.803 192.01C186.955 191.573 187.215 191.18 187.558 190.869C187.902 190.558 188.317 190.338 188.768 190.23C189.218 190.121 189.689 190.127 190.136 190.247C190.584 190.367 190.994 190.598 191.329 190.918L194.066 193.533C194.095 193.559 194.118 193.591 194.134 193.626C194.151 193.661 194.16 193.7 194.161 193.738C194.162 193.777 194.156 193.816 194.142 193.852C194.128 193.888 194.107 193.922 194.08 193.95C194.053 193.978 194.021 194 193.986 194.016C193.95 194.031 193.912 194.039 193.873 194.04C193.834 194.04 193.795 194.033 193.76 194.018C193.724 194.003 193.691 193.982 193.663 193.954L190.926 191.339C190.662 191.087 190.338 190.905 189.985 190.81C189.631 190.715 189.26 190.71 188.904 190.796C188.549 190.882 188.22 191.055 187.949 191.301C187.678 191.546 187.473 191.856 187.353 192.202L182.175 207.092C182.155 207.15 182.118 207.199 182.069 207.234C182.02 207.269 181.96 207.288 181.9 207.288Z" fill="#494949"/>
<path d="M201.715 201.777C205.299 198.94 205.086 192.7 201.239 187.839C197.392 182.979 191.367 181.338 187.783 184.176C184.198 187.013 184.411 193.253 188.258 198.114C192.106 202.974 198.13 204.614 201.715 201.777Z" fill="#0CBC8B"/>
<path d="M176.541 209.902C176.476 209.902 176.412 209.88 176.361 209.839C176.309 209.799 176.273 209.742 176.258 209.678L167.569 173.347C167.509 173.099 167.383 172.873 167.203 172.693C167.023 172.512 166.797 172.385 166.55 172.325C166.302 172.264 166.043 172.273 165.801 172.351C165.558 172.429 165.342 172.572 165.175 172.764L162.497 175.857C162.472 175.886 162.441 175.91 162.407 175.927C162.373 175.944 162.335 175.954 162.297 175.957C162.259 175.96 162.221 175.955 162.184 175.943C162.148 175.931 162.114 175.912 162.085 175.887C162.056 175.862 162.033 175.831 162.015 175.797C161.998 175.763 161.988 175.725 161.985 175.687C161.982 175.649 161.987 175.611 161.999 175.574C162.011 175.538 162.031 175.504 162.056 175.475L164.734 172.38C164.971 172.107 165.279 171.904 165.624 171.794C165.968 171.684 166.337 171.671 166.688 171.757C167.04 171.842 167.361 172.023 167.617 172.28C167.872 172.536 168.052 172.858 168.136 173.21L176.825 209.542C176.843 209.617 176.83 209.696 176.79 209.762C176.749 209.828 176.684 209.875 176.609 209.893C176.587 209.899 176.564 209.902 176.541 209.902Z" fill="#494949"/>
<path d="M173.337 183.93C174.393 177.822 171.597 172.239 167.093 171.46C162.588 170.681 158.08 175.001 157.024 181.11C155.967 187.218 158.763 192.801 163.268 193.58C167.772 194.359 172.28 190.039 173.337 183.93Z" fill="#0CBC8B"/>
<path d="M178.894 210.852C178.882 210.852 178.87 210.851 178.858 210.85C178.781 210.84 178.711 210.801 178.664 210.74C178.616 210.679 178.595 210.602 178.604 210.525L184.153 165.474C184.213 164.983 184.414 164.52 184.731 164.141C185.048 163.762 185.468 163.482 185.941 163.336C186.413 163.19 186.918 163.183 187.394 163.316C187.87 163.45 188.297 163.718 188.625 164.089L194.967 171.272C195.018 171.33 195.044 171.406 195.039 171.483C195.034 171.56 194.999 171.632 194.941 171.684C194.912 171.709 194.879 171.728 194.843 171.741C194.806 171.753 194.768 171.758 194.73 171.756C194.653 171.751 194.581 171.716 194.529 171.658L188.187 164.475C187.934 164.189 187.604 163.981 187.236 163.878C186.868 163.775 186.478 163.78 186.113 163.893C185.748 164.006 185.424 164.222 185.179 164.515C184.933 164.808 184.778 165.166 184.731 165.545L179.183 210.596C179.174 210.667 179.14 210.732 179.087 210.779C179.034 210.826 178.965 210.852 178.894 210.852Z" fill="#494949"/>
<path d="M201.471 175.263C203.684 171.263 201.08 165.588 195.656 162.587C190.232 159.587 184.041 160.398 181.828 164.398C179.615 168.398 182.219 174.073 187.643 177.074C193.067 180.074 199.258 179.264 201.471 175.263Z" fill="#0CBC8B"/>
<path opacity="0.2" d="M201.715 201.777C205.299 198.94 205.086 192.7 201.239 187.839C197.392 182.979 191.367 181.338 187.783 184.176C184.198 187.013 184.411 193.253 188.258 198.114C192.106 202.974 198.13 204.614 201.715 201.777Z" fill="white"/>
<path opacity="0.5" d="M173.337 183.93C174.393 177.822 171.597 172.239 167.093 171.46C162.588 170.681 158.08 175.001 157.024 181.11C155.967 187.218 158.763 192.801 163.268 193.58C167.772 194.359 172.28 190.039 173.337 183.93Z" fill="white"/>
<path opacity="0.5" d="M201.471 175.263C203.684 171.263 201.08 165.588 195.656 162.587C190.232 159.587 184.041 160.398 181.828 164.398C179.615 168.398 182.219 174.073 187.643 177.074C193.067 180.074 199.258 179.264 201.471 175.263Z" fill="white"/>
<path d="M185.991 249.077H171.797L169.444 203.663H188.342L185.991 249.077Z" fill="#292A2E"/>
<path opacity="0.3" d="M185.991 249.077H171.797L169.444 203.663H188.342L185.991 249.077Z" fill="white"/>
<path d="M201.714 201.921C201.692 201.921 201.671 201.916 201.651 201.907C201.631 201.897 201.614 201.883 201.6 201.866L187.667 184.264C187.655 184.249 187.647 184.232 187.641 184.214C187.636 184.195 187.635 184.176 187.637 184.157C187.639 184.138 187.645 184.12 187.654 184.103C187.664 184.086 187.676 184.072 187.691 184.06C187.706 184.048 187.723 184.039 187.742 184.034C187.76 184.029 187.779 184.027 187.798 184.029C187.817 184.031 187.836 184.037 187.853 184.047C187.869 184.056 187.884 184.068 187.896 184.083L201.829 201.685C201.846 201.707 201.856 201.732 201.859 201.76C201.862 201.787 201.857 201.814 201.845 201.839C201.834 201.864 201.815 201.884 201.792 201.899C201.769 201.913 201.742 201.921 201.714 201.921Z" fill="white"/>
<path d="M200.545 176.673C200.514 176.673 200.483 176.663 200.459 176.644L182.63 163.626C182.615 163.615 182.601 163.601 182.592 163.584C182.582 163.568 182.575 163.55 182.572 163.531C182.569 163.512 182.57 163.493 182.574 163.474C182.579 163.455 182.587 163.438 182.598 163.422C182.61 163.407 182.624 163.394 182.64 163.384C182.656 163.374 182.675 163.367 182.694 163.364C182.712 163.361 182.732 163.362 182.75 163.367C182.769 163.371 182.787 163.379 182.802 163.391L200.631 176.411C200.655 176.429 200.673 176.455 200.682 176.484C200.691 176.513 200.691 176.544 200.682 176.573C200.672 176.602 200.654 176.627 200.629 176.645C200.605 176.663 200.575 176.673 200.545 176.673Z" fill="white"/>
<path d="M162.543 193.39C162.53 193.39 162.518 193.388 162.505 193.385C162.468 193.375 162.436 193.351 162.417 193.317C162.397 193.284 162.392 193.244 162.402 193.207L168.078 171.942C168.088 171.905 168.112 171.874 168.146 171.854C168.179 171.835 168.218 171.829 168.256 171.839C168.293 171.849 168.325 171.873 168.344 171.906C168.364 171.94 168.369 171.98 168.359 172.017L162.685 193.281C162.677 193.313 162.658 193.34 162.633 193.36C162.607 193.38 162.575 193.39 162.543 193.39Z" fill="white"/>
<path d="M35.5065 227.728C35.5065 227.728 35.4196 246.619 49.0902 248.368L61.9604 236.589L69.9398 220.673L40.073 223.968L35.5065 227.728Z" fill="#262626"/>
<path d="M35.1387 226.699L35.0978 226.71C35.0978 226.71 34.9648 225.908 35.1387 226.699Z" fill="#333333"/>
<path d="M87.8419 171.853C87.8405 171.845 87.8328 171.84 87.8289 171.832L87.9925 171.592C88.1062 171.432 88.1611 171.238 88.1479 171.042C88.1348 170.846 88.0543 170.661 87.9202 170.517C87.8343 170.429 87.7298 170.361 87.6143 170.318C87.4988 170.275 87.3753 170.258 87.2525 170.269C87.1297 170.279 87.0108 170.317 86.9044 170.379C86.798 170.441 86.7066 170.526 86.637 170.627L86.2578 171.181C86.2553 171.179 86.2553 171.174 86.2522 171.172C86.2492 171.17 86.2434 171.172 86.2394 171.169C86.309 170.994 86.317 170.801 86.262 170.62C86.2071 170.44 86.0926 170.284 85.9372 170.177C85.5536 169.875 85.0239 170.158 84.7789 170.516L82.5191 173.695L82.7295 172.591C82.7744 172.377 82.7364 172.154 82.6232 171.966C82.5101 171.779 82.3301 171.642 82.1196 171.582C82.0099 171.555 81.8958 171.55 81.7843 171.569C81.6728 171.588 81.5663 171.629 81.4712 171.69C81.3761 171.751 81.2945 171.831 81.2313 171.924C81.168 172.018 81.1246 172.124 81.1035 172.235L79.96 178.261C79.826 178.968 79.9728 179.7 80.3694 180.3C80.7659 180.901 81.381 181.323 82.0839 181.477C82.8991 181.656 83.7491 181.587 84.525 181.28C85.3009 180.973 85.9674 180.44 86.439 179.752C86.439 179.752 88.1453 171.575 87.8419 171.853Z" fill="#E98862"/>
<path d="M85.8736 162.733L86.5606 162.8C86.6314 162.803 86.7008 162.82 86.7647 162.851C86.8285 162.882 86.8856 162.925 86.9323 162.978C86.979 163.032 87.0144 163.094 87.0365 163.161C87.0585 163.229 87.0667 163.3 87.0605 163.37L85.3105 177.522C85.2845 177.668 85.2039 177.8 85.0848 177.889C84.9657 177.979 84.8171 178.02 84.6689 178.005L83.8818 177.947L85.8736 162.733Z" fill="#292A2E"/>
<path d="M84.0072 177.962L82.5498 177.852C82.4846 177.85 82.4205 177.835 82.3612 177.808C82.302 177.781 82.249 177.742 82.2054 177.694C82.1618 177.645 82.1287 177.588 82.1079 177.527C82.0872 177.465 82.0793 177.399 82.0848 177.335L83.8342 163.061C83.8576 162.928 83.9307 162.808 84.0387 162.727C84.1467 162.646 84.2816 162.608 84.416 162.623L85.8736 162.733C85.9388 162.734 86.0029 162.749 86.0621 162.776C86.1213 162.803 86.1743 162.842 86.2179 162.891C86.2615 162.939 86.2946 162.996 86.3154 163.058C86.3361 163.12 86.344 163.185 86.3385 163.25L84.5892 177.523C84.5659 177.656 84.4928 177.776 84.3847 177.857C84.2767 177.939 84.1417 177.976 84.0072 177.962Z" fill="#292A2E"/>
<path d="M83.8585 177.668L82.5675 177.562C82.5227 177.561 82.4787 177.55 82.438 177.532C82.3973 177.513 82.3609 177.486 82.3309 177.453C82.301 177.42 82.2782 177.381 82.264 177.338C82.2498 177.296 82.2444 177.251 82.2482 177.206L83.9828 163.19C83.999 163.098 84.0493 163.016 84.1234 162.961C84.1976 162.905 84.2902 162.879 84.3825 162.889L85.6564 162.996C85.7012 162.997 85.7452 163.007 85.7859 163.026C85.8266 163.045 85.863 163.072 85.8929 163.105C85.9228 163.138 85.9455 163.177 85.9597 163.22C85.9739 163.262 85.9793 163.307 85.9755 163.351L84.2579 177.367C84.2419 177.458 84.1917 177.54 84.1175 177.596C84.0434 177.652 83.9508 177.677 83.8585 177.668Z" fill="white"/>
<path d="M85.3332 163.468L84.768 163.425C84.744 163.424 84.7203 163.419 84.6985 163.409C84.6766 163.399 84.6571 163.385 84.641 163.367C84.625 163.349 84.6127 163.328 84.6051 163.305C84.5975 163.282 84.5946 163.258 84.5967 163.234L84.6499 162.8L85.6011 162.872L85.5478 163.306C85.5391 163.355 85.5121 163.399 85.4723 163.429C85.4325 163.459 85.3828 163.473 85.3332 163.468Z" fill="#292A2E"/>
<path d="M82.926 173.371C83.0161 173.225 83.1494 173.11 83.3075 173.043C83.4656 172.975 83.6407 172.959 83.8087 172.995C83.8086 172.98 83.8132 172.965 83.8217 172.953C83.8305 172.943 83.8416 172.936 83.8539 172.932C83.8662 172.928 83.8793 172.928 83.8919 172.931L83.3543 172.471C83.1927 172.34 83.0844 172.154 83.0492 171.948C83.0141 171.743 83.0545 171.531 83.1631 171.353C83.276 171.181 83.4488 171.057 83.6481 171.005C83.8475 170.952 84.059 170.976 84.2418 171.071C84.2418 171.063 84.2472 171.056 84.249 171.048L84.0277 170.859C83.8762 170.734 83.7725 170.561 83.7342 170.368C83.6958 170.176 83.7252 169.976 83.8173 169.802C83.8773 169.694 83.9603 169.601 84.0606 169.53C84.1608 169.458 84.2757 169.41 84.397 169.388C84.5182 169.366 84.6428 169.371 84.7618 169.403C84.8807 169.435 84.9911 169.493 85.0849 169.573L85.5956 170.009C85.5975 170.006 85.5956 170.002 85.5984 169.999C85.6013 169.996 85.6069 169.996 85.6104 169.993C85.4974 169.842 85.4392 169.657 85.4451 169.468C85.451 169.28 85.5207 169.099 85.6429 168.956C85.9343 168.565 86.5194 168.699 86.8495 168.98L87.8204 169.948C87.9702 170.098 88.0807 170.282 88.1422 170.484C88.2036 170.687 88.2141 170.901 88.1727 171.108C87.8153 172.904 86.7702 177.571 85.7163 176.672L83.1217 174.459C82.9713 174.327 82.8701 174.147 82.8346 173.949C82.7991 173.752 82.8313 173.548 82.926 173.371Z" fill="#E98862"/>
<path d="M77.8121 177.764L73.9995 198.395L64.254 183.375L56.8085 192.122L72.3369 213.333L72.4685 213.456C73.268 214.183 74.2394 214.695 75.2913 214.943C76.3432 215.19 77.4409 215.166 78.481 214.873C79.521 214.579 80.4691 214.025 81.2361 213.264C82.003 212.503 82.5634 211.558 82.8645 210.521L89.2603 179.601L77.8121 177.764Z" fill="#6F86D6"/>
<path d="M73.4708 200.424C73.4603 200.424 73.4498 200.423 73.4397 200.42C73.4098 200.412 73.3845 200.392 73.3692 200.365C73.3539 200.338 73.3499 200.306 73.3581 200.277L73.8868 198.364C73.8951 198.334 73.9149 198.309 73.9418 198.294C73.9688 198.278 74.0007 198.274 74.0306 198.283C74.0605 198.291 74.0858 198.311 74.1011 198.338C74.1164 198.364 74.1204 198.396 74.1122 198.426L73.5834 200.339C73.5766 200.363 73.5619 200.385 73.5416 200.4C73.5212 200.416 73.4963 200.424 73.4708 200.424Z" fill="#0C0C0C"/>
<path d="M32.3835 164.892C32.3835 164.892 31.7701 170.383 30.4417 172.325C26.6172 177.918 25.2942 184.344 28.7151 187.884C32.1359 191.425 54.9188 192.492 56.9929 184.793C58.7389 178.311 55.6519 177.467 55.1348 172.032C54.9011 169.573 54.1854 164.407 54.1854 164.407" fill="#0A0A0A"/>
<path d="M52.9603 180.915C52.9208 180.917 53.9481 188.107 45.5711 189.178C39.7719 189.921 36.4939 184.278 36.363 184.305C36.9518 184.048 37.9225 183.607 38.1934 183.443C39.2184 182.824 40.0036 182.045 39.9355 180.239C39.8963 179.198 38.5564 174.106 38.4361 173.07L47.604 173.23C47.9224 175.406 48.0869 180.569 51.2738 180.836C51.8028 180.879 52.3689 180.903 52.9603 180.915Z" fill="#E98862"/>
<path opacity="0.52" d="M48.953 179.187C48.725 178.773 48.543 178.335 48.4105 177.881C48.0981 176.847 47.8998 175.781 47.8191 174.704C45.9879 174.829 44.1586 174.437 42.5388 173.574C42.499 174.209 42.1414 177.019 42.5072 177.54C43.197 178.524 45.7612 179.841 48.953 179.187Z" fill="#0C0C0C"/>
<path d="M46.6272 178.427C43.0871 178.61 38.5894 176.996 37.8547 172.26L37.1918 167.986C36.4569 163.25 38.3489 159.025 42.8083 158.333C47.2677 157.641 51.1965 160.963 51.9313 165.7L52.2249 167.592C52.5068 169.409 52.9432 178.1 46.6272 178.427Z" fill="#E98862"/>
<path opacity="0.52" d="M48.2452 171.947H48.2539C48.4345 171.918 48.6134 171.879 48.7898 171.83C49.0533 171.755 49.3992 171.628 49.3625 171.391C49.3207 171.121 48.1297 168.324 47.9939 168.006C47.9881 167.992 47.9795 167.98 47.9688 167.969C47.9581 167.959 47.9455 167.95 47.9316 167.945C47.9176 167.939 47.9028 167.936 47.8877 167.936C47.8727 167.936 47.8579 167.94 47.8441 167.945C47.8303 167.951 47.8178 167.96 47.8072 167.971C47.7967 167.981 47.7884 167.994 47.7828 168.008C47.7772 168.022 47.7743 168.037 47.7745 168.052C47.7746 168.067 47.7777 168.081 47.7836 168.095C48.2917 169.287 49.1082 171.244 49.1365 171.426C49.1042 171.509 48.6664 171.653 48.2181 171.723C48.1889 171.727 48.1625 171.743 48.1446 171.766C48.1266 171.79 48.1185 171.819 48.1219 171.849C48.1253 171.878 48.1399 171.905 48.1628 171.924C48.1856 171.942 48.2148 171.951 48.2443 171.949L48.2452 171.947Z" fill="#0C0C0C"/>
<path opacity="0.52" d="M47.5215 173.958C48.2476 173.888 48.947 173.648 49.5635 173.258C49.5775 173.251 49.5898 173.241 49.5997 173.229C49.6097 173.217 49.6171 173.203 49.6214 173.188C49.6257 173.173 49.6269 173.157 49.6249 173.142C49.6229 173.126 49.6177 173.112 49.6096 173.098C49.6016 173.085 49.5909 173.073 49.5781 173.064C49.5654 173.055 49.5509 173.049 49.5357 173.045C49.5204 173.042 49.5046 173.042 49.4893 173.045C49.4739 173.048 49.4594 173.055 49.4466 173.064C48.1143 173.87 46.813 173.965 45.6847 173.337C45.6621 173.323 45.6387 173.311 45.6146 173.301C45.5866 173.289 45.5552 173.29 45.5275 173.302C45.4997 173.314 45.4779 173.336 45.4667 173.364C45.4555 173.392 45.4559 173.424 45.4678 173.451C45.4797 173.479 45.5022 173.501 45.5302 173.512C45.5391 173.516 45.5536 173.524 45.5742 173.535C46.1669 173.867 46.8449 174.014 47.5215 173.958Z" fill="#0C0C0C"/>
<path d="M33.5973 169.349L37.5943 168.752C40.6433 167.635 41.7258 162.456 41.7258 162.456C41.7258 162.456 45.2624 166.139 54.1856 164.407C54.1856 164.407 52.8191 151.997 39.6165 155.155C35.3593 156.173 32.1906 160.324 32.3795 166.019C32.5115 170.009 33.5973 169.349 33.5973 169.349Z" fill="#0A0A0A"/>
<path d="M38.3557 173.66C36.9999 173.87 35.6769 172.591 35.4666 171.236C35.2562 169.88 36.2391 168.963 37.5937 168.752L38.4328 169.552L39.5202 173.479L38.3557 173.66Z" fill="#E98862"/>
<path d="M48.88 165.78C49.2814 165.539 49.74 165.411 50.208 165.409C50.4382 165.406 50.6676 165.438 50.8884 165.504C51.1072 165.568 51.3171 165.659 51.513 165.775C51.539 165.791 51.558 165.816 51.5662 165.845C51.5744 165.874 51.5711 165.906 51.557 165.933C51.5429 165.959 51.5191 165.98 51.4904 165.99C51.4617 166 51.4303 165.998 51.4026 165.986L51.3944 165.982C51.2129 165.885 51.02 165.811 50.8201 165.762C50.6226 165.713 50.4188 165.694 50.2157 165.706C49.8127 165.726 49.4223 165.853 49.0841 166.073L49.0731 166.08C49.0339 166.107 48.9857 166.117 48.9391 166.108C48.8926 166.099 48.8516 166.072 48.8251 166.032C48.7986 165.993 48.7888 165.945 48.7978 165.898C48.8069 165.852 48.834 165.811 48.8733 165.784L48.88 165.78Z" fill="#0C0C0C"/>
<path d="M45.3096 166.497C44.9211 166.388 44.5107 166.384 44.1201 166.485C43.9223 166.534 43.7332 166.613 43.5591 166.719C43.3829 166.825 43.2209 166.952 43.0766 167.099L43.0701 167.105C43.0591 167.116 43.0459 167.125 43.0315 167.131C43.0171 167.137 43.0016 167.14 42.986 167.14C42.9704 167.14 42.9549 167.137 42.9404 167.131C42.926 167.125 42.9129 167.117 42.9018 167.106C42.8907 167.095 42.8819 167.081 42.8759 167.067C42.8699 167.053 42.8668 167.037 42.8668 167.021C42.8668 167.006 42.8699 166.99 42.8758 166.976C42.8818 166.961 42.8905 166.948 42.9016 166.937C43.0536 166.768 43.2264 166.618 43.4158 166.492C43.607 166.363 43.8164 166.264 44.0371 166.198C44.4843 166.06 44.9603 166.045 45.415 166.155C45.461 166.167 45.5005 166.196 45.5249 166.237C45.5493 166.277 45.5566 166.326 45.5451 166.372C45.5336 166.418 45.5044 166.457 45.4638 166.482C45.4231 166.506 45.3745 166.514 45.3285 166.502L45.3213 166.5L45.3096 166.497Z" fill="#0C0C0C"/>
<path opacity="0.52" d="M47.6398 175.031C47.7713 175.021 47.9017 174.999 48.0295 174.966C48.0579 174.958 48.0821 174.939 48.0969 174.914C48.1116 174.888 48.1159 174.858 48.1086 174.829C48.1014 174.8 48.0833 174.775 48.0581 174.76C48.033 174.744 48.0027 174.739 47.9738 174.746C47.2048 174.939 46.7817 174.635 46.7635 174.622C46.7516 174.613 46.738 174.606 46.7235 174.602C46.709 174.599 46.6939 174.598 46.6791 174.6C46.6643 174.602 46.6501 174.607 46.6372 174.615C46.6243 174.622 46.6131 174.632 46.6041 174.644C46.5859 174.668 46.5781 174.699 46.5823 174.728C46.5865 174.758 46.6024 174.785 46.6265 174.804C46.9279 174.994 47.2859 175.075 47.6398 175.031Z" fill="#0C0C0C"/>
<path d="M37.6044 168.702L37.5687 168.591C42.6643 166.95 41.5949 161.971 41.5835 161.921L41.6975 161.895C41.709 161.946 42.8011 167.029 37.6044 168.702Z" fill="#0C0C0C"/>
<path opacity="0.1" d="M44.6616 172.176C45.2448 172.132 45.6919 171.75 45.6601 171.323C45.6284 170.895 45.1299 170.583 44.5467 170.626C43.9635 170.67 43.5165 171.052 43.5482 171.479C43.5799 171.907 44.0784 172.219 44.6616 172.176Z" fill="#0C0C0C"/>
<path opacity="0.1" d="M50.8671 170.749C50.9 171.176 51.3984 171.487 51.9816 171.445C52.0824 171.437 52.1821 171.419 52.2791 171.391C52.3287 170.886 52.3523 170.398 52.3575 169.947C52.1984 169.899 52.032 169.882 51.8666 169.896C51.2827 169.938 50.8358 170.32 50.8671 170.749Z" fill="#0C0C0C"/>
<path d="M50.8655 167.935C51.1725 167.935 51.4213 167.686 51.4213 167.379C51.4213 167.072 51.1725 166.823 50.8655 166.823C50.5585 166.823 50.3096 167.072 50.3096 167.379C50.3096 167.686 50.5585 167.935 50.8655 167.935Z" fill="#0C0C0C"/>
<path d="M45.3631 168.491C45.6701 168.491 45.9189 168.242 45.9189 167.935C45.9189 167.628 45.6701 167.379 45.3631 167.379C45.0561 167.379 44.8073 167.628 44.8073 167.935C44.8073 168.242 45.0561 168.491 45.3631 168.491Z" fill="#0C0C0C"/>
<path d="M66.4145 194.449C66.7803 197.555 69.4191 216.86 69.9398 220.672L35.5066 227.728C34.6172 224.376 30.7048 209.725 28.6081 203.244C26.607 197.06 24.716 193.913 25.2008 190.912C25.7664 187.408 30.3929 186.005 33.3905 184.956C35.221 184.315 38.0149 183.553 38.0149 183.553C38.0149 183.553 39.2486 188.354 45.0207 187.453C52.8783 186.225 51.2341 180.844 51.2727 180.836C52.5333 180.579 58.8227 180.151 60.7985 180.834C66.1826 182.693 65.6403 187.866 66.4145 194.449Z" fill="#6F86D6"/>
<path d="M66.7725 196.536L66.5411 196.57L68.2858 208.564L68.5172 208.531L66.7725 196.536Z" fill="#0C0C0C"/>
<path d="M22.2593 246.076L11 242.942C16.209 224.225 24.6655 193.44 25.1818 190.516C25.1389 190.793 25.1203 191.073 25.1264 191.352L36.8125 191.187C36.8289 192.338 36.8387 193.034 29.4444 220.044C25.8945 233.012 22.2953 245.947 22.2593 246.076Z" fill="#6F86D6"/>
<path d="M33.7406 202.438L31.3804 213.069L31.6086 213.12L33.9688 202.488L33.7406 202.438Z" fill="#0C0C0C"/>
<path d="M58.8269 223.822C58.8269 223.822 89.5298 207.961 98.0344 205.027C100.237 204.267 104.263 203.567 107.713 205.585C118.007 211.603 145.188 236.109 145.188 236.109L138.585 245.975L102.677 220.26C102.677 220.26 85.472 232.534 69.9398 237.933L54.2621 236.081L58.8269 223.822Z" fill="#262626"/>
<path d="M149.224 238.963C149.224 238.963 154.724 238.069 155.179 232.958C155.635 227.848 159.681 229.078 159.681 229.078L159.104 248.643L149.329 248.355L149.224 238.963Z" fill="white"/>
<path d="M49.0902 248.367C49.0902 248.367 47.4481 248.257 51.1766 248.38C65.0844 248.838 152.412 248.609 152.412 248.609L152.456 235.509L49.1196 228.176L49.0902 248.367Z" fill="#262626"/>
<path d="M109.529 59.9835C109.529 59.9731 109.529 59.9631 109.529 59.9531C109.529 57.4051 108.566 54.9615 106.851 53.1599C105.135 51.3582 102.809 50.346 100.383 50.346C97.9577 50.346 95.6314 51.3582 93.9162 53.1599C92.201 54.9615 91.2374 57.4051 91.2374 59.9531C91.2374 59.9631 91.2374 59.9731 91.2374 59.9835H84.8711V102.97H115.895V59.9835H109.529ZM92.2244 59.9531C92.2244 57.6801 93.084 55.5002 94.6141 53.8929C96.1442 52.2857 98.2195 51.3828 100.383 51.3828C102.547 51.3828 104.623 52.2857 106.153 53.8929C107.683 55.5002 108.542 57.6801 108.542 59.9531C108.542 59.9631 108.542 59.9731 108.542 59.9835H92.2244C92.2254 59.9731 92.2247 59.9631 92.2247 59.9531H92.2244Z" fill="white"/>
</svg>
