<svg width="292" height="299" viewBox="0 0 292 299" fill="none" xmlns="http://www.w3.org/2000/svg">
<path d="M291.414 184.44H55V184.558H291.414V184.44Z" fill="#EBEBEB"/>
<path d="M224.121 187.66H208.461V187.778H224.121V187.66Z" fill="#EBEBEB"/>
<path d="M261.748 188.695H257.64V188.813H261.748V188.695Z" fill="#EBEBEB"/>
<path d="M233.672 192.048H224.598V192.166H233.672V192.048Z" fill="#EBEBEB"/>
<path d="M173.207 190.449H152.785V190.568H173.207V190.449Z" fill="#EBEBEB"/>
<path d="M148.572 190.449H145.579V190.568H148.572V190.449Z" fill="#EBEBEB"/>
<path d="M135.849 188.454H91.5543V188.572H135.849V188.454Z" fill="#EBEBEB"/>
<path d="M167.06 163.352H75.7619C75.0466 163.35 74.3611 163.065 73.8558 162.559C73.3505 162.053 73.0667 161.367 73.0667 160.652V32.3124C73.073 31.6013 73.3595 30.9213 73.8641 30.4202C74.3688 29.9191 75.0507 29.6374 75.7619 29.6362H167.06C167.776 29.6362 168.463 29.9206 168.969 30.4269C169.475 30.9333 169.76 31.62 169.76 32.336V160.652C169.76 161.368 169.475 162.055 168.969 162.561C168.463 163.067 167.776 163.352 167.06 163.352ZM75.7619 29.7307C75.078 29.732 74.4225 30.0045 73.9394 30.4885C73.4563 30.9726 73.1849 31.6285 73.1849 32.3124V160.652C73.1849 161.336 73.4563 161.992 73.9394 162.476C74.4225 162.96 75.078 163.232 75.7619 163.233H167.06C167.744 163.232 168.4 162.96 168.884 162.476C169.368 161.992 169.64 161.336 169.642 160.652V32.3124C169.64 31.6281 169.368 30.9721 168.884 30.4883C168.4 30.0044 167.744 29.732 167.06 29.7307H75.7619Z" fill="#EBEBEB"/>
<path d="M269.337 163.352H178.034C177.319 163.35 176.633 163.066 176.127 162.56C175.621 162.054 175.336 161.368 175.335 160.652V32.3124C175.342 31.6008 175.63 30.9209 176.135 30.4199C176.64 29.919 177.323 29.6374 178.034 29.6362H269.337C270.048 29.6386 270.728 29.9209 271.232 30.4219C271.736 30.9228 272.021 31.6021 272.028 32.3124V160.652C272.028 161.366 271.745 162.052 271.24 162.558C270.736 163.064 270.052 163.349 269.337 163.352ZM178.034 29.7307C177.35 29.732 176.694 30.0044 176.21 30.4883C175.726 30.9721 175.454 31.6281 175.453 32.3124V160.652C175.454 161.336 175.726 161.992 176.21 162.476C176.694 162.96 177.35 163.232 178.034 163.233H269.337C270.022 163.232 270.678 162.96 271.161 162.476C271.645 161.992 271.918 161.336 271.919 160.652V32.3124C271.918 31.6281 271.645 30.9721 271.161 30.4883C270.678 30.0044 270.022 29.732 269.337 29.7307H178.034Z" fill="#EBEBEB"/>
<path d="M168.479 154.231C168.45 153.564 168.393 152.888 168.304 152.207C167.358 145.086 163.192 138.741 157.485 134.604C157.494 133.982 157.456 133.361 157.372 132.746C156.426 125.847 150.095 120.253 143.187 120.253C141.829 120.248 140.48 120.478 139.201 120.934C134.364 114.485 126.657 110.182 118.529 110.182C115.9 110.169 113.292 110.65 110.841 111.601C108.188 107.766 103.749 105.166 99.0202 105.166C92.1217 105.166 87.2799 110.759 88.2114 117.658C88.3278 118.528 88.5305 119.385 88.8166 120.216C79.9558 123.053 74.3907 131.634 75.7619 141.8C75.9838 143.432 76.3719 145.037 76.9203 146.59C70.0643 150.306 66.0453 157.938 67.2321 166.742C68.1777 173.924 72.4332 180.317 78.1922 184.449H171.245C174.701 180.369 176.417 174.794 175.571 168.647C174.798 163.21 172.314 158.161 168.479 154.231Z" fill="#F0F0F0"/>
<path d="M282.955 146.609C283.201 145.772 283.428 144.926 283.593 144.07C285.451 135.157 283.262 127.214 278.345 122.031C278.61 121.271 278.827 120.493 278.992 119.705C280.794 111.062 275.739 104.059 267.706 104.059C266.028 104.069 264.363 104.358 262.779 104.915C259.834 96.8296 252.642 91.4394 243.185 91.4394C239.923 91.4608 236.691 92.0612 233.639 93.2125C232.159 88.4086 228.069 85.1744 222.594 85.1744C214.556 85.1744 206.588 92.177 204.787 100.816C204.566 101.87 204.446 102.944 204.428 104.021C192.933 107.558 182.862 118.32 180.209 131.048C179.797 133.022 179.58 135.032 179.562 137.048C170.025 141.701 162.157 151.257 159.864 162.288C157.972 171.272 160.223 179.286 165.23 184.459H273.574C279.465 179.262 283.551 172.325 285.239 164.652C286.685 157.772 285.707 151.503 282.955 146.609Z" fill="#F0F0F0"/>
<path d="M80.5327 57.377H76.594V139.02H80.5327V57.377Z" fill="#E0E0E0"/>
<path d="M81.9512 55.7977H75.1755V57.3722H81.9512V55.7977Z" fill="#E0E0E0"/>
<path d="M78.8778 29.6126L79.3506 22.837L78.561 20L77.7761 22.837L78.2489 29.6126H78.8778Z" fill="#E0E0E0"/>
<path d="M81.9512 55.7977H75.1755L70.4473 36.2558H86.6794L81.9512 55.7977Z" fill="#F5F5F5"/>
<path d="M80.2395 55.7977H76.8825L74.542 36.2558H82.58L80.2395 55.7977Z" fill="#FAFAFA"/>
<path d="M84.1593 180.785H72.9674L75.2323 139.015H81.8944L84.1593 180.785Z" fill="#E0E0E0"/>
<path d="M89.7244 184.44V180.785H67.3975V184.44" fill="#E0E0E0"/>
<path d="M78.561 27.2437C76.1716 27.2449 73.8806 28.1949 72.1915 29.8849C70.5025 31.5749 69.5536 33.8664 69.5536 36.2557H87.5731C87.5731 35.0723 87.34 33.9004 86.8871 32.807C86.4342 31.7136 85.7703 30.7201 84.9335 29.8832C84.0966 29.0464 83.1032 28.3826 82.0098 27.9297C80.9164 27.4768 79.7445 27.2437 78.561 27.2437Z" fill="#E0E0E0"/>
<path d="M80.0882 25.064C80.0891 25.3663 80.0004 25.662 79.8331 25.9138C79.6659 26.1655 79.4277 26.362 79.1487 26.4784C78.8697 26.5947 78.5625 26.6256 78.2659 26.5672C77.9694 26.5088 77.6968 26.3637 77.4827 26.1503C77.2687 25.9369 77.1228 25.6648 77.0634 25.3684C77.0041 25.072 77.0341 24.7647 77.1496 24.4854C77.265 24.206 77.4608 23.9672 77.712 23.7992C77.9633 23.6312 78.2587 23.5415 78.561 23.5415C78.9652 23.5415 79.3529 23.7018 79.6392 23.9871C79.9255 24.2725 80.087 24.6598 80.0882 25.064Z" fill="#E0E0E0"/>
<path d="M173.207 205.793C223.838 205.793 264.883 203.396 264.883 200.44C264.883 197.484 223.838 195.088 173.207 195.088C122.575 195.088 81.5303 197.484 81.5303 200.44C81.5303 203.396 122.575 205.793 173.207 205.793Z" fill="#F5F5F5"/>
<path d="M245.916 21.9486H102.072V166.747H245.916V21.9486Z" fill="#407BFF"/>
<path d="M208.028 36.6063H139.96C139.114 36.6063 138.428 37.2921 138.428 38.1382V51.3065C138.428 52.1525 139.114 52.8384 139.96 52.8384H208.028C208.874 52.8384 209.56 52.1525 209.56 51.3065V38.1382C209.56 37.2921 208.874 36.6063 208.028 36.6063Z" fill="white"/>
<path d="M206.014 38.7103H141.97C141.549 38.7103 141.208 39.0512 141.208 39.4716V49.9778C141.208 50.3982 141.549 50.7391 141.97 50.7391H206.014C206.434 50.7391 206.775 50.3982 206.775 49.9778V39.4716C206.775 39.0512 206.434 38.7103 206.014 38.7103Z" fill="#407BFF"/>
<path d="M144.32 47.0368L148.102 46.8004C148.132 47.3066 148.295 47.7959 148.575 48.2189C148.785 48.4784 149.053 48.6845 149.358 48.8202C149.663 48.9558 149.996 49.0171 150.329 48.999C150.801 49.0297 151.268 48.8886 151.644 48.6019C151.789 48.4908 151.908 48.3478 151.99 48.1839C152.072 48.0199 152.115 47.8395 152.116 47.6562C152.113 47.4845 152.073 47.3156 151.998 47.1612C151.923 47.0069 151.815 46.8708 151.681 46.7626C151.388 46.4978 150.707 46.2472 149.644 46.0155C147.899 45.623 146.66 45.1029 145.913 44.4552C145.552 44.1509 145.264 43.7695 145.07 43.3391C144.876 42.9086 144.781 42.4401 144.792 41.9681C144.791 41.2948 144.99 40.6363 145.364 40.0768C145.793 39.4549 146.394 38.973 147.095 38.6914C148.105 38.3136 149.181 38.1416 150.258 38.1855C151.899 38.1855 153.157 38.4928 154.041 39.1028C154.491 39.4506 154.862 39.891 155.128 40.3942C155.394 40.8975 155.549 41.4519 155.582 42.0201L151.833 42.2423C151.822 42.0025 151.762 41.7675 151.657 41.5519C151.551 41.3362 151.402 41.1446 151.22 40.989C151.037 40.8333 150.824 40.7169 150.594 40.647C150.365 40.5771 150.123 40.5552 149.885 40.5827C149.514 40.5567 149.147 40.6603 148.844 40.8759C148.735 40.9598 148.646 41.0678 148.584 41.1916C148.523 41.3154 148.49 41.4516 148.49 41.5898C148.493 41.6983 148.521 41.8046 148.572 41.9005C148.623 41.9964 148.695 42.0794 148.783 42.143C149.187 42.398 149.642 42.5595 150.116 42.6159C151.4 42.8469 152.652 43.2277 153.847 43.7507C154.517 44.0591 155.086 44.5509 155.488 45.1691C155.829 45.7407 156.007 46.3948 156.003 47.0604C156.005 47.8712 155.767 48.6644 155.317 49.3395C154.851 50.0462 154.184 50.5977 153.403 50.9234C152.42 51.3131 151.367 51.4965 150.31 51.4625C148.123 51.4625 146.606 51.0416 145.762 50.2C144.915 49.3539 144.403 48.2305 144.32 47.0368Z" fill="white"/>
<path d="M159.62 38.4314H163.592V42.9327H167.933V38.4314H171.928V51.2923H167.933V46.0912H163.592V51.2923H159.62V38.4314Z" fill="white"/>
<path d="M175.687 44.8713C175.687 42.7719 176.272 41.1375 177.441 39.9681C178.611 38.7986 180.24 38.2123 182.33 38.2092C184.474 38.2092 186.122 38.7844 187.276 39.935C188.43 41.0855 189.01 42.6963 189.016 44.7673C189.063 46.0431 188.802 47.3115 188.255 48.4648C187.761 49.4132 186.997 50.1945 186.061 50.7107C184.963 51.2757 183.739 51.5508 182.505 51.5098C181.269 51.5539 180.039 51.3179 178.907 50.8195C177.935 50.3351 177.129 49.571 176.595 48.6256C175.96 47.4787 175.646 46.1816 175.687 44.8713ZM179.663 44.8713C179.663 46.1668 179.905 47.0983 180.387 47.6657C180.643 47.9317 180.95 48.1433 181.289 48.2879C181.629 48.4324 181.994 48.5069 182.363 48.5069C182.732 48.5069 183.098 48.4324 183.437 48.2879C183.777 48.1433 184.084 47.9317 184.34 47.6657C184.809 47.1109 185.043 46.1133 185.039 44.6727C185.039 43.4623 184.798 42.5781 184.307 42.0202C184.059 41.7415 183.752 41.5217 183.408 41.3769C183.065 41.2321 182.693 41.1659 182.321 41.1832C181.956 41.1701 181.592 41.2398 181.258 41.3873C180.924 41.5347 180.628 41.7559 180.392 42.0343C179.905 42.6396 179.668 43.5758 179.668 44.8902L179.663 44.8713Z" fill="white"/>
<path d="M192.756 38.4314H199.376C200.813 38.4314 201.891 38.7734 202.61 39.4574C202.981 39.8434 203.269 40.3025 203.454 40.8056C203.638 41.3086 203.717 41.8446 203.683 42.3795C203.714 42.9411 203.625 43.5029 203.423 44.0278C203.221 44.5527 202.91 45.0288 202.51 45.4245C201.73 46.1527 200.539 46.5215 198.936 46.5215H196.761V51.2923H192.77L192.756 38.4314ZM196.747 43.9162H197.721C198.288 43.9699 198.857 43.8281 199.333 43.5143C199.485 43.3915 199.606 43.2356 199.688 43.0585C199.77 42.8815 199.81 42.688 199.806 42.493C199.81 42.3035 199.776 42.115 199.706 41.9388C199.636 41.7626 199.532 41.6021 199.399 41.4669C199.134 41.1832 198.628 41.0461 197.881 41.0461H196.751L196.747 43.9162Z" fill="white"/>
<path opacity="0.5" d="M113.047 57.7747H234.942C235.639 57.7747 236.307 58.0517 236.8 58.5447C237.294 59.0377 237.57 59.7064 237.57 60.4036V166.742H110.418V60.4084C110.417 60.0627 110.485 59.7204 110.617 59.4009C110.748 59.0814 110.942 58.791 111.186 58.5464C111.43 58.3018 111.72 58.1077 112.04 57.9753C112.359 57.8429 112.701 57.7747 113.047 57.7747Z" fill="white"/>
<path d="M102.068 166.747H96.9422C96.3792 166.747 95.8392 166.524 95.441 166.125C95.0429 165.727 94.8192 165.187 94.8192 164.624L94.8192 21.9486H102.068L102.068 166.747Z" fill="#263238"/>
<path d="M251.046 166.747H245.921L245.921 21.9486H253.169L253.169 164.619C253.17 164.899 253.115 165.175 253.009 165.433C252.902 165.691 252.746 165.926 252.549 166.124C252.352 166.321 252.117 166.478 251.86 166.585C251.602 166.692 251.325 166.747 251.046 166.747Z" fill="#263238"/>
<path opacity="0.3" d="M207.002 57.7747H190.709L162.4 166.747H178.689L207.002 57.7747Z" fill="white"/>
<path opacity="0.3" d="M219.003 57.7747H212.057L183.744 166.747H190.694L219.003 57.7747Z" fill="white"/>
<path d="M176.519 56.1199H171.474V166.747H176.519V56.1199Z" fill="#407BFF"/>
<path d="M262.782 26.2656L242.923 0H105.071L85.2118 26.2656C82.9422 29.651 83.9541 32.5258 87.5759 32.5258C91.1978 32.5258 95.7889 29.651 97.737 26.2656H97.9072C95.9639 29.651 97.25 32.5258 100.872 32.5258C104.494 32.5258 108.811 29.651 110.432 26.2656H110.603C108.986 29.651 110.546 32.5258 114.168 32.5258C117.79 32.5258 121.828 29.651 123.151 26.2656H123.322C122.026 29.651 123.865 32.5258 127.487 32.5258C131.109 32.5258 134.873 29.651 135.852 26.2656H136.017C135.048 29.651 137.161 32.5258 140.783 32.5258C144.405 32.5258 147.876 29.651 148.547 26.2656H148.717C148.069 29.651 150.457 32.5258 154.079 32.5258C157.701 32.5258 160.916 29.651 161.242 26.2656H161.413C161.091 29.651 163.753 32.5258 167.375 32.5258C170.997 32.5258 173.938 29.651 173.938 26.2656H174.108C174.108 29.651 177.049 32.5258 180.671 32.5258C184.293 32.5258 186.955 29.651 186.633 26.2656H186.761C187.087 29.651 190.302 32.5258 193.924 32.5258C197.546 32.5258 199.934 29.651 199.286 26.2656H199.456C200.109 29.651 203.598 32.5258 207.22 32.5258C210.842 32.5258 212.956 29.651 211.986 26.2656H212.152C213.13 29.651 216.88 32.5258 220.516 32.5258C224.152 32.5258 225.977 29.651 224.682 26.2656H224.852C226.152 29.651 230.19 32.5258 233.836 32.5258C237.481 32.5258 239.037 29.651 237.401 26.2656H237.571C239.193 29.651 243.51 32.5258 247.131 32.5258C250.753 32.5258 252.039 29.651 250.096 26.2656H250.266C252.214 29.651 256.805 32.5258 260.427 32.5258C264.049 32.5258 265.052 29.651 262.782 26.2656Z" fill="#407BFF"/>
<path opacity="0.8" d="M262.782 26.2656L242.923 0H105.071L85.2118 26.2656C82.9422 29.651 83.9541 32.5258 87.5759 32.5258C91.1978 32.5258 95.7889 29.651 97.737 26.2656H97.9072C95.9639 29.651 97.25 32.5258 100.872 32.5258C104.494 32.5258 108.811 29.651 110.432 26.2656H110.603C108.986 29.651 110.546 32.5258 114.168 32.5258C117.79 32.5258 121.828 29.651 123.151 26.2656H123.322C122.026 29.651 123.865 32.5258 127.487 32.5258C131.109 32.5258 134.873 29.651 135.852 26.2656H136.017C135.048 29.651 137.161 32.5258 140.783 32.5258C144.405 32.5258 147.876 29.651 148.547 26.2656H148.717C148.069 29.651 150.457 32.5258 154.079 32.5258C157.701 32.5258 160.916 29.651 161.242 26.2656H161.413C161.091 29.651 163.753 32.5258 167.375 32.5258C170.997 32.5258 173.938 29.651 173.938 26.2656H174.108C174.108 29.651 177.049 32.5258 180.671 32.5258C184.293 32.5258 186.955 29.651 186.633 26.2656H186.761C187.087 29.651 190.302 32.5258 193.924 32.5258C197.546 32.5258 199.934 29.651 199.286 26.2656H199.456C200.109 29.651 203.598 32.5258 207.22 32.5258C210.842 32.5258 212.956 29.651 211.986 26.2656H212.152C213.13 29.651 216.88 32.5258 220.516 32.5258C224.152 32.5258 225.977 29.651 224.682 26.2656H224.852C226.152 29.651 230.19 32.5258 233.836 32.5258C237.481 32.5258 239.037 29.651 237.401 26.2656H237.571C239.193 29.651 243.51 32.5258 247.131 32.5258C250.753 32.5258 252.039 29.651 250.096 26.2656H250.266C252.214 29.651 256.805 32.5258 260.427 32.5258C264.049 32.5258 265.052 29.651 262.782 26.2656Z" fill="white"/>
<g opacity="0.2">
<path opacity="0.2" d="M105.07 0H114.796L97.7318 26.2656H85.2066L105.07 0Z" fill="#407BFF"/>
<path opacity="0.2" d="M124.782 0H134.508L123.123 26.2656H110.597L124.782 0Z" fill="#407BFF"/>
<path opacity="0.2" d="M144.494 0H154.216L148.518 26.2656H135.988L144.494 0Z" fill="#407BFF"/>
<path opacity="0.2" d="M164.207 0H173.928L173.909 26.2656H161.384L164.207 0Z" fill="#407BFF"/>
<path opacity="0.2" d="M183.914 0H193.64L199.3 26.2656H186.775L183.914 0Z" fill="#407BFF"/>
<path opacity="0.2" d="M203.626 0H213.352L224.695 26.2656H212.17L203.626 0Z" fill="#407BFF"/>
<path opacity="0.2" d="M223.338 0H233.06L250.086 26.2656H237.561L223.338 0Z" fill="#407BFF"/>
<path opacity="0.2" d="M237.561 26.2656C239.183 29.651 243.5 32.5258 247.122 32.5258C250.743 32.5258 252.03 29.651 250.086 26.2656" fill="#407BFF"/>
<path opacity="0.2" d="M212.166 26.2656C213.144 29.651 216.894 32.5258 220.53 32.5258C224.166 32.5258 225.991 29.651 224.695 26.2656" fill="#407BFF"/>
<path opacity="0.2" d="M186.76 26.2656C187.087 29.651 190.302 32.5258 193.924 32.5258C197.546 32.5258 199.933 29.651 199.286 26.2656" fill="#407BFF"/>
<path opacity="0.2" d="M161.384 26.2656C161.062 29.651 163.724 32.5258 167.346 32.5258C170.968 32.5258 173.909 29.651 173.909 26.2656" fill="#407BFF"/>
<path opacity="0.2" d="M135.988 26.2656C135.019 29.651 137.133 32.5258 140.754 32.5258C144.376 32.5258 147.847 29.651 148.518 26.2656" fill="#407BFF"/>
<path opacity="0.2" d="M110.597 26.2656C108.98 29.651 110.541 32.5258 114.163 32.5258C117.784 32.5258 121.822 29.651 123.146 26.2656" fill="#407BFF"/>
<path opacity="0.2" d="M85.2067 26.2656C82.9371 29.651 83.9489 32.5258 87.5708 32.5258C91.1926 32.5258 95.7838 29.651 97.7318 26.2656" fill="#407BFF"/>
</g>
<path d="M221.352 162.294C221.255 162.294 221.161 162.255 221.093 162.186C220.575 161.67 219.732 152.196 217.462 123.989C216.532 112.443 215.654 101.539 215.014 94.9124C214.968 94.4392 214.784 94.3839 214.724 94.3663C213.855 94.1057 211.181 96.2012 209.692 98.0398C209.631 98.1153 209.542 98.1635 209.445 98.1737C209.348 98.1839 209.251 98.1553 209.176 98.0942C209.1 98.033 209.052 97.9444 209.041 97.8477C209.031 97.751 209.06 97.6542 209.121 97.5786C210.106 96.3636 213.315 93.1802 214.935 93.664C215.262 93.7619 215.669 94.0463 215.742 94.8421C216.384 101.476 217.262 112.382 218.191 123.93C219.571 141.071 221.134 160.49 221.648 161.713C221.688 161.768 221.711 161.833 221.716 161.9C221.722 161.967 221.708 162.034 221.677 162.094C221.646 162.154 221.599 162.205 221.542 162.24C221.484 162.275 221.418 162.294 221.35 162.294H221.352Z" fill="#494949"/>
<path d="M214.07 107.071C220.162 102.196 222.181 94.6073 218.58 90.1218C214.979 85.6362 207.122 85.9523 201.03 90.8277C194.938 95.7032 192.919 103.292 196.52 107.777C200.121 112.263 207.979 111.947 214.07 107.071Z" fill="#0CBC8B"/>
<path opacity="0.2" d="M214.07 107.071C220.162 102.196 222.181 94.6073 218.58 90.1218C214.979 85.6362 207.122 85.9523 201.03 90.8277C194.938 95.7032 192.919 103.292 196.52 107.777C200.121 112.263 207.979 111.947 214.07 107.071Z" fill="white"/>
<path d="M198.229 108.918C198.194 108.918 198.16 108.908 198.13 108.889C198.101 108.871 198.077 108.844 198.062 108.813C198.047 108.781 198.042 108.746 198.046 108.711C198.051 108.677 198.065 108.644 198.087 108.617L215.448 87.7144C215.463 87.6954 215.482 87.6796 215.503 87.668C215.525 87.6563 215.548 87.6491 215.572 87.6466C215.597 87.6442 215.621 87.6466 215.644 87.6537C215.668 87.6608 215.689 87.6724 215.708 87.688C215.727 87.7036 215.742 87.7227 215.754 87.7443C215.765 87.7659 215.772 87.7895 215.774 87.8137C215.776 87.838 215.773 87.8624 215.765 87.8856C215.758 87.9087 215.746 87.9301 215.73 87.9486L198.37 108.852C198.352 108.872 198.331 108.889 198.307 108.9C198.282 108.912 198.256 108.918 198.229 108.918Z" fill="white"/>
<path d="M225.138 157.812C225.08 157.812 225.022 157.798 224.97 157.772C224.918 157.745 224.873 157.706 224.84 157.658C224.806 157.611 224.784 157.556 224.775 157.498C224.767 157.44 224.773 157.381 224.792 157.326L231.313 138.601C231.505 138.051 231.832 137.558 232.265 137.166C232.697 136.775 233.221 136.499 233.788 136.362C234.355 136.225 234.948 136.233 235.511 136.384C236.075 136.535 236.591 136.825 237.014 137.227L240.461 140.516C240.498 140.549 240.528 140.588 240.549 140.633C240.57 140.677 240.582 140.726 240.584 140.775C240.585 140.824 240.578 140.873 240.56 140.919C240.543 140.965 240.516 141.007 240.482 141.043C240.448 141.078 240.407 141.107 240.362 141.126C240.317 141.146 240.268 141.156 240.219 141.156C240.169 141.156 240.121 141.147 240.075 141.128C240.03 141.109 239.988 141.081 239.954 141.045L236.505 137.758C236.172 137.441 235.764 137.212 235.319 137.092C234.874 136.973 234.406 136.967 233.959 137.075C233.511 137.183 233.097 137.401 232.756 137.71C232.415 138.019 232.156 138.408 232.005 138.843L225.484 157.568C225.459 157.639 225.412 157.701 225.35 157.745C225.288 157.789 225.214 157.812 225.138 157.812Z" fill="#494949"/>
<path d="M250.093 150.882C254.608 147.314 254.339 139.467 249.494 133.355C244.649 127.243 237.061 125.18 232.546 128.748C228.032 132.316 228.3 140.163 233.146 146.275C237.991 152.387 245.579 154.45 250.093 150.882Z" fill="#0CBC8B"/>
<path d="M218.39 161.1C218.307 161.1 218.227 161.072 218.162 161.021C218.098 160.97 218.052 160.898 218.033 160.818L207.089 115.131C207.014 114.82 206.855 114.535 206.628 114.308C206.402 114.081 206.117 113.921 205.806 113.845C205.494 113.77 205.168 113.781 204.862 113.879C204.557 113.976 204.284 114.156 204.074 114.398L200.701 118.29C200.636 118.361 200.547 118.403 200.451 118.409C200.356 118.415 200.262 118.383 200.19 118.32C200.117 118.258 200.072 118.17 200.064 118.075C200.056 117.979 200.085 117.885 200.146 117.811L203.519 113.918C203.817 113.574 204.205 113.319 204.639 113.18C205.073 113.042 205.537 113.025 205.98 113.133C206.422 113.24 206.827 113.468 207.149 113.79C207.47 114.112 207.697 114.517 207.803 114.959L218.747 160.647C218.769 160.741 218.754 160.841 218.703 160.924C218.652 161.006 218.57 161.066 218.475 161.088C218.447 161.095 218.418 161.099 218.39 161.1Z" fill="#494949"/>
<path d="M214.353 128.44C215.684 120.759 212.163 113.738 206.49 112.758C200.816 111.779 195.139 117.211 193.808 124.893C192.478 132.574 195.999 139.595 201.672 140.574C207.345 141.554 213.023 136.121 214.353 128.44Z" fill="#0CBC8B"/>
<path d="M221.352 162.294C221.337 162.294 221.322 162.293 221.307 162.291C221.211 162.279 221.123 162.229 221.063 162.153C221.003 162.076 220.976 161.979 220.988 161.883L227.976 105.231C228.052 104.614 228.305 104.032 228.705 103.555C229.104 103.078 229.633 102.726 230.228 102.542C230.823 102.358 231.458 102.35 232.058 102.518C232.658 102.686 233.196 103.023 233.608 103.489L241.595 112.522C241.627 112.558 241.652 112.6 241.667 112.645C241.683 112.691 241.69 112.739 241.687 112.787C241.684 112.835 241.671 112.882 241.65 112.926C241.629 112.969 241.599 113.008 241.563 113.039C241.527 113.071 241.485 113.096 241.439 113.111C241.394 113.127 241.345 113.133 241.297 113.13C241.249 113.127 241.202 113.115 241.159 113.094C241.115 113.073 241.077 113.043 241.045 113.007L233.057 103.974C232.739 103.614 232.323 103.354 231.859 103.224C231.396 103.094 230.905 103.1 230.445 103.243C229.985 103.385 229.577 103.656 229.268 104.025C228.959 104.394 228.763 104.843 228.704 105.32L221.716 161.972C221.705 162.061 221.662 162.142 221.595 162.202C221.528 162.261 221.442 162.294 221.352 162.294Z" fill="#494949"/>
<path d="M249.787 117.541C252.574 112.511 249.295 105.374 242.464 101.601C235.632 97.8278 227.835 98.8471 225.048 103.878C222.261 108.908 225.54 116.045 232.372 119.818C239.203 123.591 247.001 122.571 249.787 117.541Z" fill="#0CBC8B"/>
<path opacity="0.2" d="M250.093 150.882C254.608 147.314 254.339 139.467 249.494 133.355C244.649 127.243 237.061 125.18 232.546 128.748C228.032 132.316 228.3 140.163 233.146 146.275C237.991 152.387 245.579 154.45 250.093 150.882Z" fill="white"/>
<path opacity="0.5" d="M214.353 128.44C215.684 120.759 212.163 113.738 206.49 112.758C200.816 111.779 195.139 117.211 193.808 124.893C192.478 132.574 195.999 139.595 201.672 140.574C207.345 141.554 213.023 136.121 214.353 128.44Z" fill="white"/>
<path opacity="0.5" d="M249.787 117.541C252.574 112.511 249.295 105.374 242.464 101.601C235.632 97.8278 227.835 98.8471 225.048 103.878C222.261 108.908 225.54 116.045 232.372 119.818C239.203 123.591 247.001 122.571 249.787 117.541Z" fill="white"/>
<path d="M230.29 210.363H212.414L209.451 153.254H233.253L230.29 210.363Z" fill="#292A2E"/>
<path opacity="0.3" d="M230.29 210.363H212.414L209.451 153.254H233.253L230.29 210.363Z" fill="white"/>
<path d="M250.094 151.063C250.066 151.063 250.039 151.057 250.014 151.045C249.989 151.033 249.967 151.016 249.95 150.994L232.402 128.86C232.372 128.822 232.358 128.773 232.364 128.725C232.37 128.677 232.394 128.633 232.432 128.602C232.47 128.572 232.519 128.558 232.567 128.564C232.616 128.57 232.66 128.594 232.69 128.632L250.238 150.767C250.268 150.805 250.281 150.853 250.276 150.901C250.27 150.949 250.246 150.993 250.208 151.023C250.176 151.049 250.135 151.063 250.094 151.063Z" fill="white"/>
<path d="M248.62 119.315C248.58 119.315 248.542 119.302 248.511 119.278L226.057 102.908C226.036 102.894 226.018 102.876 226.005 102.856C225.991 102.835 225.982 102.812 225.977 102.787C225.973 102.763 225.974 102.738 225.979 102.714C225.985 102.689 225.995 102.667 226.01 102.647C226.025 102.627 226.043 102.61 226.065 102.597C226.086 102.585 226.11 102.576 226.134 102.573C226.159 102.57 226.184 102.572 226.208 102.579C226.232 102.585 226.254 102.597 226.274 102.612L248.73 118.984C248.76 119.007 248.783 119.039 248.795 119.075C248.806 119.112 248.806 119.151 248.794 119.188C248.782 119.224 248.759 119.256 248.728 119.278C248.697 119.301 248.66 119.313 248.621 119.314L248.62 119.315Z" fill="white"/>
<path d="M200.759 140.335C200.743 140.335 200.727 140.333 200.712 140.329C200.665 140.316 200.625 140.286 200.6 140.244C200.576 140.202 200.569 140.152 200.582 140.105L207.73 113.364C207.736 113.341 207.747 113.319 207.761 113.3C207.776 113.281 207.794 113.265 207.815 113.253C207.836 113.241 207.859 113.233 207.883 113.23C207.907 113.227 207.931 113.228 207.954 113.234C207.978 113.24 207.999 113.251 208.019 113.266C208.038 113.28 208.054 113.299 208.066 113.32C208.078 113.34 208.086 113.363 208.089 113.387C208.092 113.411 208.091 113.435 208.085 113.459L200.937 140.199C200.926 140.238 200.903 140.273 200.871 140.297C200.839 140.322 200.8 140.335 200.759 140.335Z" fill="white"/>
<path d="M275.589 217.54H2.27056C2.1988 217.54 2.12998 217.512 2.07924 217.461C2.0285 217.41 2 217.342 2 217.27C2 217.198 2.0285 217.13 2.07924 217.079C2.12998 217.028 2.1988 217 2.27056 217H275.589C275.661 217 275.729 217.028 275.78 217.079C275.831 217.13 275.859 217.198 275.859 217.27C275.859 217.342 275.831 217.41 275.78 217.461C275.729 217.512 275.661 217.54 275.589 217.54Z" fill="white" fill-opacity="0.64"/>
<path d="M42.4778 206.762C42.4778 206.762 43.617 212.602 49.1459 212.929C54.6748 213.255 53.4758 217.611 53.4758 217.611H32.3475V207.17L42.4778 206.762Z" fill="#973C3C"/>
<path d="M30.9146 100.211C30.9146 100.211 30.9807 98.4553 30.9668 102.438C30.9146 117.295 31.4149 210.49 31.4149 210.49L45.2986 210.375L53.7089 99.6071L30.9146 100.211Z" fill="#262626"/>
<path d="M66.1852 206.762C66.1852 206.762 67.3244 212.602 72.8532 212.929C78.3821 213.255 77.1832 217.611 77.1832 217.611H56.0549V207.17L66.1852 206.762Z" fill="#973C3C"/>
<path d="M68.8705 101.365C68.8705 101.365 70.6049 152.142 70.4248 154.624L68.7938 210.105L55.1395 210.354L52.9378 152.617C52.9378 152.617 51.4946 136.69 47.6042 121.901C45.6138 114.311 44.416 106.538 44.0295 98.7059L68.8705 101.365Z" fill="#262626"/>
<path d="M50.8575 137.366L51.996 120.143C51.996 120.143 53.1654 127.303 53.1654 133.475C53.1654 136.491 52.5374 148.435 52.5374 148.435L50.8575 137.366Z" fill="#0A0A0A"/>
<path d="M30.7637 100.21L30.7183 100.212C30.7183 100.212 30.7521 99.3461 30.7637 100.21Z" fill="#333333"/>
<path d="M30.8207 100.21L30.7753 100.212C30.7753 100.212 30.8081 99.3461 30.8207 100.21Z" fill="#333333"/>
<path d="M106.9 58.9953C106.816 58.8315 106.683 58.6974 106.519 58.6115C106.355 58.5256 106.168 58.4922 105.984 58.5159C105.986 58.5049 105.985 58.4937 105.981 58.4833C105.977 58.4728 105.971 58.4635 105.963 58.456C105.954 58.4485 105.944 58.4431 105.934 58.4402C105.923 58.4374 105.911 58.4373 105.9 58.4398L106.521 57.9998C106.707 57.874 106.841 57.6859 106.897 57.4702C106.954 57.2546 106.929 57.026 106.829 56.8268C106.723 56.6331 106.548 56.4852 106.338 56.4118C106.129 56.3384 105.899 56.3448 105.693 56.4297C105.695 56.421 105.689 56.4127 105.688 56.4047L105.943 56.224C106.117 56.1048 106.245 55.9296 106.304 55.7281C106.363 55.5266 106.35 55.3112 106.266 55.1182C106.212 54.9982 106.131 54.8918 106.029 54.8065C105.928 54.7213 105.809 54.6593 105.68 54.6251C105.552 54.5909 105.417 54.5854 105.287 54.6088C105.156 54.6323 105.032 54.6842 104.924 54.7608L104.335 55.1783C104.333 55.1748 104.335 55.1708 104.333 55.1676C104.33 55.1644 104.324 55.1631 104.321 55.1596C104.456 55.0092 104.535 54.8178 104.546 54.6169C104.557 54.416 104.498 54.2174 104.38 54.0537C104.102 53.6115 103.46 53.7018 103.08 53.9716L99.6149 56.3391L100.234 55.3076C100.359 55.1091 100.402 54.8712 100.357 54.642C100.311 54.4128 100.179 54.2093 99.9876 54.0725C99.8862 54.0054 99.772 53.9594 99.652 53.9374C99.5321 53.9154 99.4088 53.9178 99.2899 53.9444C99.1709 53.9711 99.0586 54.0214 98.9599 54.0924C98.8612 54.1634 98.7782 54.2535 98.7159 54.3572L95.3349 59.9884C94.9382 60.6489 94.8175 61.4365 94.9985 62.1837C95.1794 62.9308 95.6478 63.5788 96.3041 63.9898C97.0652 64.4666 97.9529 64.7076 98.8534 64.682C99.7539 64.6565 100.626 64.3655 101.358 63.8463L106.591 60.1366C106.765 60.0087 106.89 59.8263 106.946 59.6191C107.002 59.412 106.986 59.1921 106.9 58.9953Z" fill="#E98862"/>
<g opacity="0.25">
<path opacity="0.25" d="M100.905 57.5174C100.918 57.5347 100.937 57.5464 100.959 57.55C100.98 57.5536 101.002 57.5488 101.02 57.5366L104.312 55.2812C104.33 55.2688 104.342 55.2498 104.346 55.2285C104.35 55.2071 104.345 55.185 104.333 55.1671C104.32 55.1493 104.301 55.137 104.28 55.1332C104.258 55.1293 104.236 55.134 104.218 55.1464L100.925 57.4018C100.907 57.4142 100.895 57.4332 100.891 57.4546C100.887 57.476 100.892 57.498 100.904 57.5159L100.905 57.5174Z" fill="#0C0C0C"/>
</g>
<g opacity="0.25">
<path opacity="0.25" d="M101.871 58.9811C101.884 58.9983 101.903 59.01 101.924 59.0136C101.946 59.0172 101.968 59.0124 101.985 59.0003L105.659 56.4831C105.668 56.4769 105.676 56.4691 105.682 56.4601C105.688 56.451 105.692 56.4409 105.694 56.4303C105.696 56.4197 105.695 56.4089 105.693 56.3984C105.691 56.3878 105.686 56.3779 105.68 56.369C105.667 56.3517 105.648 56.34 105.627 56.3361C105.605 56.3323 105.583 56.3366 105.565 56.3483L101.891 58.8655C101.873 58.8779 101.861 58.8969 101.857 58.9183C101.853 58.9396 101.858 58.9617 101.87 58.9796L101.871 58.9811Z" fill="#0C0C0C"/>
</g>
<g opacity="0.25">
<path opacity="0.25" d="M102.908 60.5736C102.921 60.5909 102.94 60.6026 102.961 60.6061C102.982 60.6096 103.004 60.6048 103.022 60.5926L105.953 58.5848C105.971 58.5724 105.983 58.5534 105.987 58.532C105.991 58.5107 105.986 58.4886 105.974 58.4707C105.961 58.4529 105.942 58.4406 105.92 58.4367C105.899 58.4329 105.876 58.4376 105.858 58.45L102.928 60.4578C102.909 60.4702 102.897 60.4892 102.893 60.5106C102.889 60.532 102.894 60.554 102.907 60.5719L102.908 60.5736Z" fill="#0C0C0C"/>
</g>
<path d="M93.3392 58.7053L83.4095 75.4348L71.2922 59.7136L61.2293 68.6876L78.4137 90.7028L78.5262 90.8596C79.2141 91.7915 80.1306 92.5348 81.1892 93.0195C82.2478 93.5042 83.4138 93.7143 84.5772 93.6301C85.7406 93.5458 86.8632 93.17 87.8392 92.538C88.8151 91.9059 89.6124 91.0385 90.1558 90.0175L104.277 64.7221L93.3392 58.7053Z" fill="#367CFF"/>
<path d="M82.435 77.4466C82.4134 77.4466 82.3921 77.4412 82.3732 77.4307C82.3544 77.4203 82.3385 77.4052 82.3272 77.387C82.3159 77.3687 82.3095 77.3479 82.3087 77.3266C82.3079 77.3052 82.3126 77.2839 82.3225 77.2649L83.2962 75.3781C83.3034 75.363 83.3136 75.3495 83.3262 75.3384C83.3388 75.3273 83.3536 75.3188 83.3696 75.3135C83.3855 75.3081 83.4025 75.3059 83.4193 75.3072C83.4361 75.3084 83.4525 75.3129 83.4676 75.3205C83.4826 75.3281 83.4959 75.3386 83.5068 75.3514C83.5176 75.3642 83.5258 75.379 83.5307 75.395C83.5357 75.4109 83.5374 75.4277 83.5356 75.4443C83.5339 75.4609 83.5289 75.477 83.5207 75.4917L82.5473 77.3785C82.5368 77.3989 82.5207 77.4161 82.5009 77.4282C82.4811 77.4402 82.4583 77.4466 82.435 77.4466Z" fill="#0C0C0C"/>
<path d="M39.7614 36.0654C39.7614 36.0654 38.6613 41.8637 37.0755 43.8271C32.5107 49.4795 30.5717 56.216 33.9706 60.2571C37.3695 64.2983 61.8088 67.239 64.6582 59.2054C67.0569 52.442 63.8003 51.2992 63.68 45.4713C63.625 42.8346 63.269 37.2768 63.269 37.2768" fill="#0A0A0A"/>
<path d="M59.5877 56.1397C59.5451 56.1342 59.0735 63.8743 49.9832 63.1996C43.6901 62.7332 41.446 56.1287 41.302 56.1287C41.9804 55.9862 43.1232 55.7793 43.4244 55.6196C44.4152 55.093 45.6415 54.5449 45.9609 52.6414C46.1448 51.5433 45.8327 45.9313 45.9289 44.8215L55.5888 46.9541C55.4539 49.2986 54.5092 54.7333 57.8203 55.6954C58.3713 55.8544 58.9648 56.0007 59.5877 56.1397Z" fill="#E98862"/>
<path opacity="0.52" d="M55.7243 53.4742C55.5729 52.9919 55.4755 52.4946 55.4337 51.9913C55.3274 50.8426 55.3486 49.686 55.4968 48.5419C53.5334 48.2797 51.6837 47.4781 50.1578 46.2281C49.9785 46.8835 48.9919 49.7471 49.2652 50.3693C49.7814 51.5465 52.2076 53.4742 55.7243 53.4742Z" fill="#0C0C0C"/>
<path d="M54.0096 51.6042C50.1843 51.5188 45.4722 49.4441 45.0607 44.3416L44.6895 39.7387C44.278 34.6374 46.653 30.2883 51.5087 29.9054C56.3645 29.5221 60.3275 33.371 60.739 38.4723L60.9035 40.5101C61.0612 42.4683 60.8349 51.7562 54.0096 51.6042Z" fill="#E98862"/>
<path opacity="0.52" d="M56.2706 44.8332H56.2802C56.477 44.8162 56.6726 44.7885 56.8663 44.7503C57.156 44.6912 57.5385 44.5829 57.5181 44.3278C57.4946 44.037 56.4366 40.9645 56.316 40.6151C56.3108 40.6 56.3027 40.5861 56.292 40.5741C56.2813 40.5621 56.2684 40.5523 56.2539 40.5453C56.2394 40.5382 56.2236 40.5341 56.2075 40.5331C56.1914 40.5321 56.1753 40.5342 56.16 40.5394C56.1447 40.5445 56.1306 40.5526 56.1185 40.5632C56.1064 40.5737 56.0965 40.5865 56.0894 40.6009C56.0823 40.6152 56.0781 40.6308 56.0771 40.6467C56.076 40.6626 56.0782 40.6786 56.0834 40.6937C56.5348 42.0022 57.2572 44.1513 57.2728 44.3473C57.2317 44.4326 56.7488 44.5522 56.2605 44.5908C56.2284 44.5928 56.1983 44.6071 56.1768 44.6307C56.1552 44.6543 56.1438 44.6853 56.1452 44.7172C56.1465 44.749 56.1604 44.779 56.1838 44.8008C56.2073 44.8226 56.2385 44.8344 56.2706 44.8337V44.8332Z" fill="#0C0C0C"/>
<path opacity="0.52" d="M55.3307 46.9164C56.1178 46.8993 56.8898 46.6997 57.5846 46.3337C57.6137 46.3191 57.6357 46.2937 57.6459 46.263C57.656 46.2323 57.6534 46.199 57.6386 46.1702C57.6239 46.1414 57.5982 46.1197 57.5672 46.1096C57.5362 46.0996 57.5025 46.1022 57.4734 46.1168C55.9739 46.8703 54.566 46.8678 53.4018 46.1098C53.3783 46.0938 53.354 46.079 53.3289 46.0656C53.2998 46.0525 53.2666 46.0512 53.2365 46.0619C53.2064 46.0726 53.1817 46.0945 53.1677 46.123C53.1536 46.1514 53.1514 46.1842 53.1614 46.2142C53.1714 46.2443 53.1928 46.2693 53.2212 46.284C53.2305 46.289 53.2464 46.2992 53.2666 46.3132C53.8786 46.713 54.5973 46.923 55.3307 46.9164Z" fill="#0C0C0C"/>
<path d="M40.7111 40.9071L45.0612 40.5884C48.4328 39.64 50.013 34.212 50.013 34.212C50.013 34.212 53.5247 38.4139 63.269 37.2766C63.269 37.2766 62.7924 23.9548 48.3271 26.2703C43.6629 27.0163 39.9196 31.1849 39.6665 37.2633C39.4894 41.5228 40.7111 40.9071 40.7111 40.9071Z" fill="#0A0A0A"/>
<path d="M45.4871 45.8736C44.0116 45.9899 42.6892 44.5229 42.5716 43.0632C42.4541 41.6034 43.5852 40.7042 45.0607 40.5876L45.9001 41.5058L46.756 45.7736L45.4871 45.8736Z" fill="#E98862"/>
<path d="M57.4482 38.3168C57.8993 38.0923 58.4032 37.992 58.907 38.0266C59.1552 38.0421 59.3996 38.0943 59.6322 38.1815C59.8626 38.267 60.0812 38.3809 60.2829 38.5205C60.3101 38.539 60.3291 38.5672 60.3358 38.5992C60.3426 38.6312 60.3366 38.6646 60.3191 38.6923C60.3016 38.7201 60.2739 38.7401 60.2419 38.7482C60.2099 38.7563 60.1759 38.7519 60.1471 38.7358L60.1386 38.7309C59.9508 38.6135 59.749 38.5199 59.5378 38.4521C59.3291 38.3841 59.1113 38.3478 58.8916 38.3443C58.4562 38.3339 58.0259 38.4377 57.6442 38.6453L57.6318 38.6522C57.5874 38.6774 57.5348 38.684 57.4854 38.6707C57.4361 38.6574 57.3941 38.6253 57.3687 38.5814C57.3433 38.5374 57.3366 38.4853 57.35 38.4365C57.3634 38.3877 57.3959 38.3462 57.4403 38.3211L57.4482 38.3168Z" fill="#0C0C0C"/>
<path d="M53.5472 38.797C53.1377 38.6502 52.6963 38.6132 52.2677 38.6899C52.0513 38.7268 51.8417 38.796 51.6463 38.8951C51.4481 38.9942 51.2633 39.1175 51.0962 39.2622L51.0887 39.2682C51.0627 39.2889 51.0297 39.2988 50.9965 39.2958C50.9633 39.2928 50.9326 39.2772 50.9109 39.2523C50.8891 39.2274 50.878 39.195 50.8798 39.1622C50.8817 39.1293 50.8964 39.0984 50.9209 39.076C51.0983 38.9075 51.2965 38.7618 51.5108 38.6422C51.7269 38.5205 51.9603 38.4316 52.2031 38.3784C52.6956 38.2676 53.2091 38.2897 53.69 38.4426C53.7148 38.4499 53.7378 38.462 53.7578 38.4782C53.7777 38.4945 53.7942 38.5145 53.8061 38.5372C53.8181 38.5599 53.8253 38.5847 53.8274 38.6101C53.8295 38.6356 53.8264 38.6613 53.8183 38.6855C53.8102 38.7098 53.7972 38.7322 53.7802 38.7515C53.7632 38.7707 53.7424 38.7863 53.7191 38.7975C53.6959 38.8086 53.6706 38.815 53.6448 38.8163C53.619 38.8176 53.5932 38.8137 53.5689 38.805L53.5613 38.8022L53.5472 38.797Z" fill="#0C0C0C"/>
<path opacity="0.52" d="M55.3719 48.0699C55.5143 48.0691 55.6563 48.0563 55.7965 48.0317C55.8286 48.0262 55.8572 48.0083 55.876 47.9819C55.8947 47.9555 55.9021 47.9229 55.8965 47.8911C55.891 47.8593 55.8728 47.831 55.8462 47.8125C55.8195 47.7939 55.7865 47.7866 55.7544 47.7921C54.9109 47.9376 54.4794 47.5797 54.4615 47.5643C54.4368 47.5446 54.4053 47.5352 54.3737 47.5379C54.3421 47.5407 54.3128 47.5554 54.2919 47.579C54.271 47.6025 54.2601 47.6332 54.2615 47.6645C54.2628 47.6959 54.2764 47.7255 54.2993 47.7472C54.6084 47.974 54.9874 48.088 55.3719 48.0699Z" fill="#0C0C0C"/>
<path d="M45.0763 40.5348L45.0468 40.4135C50.6607 39.0708 49.9109 33.6835 49.9028 33.6291L50.0274 33.6106C50.036 33.666 50.804 39.1649 45.0763 40.5348Z" fill="#0C0C0C"/>
<path opacity="0.1" d="M52.3954 44.792C53.0266 44.792 53.5383 44.4207 53.5383 43.9626C53.5383 43.5046 53.0266 43.1333 52.3954 43.1333C51.7641 43.1333 51.2524 43.5046 51.2524 43.9626C51.2524 44.4207 51.7641 44.792 52.3954 44.792Z" fill="#0C0C0C"/>
<path opacity="0.1" d="M59.1891 43.7648C59.1891 44.2222 59.7018 44.5931 60.3328 44.5941C60.4419 44.594 60.5507 44.5828 60.6575 44.5606C60.7514 44.0263 60.8157 43.5094 60.8576 43.0288C60.69 42.9656 60.5119 42.934 60.3326 42.9357C59.7013 42.9347 59.1896 43.3055 59.1891 43.7648Z" fill="#0C0C0C"/>
<path d="M70.882 73.1799C70.5956 76.5075 69.2028 97.2664 68.9276 101.365H30.987C30.7725 97.6684 29.8102 81.5047 28.9975 74.2763C28.2217 67.3785 26.6995 63.9252 27.8152 61.8859C29.6384 58.5531 34.6205 56.6273 38.0177 56.1724C40.0922 55.8946 43.212 55.6954 43.212 55.6954C43.212 55.6954 43.4762 60.9814 49.7754 61.2757C58.3502 61.675 57.7777 55.6954 57.8201 55.6954C59.2093 55.6954 67.145 56.5652 69.0865 57.7035C74.3767 60.8025 71.4898 66.1287 70.882 73.1799Z" fill="#367CFF"/>
<path d="M71.185 89.5158C71.1731 89.3327 71.1041 89.1577 70.9874 89.0151C70.8707 88.8724 70.7121 88.7691 70.5335 88.7195C70.5414 88.7052 70.5446 88.6889 70.5426 88.6728C70.539 88.6595 70.532 88.6473 70.5222 88.6375C70.5124 88.6277 70.5002 88.6206 70.4868 88.6169L71.2324 88.4532C71.4532 88.4097 71.6506 88.2887 71.7881 88.1124C71.9256 87.9361 71.994 87.7165 71.9805 87.4943C71.96 87.2753 71.8581 87.0716 71.6944 86.9227C71.5307 86.7739 71.317 86.6905 71.0946 86.6887C71.0994 86.6812 71.0974 86.6712 71.0997 86.6637L71.406 86.5966C71.6138 86.5547 71.8007 86.4431 71.9349 86.2807C72.0691 86.1182 72.1424 85.9149 72.1425 85.7051C72.1398 85.5735 72.1076 85.4442 72.0483 85.3265C71.989 85.2087 71.904 85.1054 71.7994 85.0241C71.6949 84.9428 71.5733 84.8854 71.4437 84.8562C71.314 84.827 71.1793 84.8266 71.0495 84.855L70.343 85.0103C70.343 85.0063 70.346 85.0033 70.3453 84.9995C70.3445 84.9958 70.339 84.992 70.3372 84.9876C70.5212 84.9017 70.6703 84.7565 70.76 84.5759C70.8496 84.3952 70.8746 84.1898 70.8307 83.9933C70.7507 83.4786 70.1242 83.3127 69.6676 83.413L65.5413 84.2446L66.5202 83.5365C66.7138 83.4025 66.8486 83.2007 66.8975 82.9721C66.9464 82.7434 66.9057 82.505 66.7836 82.3049C66.717 82.2038 66.6303 82.1172 66.5288 82.0504C66.4272 81.9835 66.313 81.9378 66.193 81.9161C66.073 81.8944 65.9498 81.8971 65.8309 81.924C65.712 81.951 65.5999 82.0016 65.5014 82.0728L60.1562 85.9384C59.5291 86.3919 59.1054 87.0693 58.9752 87.8268C58.8451 88.5843 59.0186 89.3621 59.459 89.995C59.9698 90.7291 60.6906 91.2956 61.529 91.6218C62.3674 91.9481 63.2851 92.0192 64.1646 91.8262L70.4492 90.4463C70.66 90.396 70.8473 90.2767 70.9809 90.1078C71.1145 89.9389 71.1864 89.7303 71.185 89.5158Z" fill="#E98862"/>
<g opacity="0.25">
<path opacity="0.25" d="M66.2596 85.8288C66.2644 85.8497 66.2773 85.8679 66.2955 85.8794C66.3137 85.891 66.3358 85.8951 66.357 85.8907L70.2799 85.0951C70.3007 85.09 70.3186 85.0771 70.33 85.0592C70.3414 85.0413 70.3454 85.0197 70.3411 84.999C70.3368 84.9782 70.3246 84.9599 70.307 84.9479C70.2894 84.9359 70.2677 84.931 70.2466 84.9344L66.3237 85.7308C66.313 85.7329 66.3029 85.7371 66.2939 85.7431C66.2849 85.7491 66.2772 85.7569 66.2712 85.7658C66.2652 85.7748 66.261 85.7848 66.2589 85.7954C66.2569 85.806 66.2569 85.8168 66.2591 85.8274L66.2596 85.8288Z" fill="#0C0C0C"/>
</g>
<g opacity="0.25">
<path opacity="0.25" d="M66.5667 87.5499C66.5715 87.5708 66.5844 87.589 66.6026 87.6005C66.6208 87.6121 66.6429 87.6162 66.6641 87.6118L71.0422 86.7238C71.0528 86.7217 71.063 86.7175 71.072 86.7114C71.081 86.7054 71.0887 86.6976 71.0947 86.6886C71.1006 86.6796 71.1048 86.6696 71.1068 86.659C71.1088 86.6484 71.1087 86.6375 71.1065 86.627C71.1015 86.6061 71.0886 86.5879 71.0704 86.576C71.0523 86.5642 71.0303 86.5596 71.0089 86.5631L66.6308 87.4514C66.6092 87.4557 66.5903 87.4684 66.5782 87.4866C66.5661 87.5047 66.5618 87.5269 66.5662 87.5482L66.5667 87.5499Z" fill="#0C0C0C"/>
</g>
<g opacity="0.25">
<path opacity="0.25" d="M66.8884 89.416C66.8933 89.4368 66.9062 89.455 66.9244 89.4665C66.9426 89.4781 66.9646 89.4822 66.9858 89.4779L70.478 88.7696C70.4988 88.7645 70.5167 88.7516 70.5281 88.7337C70.5395 88.7158 70.5435 88.6942 70.5392 88.6735C70.5349 88.6527 70.5226 88.6344 70.505 88.6224C70.4874 88.6104 70.4658 88.6055 70.4447 88.6089L66.9525 89.3172C66.9309 89.3216 66.912 89.3342 66.8999 89.3524C66.8878 89.3705 66.8835 89.3927 66.8879 89.414L66.8884 89.416Z" fill="#0C0C0C"/>
</g>
<path d="M63.7754 94.2854L29.6767 100.381C28.6127 100.495 27.5363 100.364 26.5319 99.9983C25.5276 99.6323 24.6227 99.0409 23.8882 98.2708C23.1538 97.5006 22.6097 96.5726 22.2988 95.5595C21.9878 94.5465 21.9184 93.4759 22.0961 92.4318L26.8695 64.3654C27.0198 63.4775 27.3456 62.6276 27.8281 61.8642C28.3106 61.1009 28.9405 60.4391 29.6817 59.9167C30.4229 59.3942 31.261 59.0214 32.1479 58.8195C33.0349 58.6176 33.9534 58.5905 34.8509 58.7399C35.7484 58.8892 36.6074 59.2121 37.3787 59.69C38.1501 60.1678 38.8186 60.7914 39.3462 61.525C39.8738 62.2586 40.2501 63.0878 40.4535 63.9653C40.657 64.8428 40.6836 65.7513 40.5319 66.639L37.2771 85.9598L62.2764 82.8544L63.7754 94.2854Z" fill="#367CFF"/>
<path d="M29.6765 100.506C29.645 100.506 29.6147 100.494 29.5915 100.473C29.5683 100.452 29.5539 100.423 29.5511 100.392C29.5483 100.361 29.5574 100.33 29.5765 100.305C29.5956 100.28 29.6233 100.264 29.6543 100.258L63.6348 94.1839L62.1674 82.9939L37.2928 86.0837C37.2733 86.0863 37.2534 86.0843 37.2349 86.0778C37.2163 86.0713 37.1996 86.0606 37.1861 86.0465C37.1724 86.0324 37.1623 86.0155 37.1564 85.9969C37.1506 85.9783 37.1493 85.9586 37.1525 85.9394L39.2215 73.5909C39.2237 73.5744 39.2293 73.5585 39.2379 73.5441C39.2465 73.5297 39.258 73.5172 39.2716 73.5073C39.2852 73.4974 39.3006 73.4902 39.317 73.4864C39.3335 73.4825 39.3505 73.4819 39.3672 73.4846C39.3838 73.4873 39.3998 73.4934 39.414 73.5023C39.4283 73.5113 39.4406 73.5229 39.4502 73.5367C39.4598 73.5504 39.4665 73.5659 39.47 73.5823C39.4734 73.5986 39.4735 73.6155 39.4702 73.6319L37.4288 85.8151L62.2603 82.7306C62.2933 82.7265 62.3267 82.7355 62.3531 82.7557C62.3795 82.7758 62.3967 82.8055 62.401 82.8382L63.9003 94.2687C63.9045 94.3005 63.8961 94.3327 63.877 94.3586C63.8578 94.3845 63.8293 94.4021 63.7973 94.4077L29.6992 100.503C29.6917 100.505 29.6841 100.505 29.6765 100.506Z" fill="#0C0C0C"/>
<path d="M37.2573 85.837L35.0639 86.1843L35.1038 86.431L37.2972 86.0837L37.2573 85.837Z" fill="#0C0C0C"/>
<path d="M59.2986 41.602C59.63 41.602 59.8986 41.3362 59.8986 41.0085C59.8986 40.6807 59.63 40.415 59.2986 40.415C58.9672 40.415 58.6986 40.6807 58.6986 41.0085C58.6986 41.3362 58.9672 41.602 59.2986 41.602Z" fill="#0C0C0C"/>
<path d="M53.2338 41.6394C53.5652 41.6394 53.8338 41.3737 53.8338 41.0459C53.8338 40.7181 53.5652 40.4524 53.2338 40.4524C52.9024 40.4524 52.6338 40.7181 52.6338 41.0459C52.6338 41.3737 52.9024 41.6394 53.2338 41.6394Z" fill="#0C0C0C"/>
<path d="M70.5923 75.3393L70.2892 80.6233L70.5411 80.6374L70.8442 75.3534L70.5923 75.3393Z" fill="#0C0C0C"/>
</svg>
