<svg width="207" height="146" viewBox="0 0 207 146" fill="none" xmlns="http://www.w3.org/2000/svg">
<path d="M207 128.303H-6.10352e-05V128.401H207V128.303Z" fill="#E6E6E6"/>
<path d="M193.918 131.759H186.147V131.857H193.918V131.759Z" fill="#E6E6E6"/>
<path d="M158.049 134.447H154.451V134.545H158.049V134.447Z" fill="#E6E6E6"/>
<path d="M123.918 133.095H115.903V133.193H123.918V133.095Z" fill="#E6E6E6"/>
<path d="M51.3857 133.044H33.505V133.142H51.3857V133.044Z" fill="#E6E6E6"/>
<path d="M29.8204 133.044H27.1998V133.142H29.8204V133.044Z" fill="#E6E6E6"/>
<path d="M117.154 130.724H78.3701V130.822H117.154V130.724Z" fill="#E6E6E6"/>
<path d="M98.118 110.825H18.1787C17.5525 110.824 16.9523 110.587 16.5098 110.168C16.0674 109.748 15.8189 109.18 15.8189 108.587V2.21806C15.8244 1.62868 16.0753 1.06513 16.5171 0.649828C16.9589 0.234526 17.556 0.00100964 18.1787 0H98.118C98.7449 0 99.3462 0.235752 99.7895 0.655394C100.233 1.07504 100.482 1.64419 100.482 2.23765V108.587C100.482 109.18 100.233 109.75 99.7895 110.169C99.3462 110.589 98.7449 110.825 98.118 110.825ZM18.1787 0.078377C17.5799 0.0794151 17.006 0.305303 16.583 0.706459C16.16 1.10761 15.9224 1.65126 15.9224 2.21806V108.587C15.9224 109.154 16.16 109.697 16.583 110.099C17.006 110.5 17.5799 110.726 18.1787 110.727H98.118C98.7171 110.726 99.2915 110.5 99.7151 110.099C100.139 109.698 100.377 109.154 100.378 108.587V2.21806C100.377 1.6509 100.139 1.10726 99.7151 0.706219C99.2915 0.305175 98.7171 0.0794129 98.118 0.078377H18.1787Z" fill="#E6E6E6"/>
<path d="M187.67 110.825H107.727C107.1 110.824 106.5 110.587 106.057 110.168C105.613 109.749 105.364 109.18 105.363 108.587V2.21806C105.369 1.62832 105.621 1.06478 106.064 0.649583C106.506 0.234389 107.104 0.000998632 107.727 0H187.67C188.292 0.00203956 188.888 0.236011 189.329 0.651203C189.77 1.0664 190.02 1.62935 190.026 2.21806V108.587C190.026 109.179 189.778 109.747 189.336 110.166C188.895 110.586 188.296 110.823 187.67 110.825ZM107.727 0.078377C107.128 0.0794129 106.553 0.305175 106.13 0.706219C105.706 1.10726 105.468 1.6509 105.466 2.21806V108.587C105.468 109.154 105.706 109.698 106.13 110.099C106.553 110.5 107.128 110.726 107.727 110.727H187.67C188.269 110.726 188.844 110.5 189.267 110.099C189.691 109.698 189.93 109.154 189.931 108.587V2.21806C189.93 1.6509 189.691 1.10726 189.267 0.706219C188.844 0.305175 188.269 0.0794129 187.67 0.078377H107.727Z" fill="#E6E6E6"/>
<path d="M108.037 7.32037H24.3059V63.8025H108.037V7.32037Z" fill="#FAFAFA"/>
<path d="M109.586 7.32037H25.0303V63.8025H109.586V7.32037Z" fill="#F5F5F5"/>
<path d="M107.416 61.4944V9.62469L27.1998 9.62469V61.4944L107.416 61.4944Z" fill="#FAFAFA"/>
<path d="M41.8057 61.4944L54.532 9.62469H71.2162L58.4899 61.4944H41.8057Z" fill="white"/>
<path d="M61.1891 61.4944L73.9196 9.62469H81.4544L68.7239 61.4944H61.1891Z" fill="white"/>
<path d="M107.416 61.4944V9.62469H107.139V61.4944H107.416Z" fill="#FAFAFA"/>
<path d="M22.6788 7.22639V29.6108H28.9344C28.9344 29.6108 40.1579 22.6705 42.7289 8.3942C42.7912 8.05228 42.7736 7.7016 42.6773 7.36682C42.581 7.03203 42.4084 6.72128 42.1716 6.45643C41.9348 6.19158 41.6396 5.97905 41.3067 5.83381C40.9739 5.68857 40.6114 5.61413 40.2449 5.61575H24.3804C23.9291 5.61575 23.4963 5.78544 23.1772 6.08749C22.8581 6.38955 22.6788 6.79922 22.6788 7.22639Z" fill="#E0E0E0"/>
<path d="M22.6788 70.7114V31.4173H28.9344C28.9344 31.4173 41.6318 54.558 43.1015 70.7114H22.6788Z" fill="#E0E0E0"/>
<path d="M28.7523 29.6107H22.9066C22.5613 29.6107 22.2814 29.8757 22.2814 30.2025V30.8256C22.2814 31.1524 22.5613 31.4173 22.9066 31.4173H28.7523C29.0975 31.4173 29.3774 31.1524 29.3774 30.8256V30.2025C29.3774 29.8757 29.0975 29.6107 28.7523 29.6107Z" fill="#F5F5F5"/>
<path d="M111.366 7.22637V29.6107H105.098C105.098 29.6107 93.8579 22.6705 91.3036 8.39418C91.242 8.05236 91.2601 7.70194 91.3567 7.36745C91.4533 7.03297 91.6259 6.7225 91.8625 6.45781C92.0992 6.19312 92.3941 5.98061 92.7266 5.83515C93.0591 5.68968 93.4212 5.6148 93.7876 5.61573H109.669C110.119 5.6178 110.55 5.78828 110.868 6.09C111.186 6.39171 111.365 6.8002 111.366 7.22637Z" fill="#E0E0E0"/>
<path d="M111.366 70.7114V31.4173H105.098C105.098 31.4173 92.4047 54.558 90.9309 70.7114H111.366Z" fill="#E0E0E0"/>
<path d="M105.28 31.4133H111.126C111.471 31.4133 111.751 31.1484 111.751 30.8216V30.1985C111.751 29.8717 111.471 29.6067 111.126 29.6067H105.28C104.935 29.6067 104.655 29.8717 104.655 30.1985V30.8216C104.655 31.1484 104.935 31.4133 105.28 31.4133Z" fill="#F5F5F5"/>
<path d="M109.474 77.8516H95.7167V128.303H109.474V77.8516Z" fill="#FAFAFA"/>
<path d="M105.802 128.303H109.474V122.475H101.952L105.802 128.303Z" fill="#F4F8FF"/>
<path d="M43.6563 77.8516H29.899V128.303H43.6563V77.8516Z" fill="#E0E0E0"/>
<path d="M109.474 77.8516H40.4519V126.296H109.474V77.8516Z" fill="#FAFAFA"/>
<path d="M61.1891 69.285C61.1891 73.9876 65.975 77.8515 71.8289 77.8515H77.1116C82.9614 77.8515 87.7472 73.9954 87.7472 69.285H61.1891Z" fill="#EBEBEB"/>
<path d="M58.1256 58.52H68.0615C68.0615 58.52 66.3352 62.8307 66.3352 65.3701C66.3352 67.9095 73.8948 77.8516 63.0936 77.8516C52.2923 77.8516 59.8519 67.9056 59.8519 65.3701C59.8519 62.8346 58.1256 58.52 58.1256 58.52Z" fill="#E0E0E0"/>
<path d="M106.626 80.8025H43.3002V93.0175H106.626V80.8025Z" fill="#EBEBEB"/>
<path d="M44.1241 128.303H40.4519V122.475H47.9784L44.1241 128.303Z" fill="#FAFAFA"/>
<path d="M73.0172 86.908C73.0172 87.2723 73.1313 87.6284 73.3451 87.9313C73.5589 88.2342 73.8628 88.4703 74.2183 88.6097C74.5739 88.7491 74.9651 88.7855 75.3426 88.7145C75.72 88.6434 76.0667 88.468 76.3388 88.2104C76.611 87.9528 76.7963 87.6246 76.8714 87.2673C76.9464 86.9101 76.9079 86.5397 76.7606 86.2032C76.6134 85.8666 76.364 85.579 76.044 85.3766C75.724 85.1742 75.3478 85.0662 74.963 85.0662C74.4469 85.0662 73.952 85.2602 73.5871 85.6056C73.2222 85.951 73.0172 86.4195 73.0172 86.908Z" fill="#FAFAFA"/>
<path d="M106.626 95.9683H43.3002V108.183H106.626V95.9683Z" fill="#EBEBEB"/>
<path d="M73.0172 102.074C73.0172 102.438 73.1313 102.794 73.3451 103.097C73.5589 103.4 73.8628 103.636 74.2183 103.775C74.5739 103.915 74.9651 103.951 75.3426 103.88C75.72 103.809 76.0667 103.634 76.3388 103.376C76.611 103.119 76.7963 102.79 76.8714 102.433C76.9464 102.076 76.9079 101.706 76.7606 101.369C76.6134 101.032 76.364 100.745 76.044 100.542C75.724 100.34 75.3478 100.232 74.963 100.232C74.4469 100.232 73.952 100.426 73.5871 100.771C73.2222 101.117 73.0172 101.585 73.0172 102.074Z" fill="#FAFAFA"/>
<path d="M106.626 111.13H43.3002V123.345H106.626V111.13Z" fill="#EBEBEB"/>
<path d="M74.963 119.082C76.0376 119.082 76.9088 118.257 76.9088 117.24C76.9088 116.222 76.0376 115.398 74.963 115.398C73.8883 115.398 73.0172 116.222 73.0172 117.24C73.0172 118.257 73.8883 119.082 74.963 119.082Z" fill="#FAFAFA"/>
<path d="M153.13 6.63849H122.399V27.3456H153.13V6.63849Z" fill="#E0E0E0"/>
<path d="M155.639 6.63849H124.146V27.3456H155.639V6.63849Z" fill="#F5F5F5"/>
<path d="M153.631 25.445V8.53912L126.154 8.53912V25.445H153.631Z" fill="white"/>
<path d="M148.796 20.519V13.4612L130.99 13.4612V20.519H148.796Z" fill="#F5F5F5"/>
<path d="M178.061 16.992H159.357V35.5594H178.061V16.992Z" fill="#E0E0E0"/>
<path d="M180.579 16.992H161.108V35.5594H180.579V16.992Z" fill="#F5F5F5"/>
<path d="M178.571 33.6589V18.8927H163.116V33.6589H178.571Z" fill="white"/>
<path d="M167.952 26.2758C167.952 25.6238 168.225 24.9984 168.712 24.537C169.198 24.0755 169.859 23.8158 170.547 23.8148H171.135C171.824 23.8158 172.484 24.0755 172.971 24.537C173.458 24.9984 173.731 25.6238 173.731 26.2758C173.731 26.9275 173.457 27.5524 172.971 28.0132C172.484 28.474 171.824 28.7329 171.135 28.7329H170.568C170.225 28.7355 169.886 28.6738 169.568 28.5515C169.251 28.4292 168.962 28.2486 168.719 28.0202C168.476 27.7918 168.283 27.52 168.151 27.2206C168.019 26.9212 167.952 26.6001 167.952 26.2758Z" fill="#F5F5F5"/>
<path d="M207 41.8727H157.61H148.63V52.677H139.65V63.4812H130.671V74.2854H121.691V85.0896H112.711V95.8899H103.732V106.694H94.7521V117.498H85.7725V128.303H94.7521H207V41.8727Z" fill="#FAFAFA"/>
<path d="M136.032 117.498H84.8492V120.739H136.032V117.498Z" fill="#EBEBEB"/>
<path d="M145.012 106.694H93.8289V109.935H145.012V106.694Z" fill="#EBEBEB"/>
<path d="M153.991 95.8899H102.809V99.1308H153.991V95.8899Z" fill="#EBEBEB"/>
<path d="M162.971 85.0857H111.788V88.3266H162.971V85.0857Z" fill="#EBEBEB"/>
<path d="M171.951 74.2854H120.768V77.5263H171.951V74.2854Z" fill="#EBEBEB"/>
<path d="M180.93 63.4812H129.747V66.7221H180.93V63.4812Z" fill="#EBEBEB"/>
<path d="M189.91 52.6769H138.727V55.9178H189.91V52.6769Z" fill="#EBEBEB"/>
<path d="M198.89 41.8727H147.707V45.1136H198.89V41.8727Z" fill="#EBEBEB"/>
<path d="M198.02 41.8727V52.677H189.041V63.4812H180.061V74.2854H171.081V85.0896H162.102V95.8899H153.122V106.694H144.142V117.498H135.163V128.303H144.142H207V52.677V41.8727H198.02Z" fill="white"/>
<path d="M103.5 146C147.832 146 183.77 144.014 183.77 141.564C183.77 139.114 147.832 137.128 103.5 137.128C59.1679 137.128 23.2296 139.114 23.2296 141.564C23.2296 144.014 59.1679 146 103.5 146Z" fill="#F5F5F5"/>
<path d="M151.172 41.9315C151.752 43.7695 154.741 47.2102 154.977 49.7143C155.213 52.2185 150.116 56.2235 150.116 56.2235C150.116 56.2235 146.308 44.1692 148.692 42.7623C151.077 41.3555 151.172 41.9315 151.172 41.9315Z" fill="#263238"/>
<path d="M140.706 54.9538C139.804 55.667 138.918 56.2666 137.995 56.8819C137.071 57.4971 136.119 58.0575 135.15 58.5826C134.178 59.1272 133.176 59.623 132.149 60.0679C131.627 60.2913 131.11 60.5107 130.572 60.7027C130.307 60.8046 130.037 60.9026 129.764 60.9888L128.936 61.2631C128.228 61.4505 127.488 61.5011 126.759 61.412C126.149 61.3446 125.546 61.2345 124.954 61.0829C123.85 60.7937 122.769 60.4296 121.72 59.9934C119.684 59.152 117.72 58.1628 115.846 57.0347L116.62 55.671C117.597 56.0628 118.599 56.4547 119.592 56.7957C120.586 57.1366 121.588 57.4971 122.59 57.791C123.566 58.0941 124.562 58.3401 125.57 58.5278C126.034 58.6135 126.503 58.6672 126.974 58.6885C127.325 58.7142 127.679 58.6797 128.017 58.5866C128.962 58.2445 129.885 57.852 130.783 57.4109C131.242 57.1836 131.698 56.9524 132.145 56.7016C132.592 56.4508 133.047 56.2078 133.49 55.9492C134.38 55.428 135.25 54.8754 136.111 54.3072C136.972 53.739 137.829 53.1315 138.595 52.5555L140.706 54.9538Z" fill="#E58A7B"/>
<path d="M142.892 50.7802C141.866 50.02 137.618 52.5084 136.33 53.5469L137.27 58.9275C137.27 58.9275 143.377 56.5057 143.741 54.8519C144.126 53.1237 143.658 51.3602 142.892 50.7802Z" fill="#407BFF"/>
<path opacity="0.2" d="M142.892 50.7802C141.866 50.02 137.618 52.5084 136.33 53.5469L137.27 58.9275C137.27 58.9275 143.377 56.5057 143.741 54.8519C144.126 53.1237 143.658 51.3602 142.892 50.7802Z" fill="black"/>
<path d="M157.179 67.063L144.287 69.4417C137.626 52.3674 139.075 51.807 139.075 51.807C140.012 51.3197 140.98 50.8878 141.973 50.5138L142.147 50.4511C142.975 50.165 143.14 50.1219 144.242 49.8162C146.138 49.3891 147.906 49.0324 150.096 48.7385L150.51 48.6837C150.924 48.6366 151.3 48.5975 151.681 48.5622C151.938 48.5348 152.195 48.5191 152.439 48.5034L153.267 48.4603C154.683 48.3937 155.697 48.4133 155.697 48.4133C155.304 59.0764 155.941 62.137 157.179 67.063Z" fill="#407BFF"/>
<path opacity="0.2" d="M157.179 67.063L144.287 69.4417C137.626 52.3674 139.075 51.807 139.075 51.807C140.012 51.3197 140.98 50.8878 141.973 50.5138L142.147 50.4511C142.975 50.165 143.14 50.1219 144.242 49.8162C146.138 49.3891 147.906 49.0324 150.096 48.7385L150.51 48.6837C150.924 48.6366 151.3 48.5975 151.681 48.5622C151.938 48.5348 152.195 48.5191 152.439 48.5034L153.267 48.4603C154.683 48.3937 155.697 48.4133 155.697 48.4133C155.304 59.0764 155.941 62.137 157.179 67.063Z" fill="black"/>
<path d="M147.082 43.1581C146.254 44.4552 149.255 45.0548 151.031 43.7263C152.451 42.6604 152.116 40.1994 150.899 39.6272C149.682 39.0551 147.082 43.1581 147.082 43.1581Z" fill="#407BFF"/>
<path opacity="0.4" d="M147.082 43.1581C146.254 44.4552 149.255 45.0548 151.031 43.7263C152.451 42.6604 152.116 40.1994 150.899 39.6272C149.682 39.0551 147.082 43.1581 147.082 43.1581Z" fill="black"/>
<path d="M159.63 137.735L156.405 137.962L155.225 130.936L158.45 130.709L159.63 137.735Z" fill="#E58A7B"/>
<path d="M182.442 127.915L179.705 129.545L174.832 124.074L177.569 122.44L182.442 127.915Z" fill="#E58A7B"/>
<path d="M155.225 130.936L155.879 134.839L159.059 134.334L158.454 130.713L155.225 130.936Z" fill="#CF6F64"/>
<path d="M177.573 122.444L174.832 124.074L176.853 126.339L179.651 124.776L177.573 122.444Z" fill="#CF6F64"/>
<path d="M144.486 69.4417C144.486 69.4417 144.441 93.668 146.531 102.791C148.709 112.282 155.113 133.875 155.113 133.875L159.759 133.307C159.759 133.307 156.128 111.495 154.579 102.062C152.894 91.783 153.929 67.7018 153.929 67.7018L144.486 69.4417Z" fill="#407BFF"/>
<path opacity="0.7" d="M144.486 69.4417C144.486 69.4417 144.441 93.668 146.531 102.791C148.709 112.282 155.113 133.875 155.113 133.875L159.759 133.307C159.759 133.307 156.128 111.495 154.579 102.062C152.894 91.783 153.929 67.7018 153.929 67.7018L144.486 69.4417Z" fill="black"/>
<path opacity="0.5" d="M153.639 78.4393L151.362 76.2918C151.449 85.599 152 90.1958 153.892 95.2041C153.594 89.9098 153.569 83.6475 153.639 78.4393Z" fill="black"/>
<path d="M147.69 68.8147C147.69 68.8147 154.633 88.836 158.078 100.369C161.713 112.537 175.648 125.994 175.648 125.994L179.647 123.808C179.647 123.808 170.125 111.032 166.623 99.6794C159.502 76.6328 162.429 71.7499 157.175 67.063L147.69 68.8147Z" fill="#407BFF"/>
<path opacity="0.7" d="M147.69 68.8147C147.69 68.8147 154.633 88.836 158.078 100.369C161.713 112.537 175.648 125.994 175.648 125.994L179.647 123.808C179.647 123.808 170.125 111.032 166.623 99.6794C159.502 76.6328 162.429 71.7499 157.175 67.063L147.69 68.8147Z" fill="black"/>
<path d="M142.234 36.0885C144.08 36.6724 145.757 41.0106 145.827 42.7192C145.898 44.4278 140.479 46.783 140.479 46.783C140.479 46.783 138.09 41.2966 138.756 37.7697C139.046 36.2374 142.234 36.0885 142.234 36.0885Z" fill="#263238"/>
<path d="M116.893 55.816L114.703 53.5587L113.987 56.3881C113.987 56.3881 115.543 57.6892 116.802 57.2424L116.893 55.816Z" fill="#E58A7B"/>
<path d="M112.484 52.9121L110.952 54.0642L113.987 56.3881L114.703 53.5587L112.484 52.9121Z" fill="#E58A7B"/>
<path d="M178.848 128.961L181.407 126.52C181.451 126.478 181.509 126.452 181.572 126.448C181.634 126.444 181.696 126.461 181.746 126.496L184.077 128.134C184.135 128.177 184.182 128.231 184.216 128.292C184.25 128.354 184.27 128.422 184.274 128.491C184.278 128.56 184.267 128.629 184.241 128.694C184.215 128.759 184.174 128.818 184.122 128.867C183.212 129.702 182.731 130.062 181.605 131.136C180.914 131.798 179.974 132.829 179.018 133.742C178.061 134.655 177.055 133.805 177.362 133.35C178.757 131.285 178.509 130.513 178.604 129.463C178.618 129.273 178.705 129.095 178.848 128.961Z" fill="#263238"/>
<path d="M156.19 137.524H159.825C159.889 137.524 159.951 137.545 160 137.583C160.049 137.622 160.082 137.676 160.094 137.735L160.665 140.455C160.678 140.522 160.675 140.591 160.657 140.656C160.638 140.722 160.604 140.783 160.558 140.835C160.512 140.887 160.454 140.929 160.389 140.957C160.324 140.986 160.253 141 160.181 141C158.91 140.98 158.297 140.909 156.699 140.909C155.718 140.909 153.689 141.004 152.331 141.004C150.973 141.004 150.829 139.734 151.387 139.62C153.871 139.103 154.844 138.394 155.66 137.712C155.808 137.592 155.995 137.525 156.19 137.524Z" fill="#263238"/>
<g style="mix-blend-mode:multiply" opacity="0.27">
<path d="M156.115 54.5933L154.128 55.714L156.422 63.877C155.921 61.4042 156.144 58.6884 156.115 54.5933Z" fill="#407BFF"/>
</g>
<path d="M144.821 41.8492C146.233 42.966 148.282 44.5923 150.696 42.6917C152.766 41.0536 154.215 36.7547 150.501 36.5979C148.56 36.5156 144.821 41.8492 144.821 41.8492Z" fill="#263238"/>
<path d="M148.233 42.6134C148.233 44.4631 148.535 47.798 150.096 48.7464C150.096 48.7464 149.955 50.6509 146.453 51.2936C142.607 52.0029 144.242 49.8241 144.242 49.8241C146.246 48.9619 145.898 47.4963 145.235 46.1795L148.233 42.6134Z" fill="#E58A7B"/>
<path d="M147.011 44.0673L145.24 46.1795C145.395 46.4848 145.522 46.8021 145.62 47.1279C146.399 46.8692 147.33 45.8347 147.252 45.0235C147.235 44.6934 147.153 44.3692 147.011 44.0673Z" fill="#CF6F64"/>
<path d="M148.419 38.3654C148.833 41.379 149.086 42.6448 147.81 44.467C145.894 47.2102 141.894 47.0339 140.532 44.2006C139.29 41.6494 138.827 37.1467 141.658 35.4028C142.281 35.0126 142.999 34.7798 143.743 34.7264C144.488 34.673 145.235 34.8009 145.912 35.0978C146.59 35.3948 147.176 35.8509 147.615 36.4229C148.054 36.9948 148.33 37.6636 148.419 38.3654Z" fill="#E58A7B"/>
<path d="M142.888 33.0867C140.735 34.5327 145.053 34.9599 145.057 37.0565C145.057 37.9225 146.56 40.6696 148.696 40.5129L150.766 37.0329C152.944 33.7019 147.798 29.7831 142.888 33.0867Z" fill="#263238"/>
<path d="M142.888 33.0867C139.1 32.8986 137.448 35.7515 137.883 38.3144C140.525 37.6907 143.259 37.4855 145.972 37.707C151.164 38.2086 142.888 33.0867 142.888 33.0867Z" fill="#263238"/>
<path d="M149.454 40.9636C149.507 41.5485 149.311 42.1293 148.912 42.5781C148.378 43.1699 147.67 42.8211 147.421 42.1196C147.21 41.4848 147.235 40.415 147.955 40.0779C148.115 40.0083 148.289 39.9772 148.464 39.9875C148.639 39.9979 148.809 40.0493 148.958 40.1372C149.106 40.2251 149.23 40.3467 149.316 40.491C149.403 40.6352 149.45 40.7977 149.454 40.9636Z" fill="#E58A7B"/>
<path d="M143.819 40.0779C143.869 40.3209 143.774 40.5404 143.608 40.5717C143.443 40.6031 143.265 40.4306 143.215 40.1798C143.165 39.929 143.261 39.7135 143.426 39.6821C143.592 39.6508 143.77 39.835 143.819 40.0779Z" fill="#263238"/>
<path d="M140.926 40.6109C140.975 40.8539 140.88 41.0773 140.715 41.1086C140.549 41.14 140.371 40.9675 140.321 40.7167C140.272 40.4659 140.367 40.2504 140.532 40.223C140.698 40.1955 140.876 40.364 140.926 40.6109Z" fill="#263238"/>
<path d="M140.611 40.2268L139.961 40.1759C139.961 40.1759 140.371 40.5717 140.611 40.2268Z" fill="#263238"/>
<path d="M141.778 40.8891C141.662 41.4828 141.462 42.0588 141.182 42.6016C141.331 42.6671 141.493 42.7011 141.656 42.7011C141.82 42.7011 141.982 42.6671 142.13 42.6016L141.778 40.8891Z" fill="#DF5753"/>
<path d="M143.211 43.3854C143.193 43.3856 143.176 43.3798 143.162 43.369C143.148 43.3583 143.139 43.3432 143.136 43.3266C143.135 43.3173 143.135 43.3078 143.137 43.2986C143.139 43.2894 143.143 43.2807 143.149 43.273C143.155 43.2654 143.162 43.2589 143.171 43.2539C143.179 43.249 143.189 43.2457 143.198 43.2443C143.518 43.1916 143.821 43.0684 144.081 42.8845C144.342 42.7007 144.553 42.4615 144.697 42.1862C144.701 42.1775 144.707 42.1695 144.714 42.1628C144.721 42.1561 144.729 42.1508 144.738 42.1471C144.747 42.1435 144.757 42.1416 144.767 42.1416C144.777 42.1416 144.787 42.1434 144.797 42.147C144.806 42.1506 144.814 42.1559 144.821 42.1626C144.828 42.1693 144.834 42.1772 144.838 42.1859C144.842 42.1947 144.844 42.204 144.844 42.2135C144.844 42.223 144.842 42.2323 144.838 42.2411C144.686 42.5402 144.461 42.8004 144.181 42.9996C143.9 43.1988 143.573 43.3311 143.227 43.3854H143.211Z" fill="#263238"/>
<path d="M144.486 39.0356C144.448 39.036 144.411 39.0234 144.383 39.0003C144.243 38.875 144.075 38.7827 143.89 38.7309C143.706 38.6791 143.512 38.6694 143.323 38.7025C143.281 38.7123 143.237 38.7061 143.2 38.6852C143.163 38.6642 143.136 38.6303 143.126 38.5908C143.116 38.5513 143.122 38.5095 143.144 38.4746C143.166 38.4397 143.202 38.4145 143.244 38.4046C143.483 38.3601 143.729 38.37 143.963 38.4334C144.197 38.4967 144.412 38.6118 144.59 38.7691C144.618 38.7962 144.634 38.8328 144.634 38.871C144.634 38.9091 144.618 38.9457 144.59 38.9729C144.578 38.9897 144.563 39.004 144.545 39.0148C144.527 39.0256 144.507 39.0327 144.486 39.0356Z" fill="#263238"/>
<path d="M139.323 39.5802C139.304 39.5843 139.285 39.5843 139.266 39.5802C139.247 39.5729 139.229 39.5621 139.215 39.5485C139.201 39.5348 139.189 39.5186 139.181 39.5007C139.174 39.4828 139.17 39.4636 139.17 39.4443C139.17 39.425 139.175 39.4059 139.183 39.3882C139.271 39.1739 139.412 38.9827 139.594 38.8306C139.776 38.6786 139.994 38.5701 140.23 38.5143C140.25 38.5103 140.271 38.5103 140.29 38.5141C140.31 38.518 140.329 38.5257 140.346 38.5367C140.363 38.5477 140.377 38.5618 140.387 38.5782C140.398 38.5945 140.405 38.6128 140.408 38.6319C140.412 38.6504 140.413 38.6696 140.409 38.6882C140.405 38.7068 140.397 38.7245 140.386 38.7403C140.375 38.756 140.36 38.7694 140.343 38.7798C140.327 38.7901 140.308 38.7971 140.288 38.8004C140.102 38.8484 139.93 38.9368 139.787 39.0586C139.643 39.1803 139.531 39.3321 139.46 39.5018C139.447 39.5253 139.427 39.5449 139.403 39.5587C139.379 39.5724 139.352 39.5799 139.323 39.5802Z" fill="#263238"/>
<path d="M177.888 130.383C177.817 130.382 177.747 130.364 177.685 130.331C177.623 130.298 177.57 130.252 177.531 130.195C177.502 130.162 177.482 130.122 177.474 130.08C177.466 130.037 177.47 129.993 177.486 129.952C177.631 129.584 178.773 129.349 178.902 129.321C178.917 129.319 178.932 129.321 178.946 129.326C178.96 129.332 178.972 129.341 178.98 129.353C178.989 129.364 178.994 129.378 178.994 129.392C178.994 129.406 178.989 129.42 178.98 129.431C178.757 129.78 178.318 130.364 177.908 130.383H177.888ZM178.753 129.502C178.302 129.611 177.705 129.807 177.631 130.003C177.624 130.021 177.622 130.041 177.626 130.06C177.631 130.079 177.641 130.096 177.656 130.109C177.681 130.15 177.718 130.183 177.761 130.206C177.805 130.228 177.854 130.24 177.904 130.238C178.124 130.227 178.434 129.956 178.753 129.502Z" fill="#407BFF"/>
<path d="M178.567 129.502C178.153 129.502 177.635 129.404 177.482 129.192C177.448 129.144 177.432 129.086 177.437 129.029C177.443 128.971 177.469 128.917 177.511 128.875C177.547 128.831 177.593 128.795 177.645 128.769C177.697 128.744 177.754 128.729 177.813 128.726H177.846C178.31 128.726 178.947 129.318 178.972 129.341C178.982 129.35 178.989 129.361 178.993 129.374C178.997 129.386 178.997 129.399 178.993 129.412C178.989 129.424 178.982 129.435 178.973 129.444C178.964 129.453 178.952 129.459 178.939 129.463C178.817 129.49 178.692 129.504 178.567 129.502ZM177.846 128.871H177.821C177.784 128.872 177.748 128.881 177.715 128.897C177.682 128.914 177.653 128.937 177.631 128.965C177.573 129.039 177.59 129.082 177.61 129.11C177.734 129.29 178.368 129.392 178.757 129.349C178.509 129.109 178.192 128.943 177.846 128.871Z" fill="#407BFF"/>
<path d="M155.002 138.061C154.723 138.084 154.445 138.018 154.211 137.872C154.156 137.832 154.112 137.778 154.085 137.717C154.057 137.656 154.046 137.59 154.054 137.524C154.053 137.484 154.064 137.446 154.084 137.411C154.104 137.377 154.134 137.348 154.169 137.328C154.55 137.116 155.883 137.743 156.032 137.814C156.046 137.821 156.058 137.832 156.065 137.845C156.073 137.858 156.076 137.873 156.074 137.888C156.072 137.903 156.065 137.917 156.055 137.928C156.045 137.939 156.031 137.947 156.016 137.951C155.682 138.017 155.343 138.054 155.002 138.061ZM154.389 137.426C154.34 137.423 154.292 137.432 154.248 137.453C154.234 137.46 154.223 137.471 154.215 137.484C154.208 137.498 154.205 137.513 154.207 137.528C154.203 137.572 154.21 137.616 154.228 137.657C154.246 137.698 154.274 137.734 154.31 137.763C154.517 137.931 155.051 137.959 155.755 137.849C155.328 137.637 154.866 137.494 154.389 137.426Z" fill="#407BFF"/>
<path d="M155.999 137.943H155.97C155.556 137.774 154.757 137.108 154.815 136.767C154.815 136.689 154.89 136.587 155.097 136.567H155.159C155.879 136.567 156.066 137.814 156.074 137.868C156.076 137.882 156.074 137.895 156.069 137.907C156.064 137.92 156.056 137.931 156.045 137.939C156.03 137.944 156.015 137.946 155.999 137.943ZM155.171 136.705H155.126C154.993 136.705 154.985 136.763 154.985 136.779C154.952 136.987 155.498 137.508 155.912 137.739C155.83 137.434 155.619 136.712 155.155 136.712L155.171 136.705Z" fill="#407BFF"/>
<path d="M143.505 39.6939L142.855 39.639C142.855 39.639 143.265 40.0388 143.505 39.6939Z" fill="#263238"/>
<path d="M146.349 53.8997C139.423 55.3614 141.563 51.3955 141.977 50.5216L142.151 50.4589C142.979 50.1728 143.145 50.1297 144.246 49.8241C146.168 49.333 148.124 48.9729 150.1 48.7464L150.514 48.6915C150.928 48.6406 151.305 48.6014 151.686 48.57C151.942 48.5426 152.199 48.5269 152.443 48.5113L153.271 48.4642C153.412 49.0756 153.756 52.3439 146.349 53.8997Z" fill="#E58A7B"/>
<path d="M157.221 66.3106L158.028 67.2981C158.09 67.3726 158.003 67.4784 157.854 67.5058L144.333 69.9982C144.217 70.0217 144.109 69.9982 144.089 69.9159L143.745 68.8461C143.745 68.7716 143.811 68.6893 143.935 68.6658L156.993 66.2597C157.032 66.2487 157.074 66.2476 157.114 66.2565C157.154 66.2655 157.191 66.2841 157.221 66.3106Z" fill="#26395A"/>
<path d="M155.751 68.0153L156.103 67.9526C156.173 67.9526 156.219 67.8977 156.206 67.8546L155.751 66.4673C155.751 66.4242 155.668 66.4046 155.598 66.4164L155.25 66.4791C155.18 66.4791 155.134 66.5379 155.147 66.5771L155.602 67.9682C155.614 68.0074 155.685 68.0309 155.751 68.0153Z" fill="#407BFF"/>
<path d="M147.831 72.6395L145.136 71.6912L145.55 74.1169C145.55 74.1169 147.504 74.7831 148.502 73.9288L147.831 72.6395Z" fill="#E58A7B"/>
<path d="M142.569 72.3339L141.928 73.9249L145.55 74.1169L145.136 71.6912L142.569 72.3339Z" fill="#E58A7B"/>
<path d="M145.339 69.9354L145.691 69.8727C145.757 69.8727 145.807 69.8179 145.79 69.7748L145.335 68.3875C145.335 68.3444 145.256 68.3248 145.186 68.3366L144.834 68.3992C144.763 68.3992 144.718 68.458 144.734 68.4972L145.19 69.8884C145.202 69.9276 145.269 69.9511 145.339 69.9354Z" fill="#407BFF"/>
<path d="M150.547 68.9715L150.895 68.9088C150.965 68.9088 151.011 68.8539 150.998 68.8108L150.543 67.4236C150.543 67.3805 150.46 67.3609 150.39 67.3726L150.042 67.4353C149.972 67.4353 149.926 67.4941 149.938 67.5333L150.394 68.9245C150.41 68.9472 150.434 68.9641 150.462 68.9726C150.49 68.9811 150.52 68.9807 150.547 68.9715Z" fill="#407BFF"/>
<path d="M149.073 47.1906C149.367 47.0848 149.736 48.0645 149.645 48.1899C149.433 48.476 145.567 49.4753 145.393 48.9149C145.382 48.6111 145.431 48.3081 145.538 48.0214C145.649 47.8333 146.506 48.1781 149.073 47.1906Z" fill="#407BFF"/>
<path d="M148.419 47.214C148.568 46.8888 148.994 46.3676 149.367 46.6654C149.74 46.9632 149.897 47.6059 149.653 47.7117C149.408 47.8175 148.162 47.7588 148.419 47.214Z" fill="#407BFF"/>
<path d="M149.21 47.3827C149.466 47.124 150.038 46.7674 150.299 47.1671C150.559 47.5668 150.464 48.2213 150.199 48.2409C149.934 48.2605 148.775 47.8098 149.21 47.3827Z" fill="#407BFF"/>
<path d="M149.351 47.3238C149.33 47.1155 149.373 46.9058 149.475 46.7202C149.577 46.5346 149.734 46.3808 149.926 46.2775C150.398 45.9875 150.857 45.7994 151.04 45.4937C151.118 45.7803 151.134 46.0791 151.085 46.3715C150.99 46.7908 149.52 47.1122 149.62 47.4766L149.351 47.3238Z" fill="#407BFF"/>
<path d="M149.288 47.3042C149.151 47.1397 149.067 46.9412 149.047 46.7326C149.026 46.524 149.07 46.3142 149.173 46.1286C149.396 45.6426 149.678 45.2507 149.661 44.9059C149.891 45.1064 150.076 45.349 150.203 45.6191C150.361 46.011 149.313 47.0416 149.607 47.3003L149.288 47.3042Z" fill="#407BFF"/>
<path d="M178.082 123.859C178.074 123.858 178.066 123.856 178.058 123.852C178.051 123.848 178.045 123.842 178.041 123.835C177.946 123.71 168.482 110.927 165.012 99.6951C162.748 92.4907 161.008 85.1479 159.804 77.7183C159.088 73.533 158.653 71.0054 157.229 68.9323C157.219 68.9228 157.214 68.9102 157.214 68.897C157.214 68.8839 157.219 68.8713 157.229 68.8618C157.239 68.8538 157.251 68.8494 157.264 68.8494C157.277 68.8494 157.29 68.8538 157.299 68.8618C158.74 70.9544 159.175 73.4899 159.891 77.687C161.101 85.1059 162.843 92.4381 165.107 99.6324C168.573 110.848 178.028 123.616 178.124 123.745C178.131 123.755 178.136 123.766 178.136 123.778C178.136 123.79 178.131 123.802 178.124 123.812C178.123 123.823 178.119 123.833 178.111 123.842C178.104 123.85 178.094 123.856 178.082 123.859Z" fill="#407BFF"/>
<path opacity="0.4" d="M178.082 123.859C178.074 123.858 178.066 123.856 178.058 123.852C178.051 123.848 178.045 123.842 178.041 123.835C177.946 123.71 168.482 110.927 165.012 99.6951C162.748 92.4907 161.008 85.1479 159.804 77.7183C159.088 73.533 158.653 71.0054 157.229 68.9323C157.219 68.9228 157.214 68.9102 157.214 68.897C157.214 68.8839 157.219 68.8713 157.229 68.8618C157.239 68.8538 157.251 68.8494 157.264 68.8494C157.277 68.8494 157.29 68.8538 157.299 68.8618C158.74 70.9544 159.175 73.4899 159.891 77.687C161.101 85.1059 162.843 92.4381 165.107 99.6324C168.573 110.848 178.028 123.616 178.124 123.745C178.131 123.755 178.136 123.766 178.136 123.778C178.136 123.79 178.131 123.802 178.124 123.812C178.123 123.823 178.119 123.833 178.111 123.842C178.104 123.85 178.094 123.856 178.082 123.859Z" fill="black"/>
<path d="M160.591 133.291L154.265 134.067L153.851 132.398L160.437 131.077L160.591 133.291Z" fill="#407BFF"/>
<path d="M179.982 123.674L175.317 126.226L173.743 124.952L178.848 121.684L179.982 123.674Z" fill="#407BFF"/>
<path d="M158.086 52.5633C158.309 53.6527 158.438 54.6795 158.562 55.7415C158.686 56.8035 158.732 57.8537 158.765 58.9157C158.798 59.9861 158.773 61.0573 158.69 62.1252C158.645 62.6621 158.595 63.199 158.516 63.7398C158.483 64.0063 158.446 64.2767 158.392 64.5471L158.239 65.3779C158.069 66.0551 157.758 66.6933 157.324 67.255C156.968 67.7276 156.575 68.1743 156.148 68.5913C155.35 69.3681 154.492 70.0885 153.582 70.7467C151.821 72.0297 149.958 73.1814 148.009 74.1913L147.123 72.8903C147.951 72.2672 148.779 71.6245 149.607 70.9701C150.435 70.3156 151.222 69.6533 151.979 68.9636C152.728 68.2998 153.435 67.5944 154.095 66.8514C154.398 66.5075 154.675 66.1434 154.923 65.7619C155.118 65.484 155.259 65.1745 155.337 64.8488C155.472 63.8975 155.55 62.9398 155.573 61.9802C155.573 61.4904 155.573 61.0005 155.573 60.5107C155.573 60.0208 155.552 59.5231 155.527 59.0294C155.478 58.0418 155.382 57.07 155.271 56.0667C155.159 55.0635 155.014 54.072 154.857 53.1433L158.086 52.5633Z" fill="#E58A7B"/>
<path d="M157.585 49.2323C159.353 50.5882 158.931 54.6168 158.931 54.6168L152.969 56.4743C152.969 56.4743 153.242 51.8305 153.54 50.161C153.888 48.1742 155.842 47.896 157.585 49.2323Z" fill="#407BFF"/>
<path opacity="0.2" d="M157.585 49.2323C159.353 50.5882 158.931 54.6168 158.931 54.6168L152.969 56.4743C152.969 56.4743 153.242 51.8305 153.54 50.161C153.888 48.1742 155.842 47.896 157.585 49.2323Z" fill="black"/>
<path d="M78.8297 66.0441C78.5984 65.0939 78.0336 64.246 77.2275 63.6389C76.4214 63.0317 75.4217 62.7012 74.3916 62.7013H41.2716C40.0638 62.7013 38.9055 63.1555 38.0514 63.9639C37.1974 64.7723 36.7176 65.8687 36.7176 67.012V136.697C36.7176 137.84 37.1974 138.936 38.0514 139.745C38.9055 140.553 40.0638 141.007 41.2716 141.007H146.428C147.635 141.007 148.794 140.553 149.648 139.745C150.502 138.936 150.982 137.84 150.982 136.697V78.1611C150.982 77.0178 150.502 75.9214 149.648 75.113C148.794 74.3045 147.635 73.8504 146.428 73.8504H89.1921C86.7866 73.8508 84.4521 73.079 82.5699 71.6611C80.6878 70.2432 79.3692 68.263 78.8297 66.0441Z" fill="#407BFF"/>
<path opacity="0.6" d="M78.8297 66.0441C78.5984 65.0939 78.0336 64.246 77.2275 63.6389C76.4214 63.0317 75.4217 62.7012 74.3916 62.7013H41.2716C40.0638 62.7013 38.9055 63.1555 38.0514 63.9639C37.1974 64.7723 36.7176 65.8687 36.7176 67.012V136.697C36.7176 137.84 37.1974 138.936 38.0514 139.745C38.9055 140.553 40.0638 141.007 41.2716 141.007H146.428C147.635 141.007 148.794 140.553 149.648 139.745C150.502 138.936 150.982 137.84 150.982 136.697V78.1611C150.982 77.0178 150.502 75.9214 149.648 75.113C148.794 74.3045 147.635 73.8504 146.428 73.8504H89.1921C86.7866 73.8508 84.4521 73.079 82.5699 71.6611C80.6878 70.2432 79.3692 68.263 78.8297 66.0441Z" fill="black"/>
<path opacity="0.22" d="M67.1383 44.3416L70.0901 53.3902C70.4669 54.5418 71.3112 55.5048 72.4375 56.0676C73.5639 56.6305 74.8801 56.7471 76.0973 56.392L85.6524 53.5979L67.1383 44.3416Z" fill="#407BFF"/>
<path d="M67.1384 44.3416L32.9834 54.3307C32.3805 54.5061 31.82 54.7922 31.334 55.1728C30.848 55.5534 30.446 56.0209 30.1511 56.5487C29.8561 57.0764 29.674 57.6541 29.6152 58.2485C29.5563 58.843 29.6218 59.4426 29.808 60.013L49.3074 119.767C49.4935 120.338 49.7966 120.868 50.1992 121.328C50.6018 121.787 51.0962 122.168 51.654 122.446C52.2119 122.725 52.8223 122.897 53.4504 122.952C54.0784 123.008 54.7119 122.946 55.3146 122.769L99.0288 109.986C99.6314 109.81 100.191 109.524 100.677 109.143C101.163 108.762 101.564 108.295 101.859 107.767C102.153 107.239 102.335 106.662 102.393 106.067C102.452 105.473 102.386 104.874 102.2 104.304L85.6401 53.5979L67.1384 44.3416Z" fill="#407BFF"/>
<path opacity="0.8" d="M67.1384 44.3416L32.9834 54.3307C32.3805 54.5061 31.82 54.7922 31.334 55.1728C30.848 55.5534 30.446 56.0209 30.1511 56.5487C29.8561 57.0764 29.674 57.6541 29.6152 58.2485C29.5563 58.843 29.6218 59.4426 29.808 60.013L49.3074 119.767C49.4935 120.338 49.7966 120.868 50.1992 121.328C50.6018 121.787 51.0962 122.168 51.654 122.446C52.2119 122.725 52.8223 122.897 53.4504 122.952C54.0784 123.008 54.7119 122.946 55.3146 122.769L99.0288 109.986C99.6314 109.81 100.191 109.524 100.677 109.143C101.163 108.762 101.564 108.295 101.859 107.767C102.153 107.239 102.335 106.662 102.393 106.067C102.452 105.473 102.386 104.874 102.2 104.304L85.6401 53.5979L67.1384 44.3416Z" fill="white"/>
<g opacity="0.28">
<path opacity="0.28" d="M85.5158 107.376L57.0989 115.684C56.5674 115.838 55.993 115.787 55.5011 115.542C55.0093 115.297 54.64 114.877 54.4741 114.375C54.3123 113.872 54.3674 113.329 54.6272 112.864C54.887 112.399 55.3306 112.051 55.861 111.894L84.278 103.583C84.81 103.428 85.3849 103.48 85.8768 103.726C86.3688 103.972 86.7377 104.392 86.9027 104.895C87.0645 105.398 87.0095 105.942 86.7496 106.406C86.4898 106.871 86.0462 107.22 85.5158 107.376Z" fill="#407BFF"/>
</g>
<g opacity="0.28">
<path opacity="0.28" d="M54.9336 58.6179L39.9054 63.0109C39.374 63.1643 38.8 63.1129 38.3085 62.8677C37.8169 62.6226 37.4475 62.2036 37.2806 61.702C37.1187 61.1984 37.1736 60.6547 37.4334 60.1893C37.6932 59.7239 38.1368 59.3746 38.6675 59.2175L53.6957 54.8244C54.2272 54.6688 54.8021 54.7193 55.2943 54.9647C55.7864 55.2102 56.1555 55.6305 56.3205 56.1333C56.4824 56.6369 56.4275 57.1806 56.1677 57.646C55.9079 58.1114 55.4643 58.4607 54.9336 58.6179Z" fill="#407BFF"/>
</g>
<g opacity="0.28">
<path opacity="0.28" d="M67.1963 63.2774L42.3563 70.539C41.8259 70.6898 41.2542 70.6365 40.7651 70.3907C40.276 70.1449 39.9091 69.7265 39.7439 69.2262C39.5808 68.7237 39.6348 68.1805 39.8939 67.7155C40.1531 67.2506 40.5964 66.9018 41.1267 66.7456L65.9667 59.484C66.4981 59.3295 67.0726 59.3804 67.5644 59.6257C68.0563 59.871 68.4255 60.2906 68.5914 60.7929C68.7519 61.2975 68.6953 61.8416 68.434 62.3069C68.1727 62.7722 67.7279 63.121 67.1963 63.2774Z" fill="#407BFF"/>
</g>
<g opacity="0.28">
<path opacity="0.28" d="M81.0653 67.4666L44.8154 78.0475C44.2846 78.2019 43.7107 78.1508 43.2195 77.9055C42.7283 77.6601 42.3598 77.2406 42.1948 76.7386C42.0327 76.2355 42.0871 75.6923 42.346 75.227C42.605 74.7617 43.0476 74.412 43.5776 74.254L79.8274 63.6732C80.3583 63.5199 80.9317 63.5714 81.4226 63.8166C81.9135 64.0618 82.2821 64.4807 82.448 64.9821C82.6113 65.4851 82.5574 66.0289 82.2983 66.4945C82.0392 66.96 81.5959 67.3096 81.0653 67.4666Z" fill="#407BFF"/>
</g>
<g opacity="0.28">
<path opacity="0.28" d="M83.5203 74.9907L62.4477 81.155C61.9163 81.3082 61.3424 81.2561 60.8514 81.0101C60.3604 80.7642 59.9922 80.3443 59.8271 79.8422C59.6651 79.3397 59.7196 78.797 59.9786 78.3323C60.2376 77.8676 60.6802 77.5187 61.2098 77.3616L82.2824 71.1973C82.8144 71.0451 83.3883 71.0976 83.8797 71.3433C84.3711 71.5891 84.7403 72.0083 84.9072 72.5101C85.069 73.0131 85.014 73.5563 84.7541 74.0211C84.4943 74.4859 84.0507 74.8344 83.5203 74.9907Z" fill="#407BFF"/>
</g>
<g opacity="0.28">
<path opacity="0.28" d="M52.785 83.9806L47.2747 85.5913C46.7432 85.7458 46.1688 85.6948 45.6769 85.4495C45.1851 85.2042 44.8158 84.7846 44.6499 84.2824C44.4868 83.7788 44.5412 83.2346 44.8012 82.7689C45.0611 82.3032 45.5054 81.9541 46.0368 81.7978L51.5471 80.1872C52.0786 80.0337 52.6525 80.0852 53.1441 80.3303C53.6356 80.5754 54.005 80.9944 54.1719 81.4961C54.3327 81.9996 54.2772 82.5429 54.0176 83.008C53.758 83.4731 53.3151 83.8226 52.785 83.9806Z" fill="#407BFF"/>
</g>
<g opacity="0.28">
<path opacity="0.28" d="M85.9794 82.5189L49.7296 93.1193C49.1982 93.2725 48.6243 93.2204 48.1333 92.9744C47.6423 92.7284 47.2741 92.3086 47.109 91.8065C46.9459 91.304 46.9998 90.7608 47.259 90.2958C47.5182 89.8309 47.9614 89.4821 48.4917 89.3259L84.7416 78.7254C85.2725 78.5721 85.8458 78.6237 86.3367 78.8689C86.8276 79.114 87.1962 79.533 87.3622 80.0343C87.5254 80.5374 87.4716 81.0811 87.2125 81.5467C86.9534 82.0123 86.51 82.3618 85.9794 82.5189Z" fill="#407BFF"/>
</g>
<g opacity="0.28">
<path opacity="0.28" d="M74.4454 94.1343L52.1846 100.643C51.6538 100.797 51.0804 100.745 50.5895 100.5C50.0986 100.255 49.73 99.8359 49.564 99.3346C49.4019 98.8315 49.4563 98.2882 49.7152 97.8229C49.9742 97.3576 50.4168 97.008 50.9468 96.85L73.2076 90.3408C73.7395 90.1876 74.314 90.2396 74.8056 90.4855C75.2973 90.7314 75.6663 91.1513 75.8323 91.6536C75.9953 92.1567 75.9407 92.7004 75.6807 93.1654C75.4207 93.6304 74.9765 93.9789 74.4454 94.1343Z" fill="#407BFF"/>
</g>
<g opacity="0.28">
<path opacity="0.28" d="M88.4345 90.0469L82.4936 91.783C81.9616 91.9362 81.3872 91.8843 80.8955 91.6384C80.4039 91.3924 80.0348 90.9725 79.8688 90.4702C79.707 89.9671 79.7621 89.4239 80.0219 88.9592C80.2818 88.4944 80.7253 88.1458 81.2557 87.9896L87.1966 86.2535C87.7275 86.0991 88.3014 86.1502 88.7926 86.3955C89.2838 86.6408 89.6522 87.0604 89.8172 87.5624C89.9805 88.0654 89.9266 88.6092 89.6675 89.0748C89.4084 89.5404 88.9651 89.8899 88.4345 90.0469Z" fill="#407BFF"/>
</g>
<g opacity="0.28">
<path opacity="0.28" d="M90.8895 97.579L54.648 108.16C54.116 108.314 53.5411 108.263 53.0491 108.017C52.5572 107.771 52.1883 107.35 52.0232 106.847C51.8603 106.344 51.9148 105.8 52.1748 105.335C52.4348 104.87 52.8791 104.522 53.4101 104.366L89.6558 93.766C90.1878 93.6138 90.7617 93.6662 91.2531 93.912C91.7445 94.1578 92.1137 94.577 92.2806 95.0788C92.3637 95.3294 92.3937 95.5931 92.3687 95.8547C92.3437 96.1163 92.2643 96.3706 92.135 96.603C92.0057 96.8354 91.829 97.0413 91.6153 97.2088C91.4016 97.3763 91.1549 97.5021 90.8895 97.579Z" fill="#407BFF"/>
</g>
<path d="M91.6679 21.871L102.506 44.7335C102.788 45.3303 102.808 46.0083 102.563 46.6192C102.318 47.2302 101.827 47.7245 101.198 47.994L55.2193 67.5294C54.589 67.7968 53.8723 67.8166 53.2265 67.5844C52.5808 67.3523 52.0587 66.8871 51.7748 66.291L40.9322 43.4285C40.6484 42.8314 40.6267 42.1521 40.8721 41.5399C41.1174 40.9277 41.6096 40.4328 42.2404 40.1642L88.2192 20.6288C88.8508 20.3625 89.5681 20.3437 90.2143 20.5765C90.8605 20.8093 91.3831 21.2747 91.6679 21.871Z" fill="#407BFF"/>
<path opacity="0.3" d="M91.6679 21.871L102.506 44.7335C102.788 45.3303 102.808 46.0083 102.563 46.6192C102.318 47.2302 101.827 47.7245 101.198 47.994L55.2193 67.5294C54.589 67.7968 53.8723 67.8166 53.2265 67.5844C52.5808 67.3523 52.0587 66.8871 51.7748 66.291L40.9322 43.4285C40.6484 42.8314 40.6267 42.1521 40.8721 41.5399C41.1174 40.9277 41.6096 40.4328 42.2404 40.1642L88.2192 20.6288C88.8508 20.3625 89.5681 20.3437 90.2143 20.5765C90.8605 20.8093 91.3831 21.2747 91.6679 21.871Z" fill="black"/>
<path d="M84.4215 20.7412L82.9521 21.3652L83.1215 21.7227L84.5909 21.0988L84.4215 20.7412Z" fill="#407BFF"/>
<path d="M80.8941 22.2371L76.3122 24.1827L76.4816 24.5402L81.0636 22.5947L80.8941 22.2371Z" fill="#407BFF"/>
<path d="M40.8913 45.7327L40.5136 45.8932L41.7685 48.5387L42.1462 48.3782L40.8913 45.7327Z" fill="#407BFF"/>
<path opacity="0.6" d="M90.1277 20.5464L78.2708 42.5311C77.1706 44.5688 75.3688 46.1901 73.1632 47.1271C70.9576 48.0641 68.4802 48.2607 66.1406 47.6843L40.9073 41.4573C41.1661 40.8842 41.6415 40.4231 42.2404 40.1641L88.2192 20.6287C88.8215 20.3738 89.5035 20.3444 90.1277 20.5464Z" fill="#407BFF"/>
<path d="M106.427 48.6836L70.7484 50.7684C70.1181 50.8039 69.5014 50.9567 68.9335 51.218C68.3656 51.4794 67.8578 51.8441 67.439 52.2915C67.0202 52.7388 66.6988 53.26 66.493 53.8251C66.2873 54.3901 66.2013 54.9881 66.24 55.5847L70.3096 118.004C70.3476 118.601 70.5096 119.185 70.7865 119.723C71.0633 120.26 71.4495 120.741 71.9229 121.137C72.3964 121.533 72.9477 121.837 73.5454 122.031C74.1431 122.225 74.7753 122.305 75.4059 122.268L121.07 119.599C121.7 119.563 122.316 119.41 122.883 119.148C123.45 118.886 123.956 118.521 124.374 118.074C124.792 117.627 125.112 117.105 125.317 116.541C125.521 115.976 125.606 115.378 125.566 114.783L122.13 61.8117L106.427 48.6836Z" fill="#407BFF"/>
<path opacity="0.8" d="M106.427 48.6836L70.7484 50.7684C70.1181 50.8039 69.5014 50.9567 68.9335 51.218C68.3656 51.4794 67.8578 51.8441 67.439 52.2915C67.0202 52.7388 66.6988 53.26 66.493 53.8251C66.2873 54.3901 66.2013 54.9881 66.24 55.5847L70.3096 118.004C70.3476 118.601 70.5096 119.185 70.7865 119.723C71.0633 120.26 71.4495 120.741 71.9229 121.137C72.3964 121.533 72.9477 121.837 73.5454 122.031C74.1431 122.225 74.7753 122.305 75.4059 122.268L121.07 119.599C121.7 119.563 122.316 119.41 122.883 119.148C123.45 118.886 123.956 118.521 124.374 118.074C124.792 117.627 125.112 117.105 125.317 116.541C125.521 115.976 125.606 115.378 125.566 114.783L122.13 61.8117L106.427 48.6836Z" fill="white"/>
<g opacity="0.22">
<path opacity="0.22" d="M108.584 114.038L78.8959 115.774C78.3413 115.804 77.7966 115.625 77.3809 115.276C76.9651 114.928 76.712 114.437 76.6769 113.913C76.6451 113.388 76.8334 112.872 77.2008 112.478C77.5683 112.084 78.0852 111.844 78.6392 111.808L108.327 110.076C108.882 110.045 109.427 110.223 109.843 110.571C110.26 110.919 110.514 111.409 110.55 111.934C110.583 112.459 110.395 112.976 110.026 113.37C109.658 113.765 109.139 114.005 108.584 114.038Z" fill="#407BFF"/>
</g>
<g opacity="0.22">
<path opacity="0.22" d="M91.0138 59.8328L75.3107 60.7419C74.7564 60.772 74.2119 60.5938 73.7956 60.246C73.3793 59.8981 73.1248 59.4088 73.0876 58.8844C73.0558 58.359 73.2446 57.843 73.613 57.4489C73.9813 57.0547 74.4993 56.8143 75.0541 56.78L90.7571 55.863C91.3113 55.8319 91.8559 56.0099 92.2718 56.358C92.6877 56.7061 92.941 57.196 92.9761 57.7205C93.0113 58.2468 92.8244 58.7648 92.4565 59.1609C92.0886 59.5569 91.5697 59.7985 91.0138 59.8328Z" fill="#407BFF"/>
</g>
<g opacity="0.22">
<path opacity="0.22" d="M101.769 67.0982L75.8241 68.6109C75.2692 68.6431 74.7235 68.4656 74.3067 68.1173C73.8899 67.7691 73.6361 67.2786 73.6009 66.7534C73.568 66.2277 73.7565 65.7112 74.1251 65.3168C74.4936 64.9224 75.0122 64.6822 75.5674 64.649L101.509 63.1363C102.064 63.1041 102.609 63.2816 103.026 63.6298C103.443 63.9781 103.697 64.4686 103.732 64.9938C103.765 65.5188 103.577 66.0348 103.209 66.4291C102.841 66.8234 102.324 67.064 101.769 67.0982Z" fill="#407BFF"/>
</g>
<g opacity="0.22">
<path opacity="0.22" d="M114.202 74.2658L76.3375 76.476C75.7811 76.5082 75.2338 76.3304 74.8156 75.9816C74.3974 75.6327 74.1422 75.1411 74.106 74.6146C74.0732 74.09 74.2612 73.5744 74.629 73.1808C74.9968 72.7871 75.5143 72.5474 76.0684 72.5141L113.937 70.2999C114.492 70.2699 115.036 70.4488 115.452 70.7975C115.868 71.1463 116.121 71.6366 116.156 72.1614C116.189 72.6851 116.002 73.2 115.636 73.5941C115.27 73.9881 114.755 74.2296 114.202 74.2658Z" fill="#407BFF"/>
</g>
<g opacity="0.22">
<path opacity="0.22" d="M114.715 82.127L92.7028 83.4124C92.1482 83.4435 91.6031 83.2656 91.1865 82.9176C90.77 82.5696 90.5159 82.0796 90.4796 81.5548C90.4456 81.0296 90.6332 80.513 91.0011 80.1185C91.369 79.7239 91.8872 79.4837 92.442 79.4504L114.454 78.165C115.009 78.1328 115.555 78.3104 115.972 78.6586C116.389 79.0068 116.642 79.4974 116.678 80.0226C116.71 80.5476 116.523 81.0636 116.155 81.4579C115.787 81.8521 115.27 82.0927 114.715 82.127Z" fill="#407BFF"/>
</g>
<g opacity="0.22">
<path opacity="0.22" d="M82.6054 84.0002L76.8466 84.3372C76.2924 84.3683 75.7478 84.1903 75.3319 83.8422C74.916 83.4941 74.6628 83.0041 74.6276 82.4797C74.5947 81.9547 74.7826 81.4387 75.1503 81.0444C75.518 80.6501 76.0355 80.4095 76.59 80.3753L82.3487 80.0382C82.9037 80.0082 83.4488 80.1869 83.8652 80.5356C84.2817 80.8843 84.5356 81.3746 84.5719 81.8997C84.6036 82.4247 84.4146 82.9402 84.0462 83.3338C83.6777 83.7273 83.1598 83.9669 82.6054 84.0002Z" fill="#407BFF"/>
</g>
<g opacity="0.22">
<path opacity="0.22" d="M115.229 89.9881L77.36 92.1983C76.8054 92.2295 76.2602 92.0516 75.8437 91.7036C75.4271 91.3556 75.173 90.8656 75.1368 90.3408C75.105 89.8154 75.2939 89.2995 75.6622 88.9053C76.0306 88.5111 76.5485 88.2707 77.1033 88.2364L114.968 86.0262C115.523 85.9951 116.069 86.1735 116.485 86.5223C116.902 86.8712 117.156 87.3621 117.191 87.8876C117.224 88.4122 117.036 88.9278 116.668 89.3215C116.3 89.7151 115.783 89.9548 115.229 89.9881Z" fill="#407BFF"/>
</g>
<g opacity="0.22">
<path opacity="0.22" d="M101.128 98.7037L77.8734 100.063C77.3183 100.094 76.7732 99.9148 76.3568 99.5661C75.9404 99.2175 75.6864 98.7272 75.6502 98.202C75.6184 97.6771 75.8074 97.1615 76.1759 96.768C76.5443 96.3744 77.0623 96.1349 77.6167 96.1016L100.871 94.7417C101.426 94.7117 101.97 94.8906 102.386 95.2393C102.802 95.5881 103.055 96.0784 103.09 96.6032C103.124 97.128 102.936 97.6441 102.568 98.0381C102.2 98.432 101.682 98.6714 101.128 98.7037Z" fill="#407BFF"/>
</g>
<g opacity="0.22">
<path opacity="0.22" d="M115.738 97.8532L109.528 98.2138C108.974 98.2449 108.429 98.0669 108.013 97.7188C107.597 97.3706 107.344 96.8807 107.309 96.3562C107.275 95.831 107.462 95.3144 107.83 94.9199C108.198 94.5254 108.716 94.2851 109.271 94.2518L115.481 93.8913C116.036 93.8591 116.582 94.0366 116.999 94.3849C117.415 94.7331 117.669 95.2236 117.704 95.7488C117.736 96.2742 117.547 96.7902 117.179 97.1844C116.811 97.5785 116.293 97.819 115.738 97.8532Z" fill="#407BFF"/>
</g>
<g opacity="0.22">
<path opacity="0.22" d="M116.251 105.714L78.3867 107.925C77.8321 107.956 77.287 107.778 76.8704 107.43C76.4539 107.082 76.1998 106.592 76.1635 106.067C76.1306 105.542 76.3186 105.026 76.6862 104.632C77.0539 104.238 77.5715 103.997 78.1259 103.963L115.994 101.753C116.549 101.721 117.093 101.899 117.509 102.248C117.925 102.596 118.178 103.086 118.214 103.61C118.248 104.135 118.06 104.652 117.692 105.046C117.324 105.441 116.806 105.681 116.251 105.714Z" fill="#407BFF"/>
</g>
<path opacity="0.22" d="M106.427 48.6836L107.044 58.1358C107.082 58.7318 107.244 59.3147 107.521 59.8514C107.798 60.388 108.183 60.8678 108.656 61.2634C109.128 61.659 109.678 61.9626 110.275 62.1568C110.871 62.3511 111.502 62.4322 112.132 62.3956L122.13 61.8117L106.427 48.6836Z" fill="#407BFF"/>
<path opacity="0.5" d="M94.7439 72.2633C94.7376 71.8103 94.6355 71.3631 94.4436 70.9482C94.2517 70.5332 93.9738 70.1588 93.6265 69.8472C93.2792 69.5356 92.8694 69.293 92.4213 69.1338C91.9732 68.9747 91.496 68.9021 91.0178 68.9205H57.8564C55.3435 68.9205 52.8884 70.8525 52.4165 73.2312L39.3299 136.697C38.8414 139.075 40.4809 141.007 42.9938 141.007H148.15C150.663 141.007 153.097 139.079 153.59 136.697L164.383 84.3803C164.871 81.9977 163.232 80.0696 160.719 80.0696H103.5C98.532 80.0696 94.9136 76.8326 94.7439 72.2633Z" fill="#407BFF"/>
</svg>
