<svg width="268" height="258" viewBox="0 0 268 258" fill="none" xmlns="http://www.w3.org/2000/svg">
<g clip-path="url(#clip0)">
<path opacity="0.05" d="M201.753 252.698H194.781V257.349H201.753V252.698Z" fill="#292A2E"/>
<path opacity="0.05" d="M245.518 252.698H238.546V257.349H245.518V252.698Z" fill="#292A2E"/>
<path d="M251.908 181.839H188.39V252.698H251.908V181.839Z" fill="#F4F4F4"/>
<path opacity="0.03" d="M251.908 181.839H188.39V252.698H251.908V181.839Z" fill="#292A2E"/>
<path d="M235.039 181.839H171.521V252.698H235.039V181.839Z" fill="#F4F4F4"/>
<path opacity="0.05" d="M184.884 252.698H177.912V257.349H184.884V252.698Z" fill="#292A2E"/>
<path opacity="0.05" d="M228.649 252.698H221.677V257.349H228.649V252.698Z" fill="#292A2E"/>
<path opacity="0.7" d="M231.622 186.22H174.938V204.192H231.622V186.22Z" fill="white"/>
<path opacity="0.7" d="M231.622 208.591H174.938V226.563H231.622V208.591Z" fill="white"/>
<path opacity="0.7" d="M231.622 230.961H174.938V248.933H231.622V230.961Z" fill="white"/>
<path opacity="0.05" d="M203.28 197.721C204.671 197.721 205.798 196.595 205.798 195.206C205.798 193.817 204.671 192.691 203.28 192.691C201.89 192.691 200.763 193.817 200.763 195.206C200.763 196.595 201.89 197.721 203.28 197.721Z" fill="#292A2E"/>
<path opacity="0.05" d="M203.28 220.092C204.671 220.092 205.798 218.966 205.798 217.577C205.798 216.188 204.671 215.062 203.28 215.062C201.89 215.062 200.763 216.188 200.763 217.577C200.763 218.966 201.89 220.092 203.28 220.092Z" fill="#292A2E"/>
<path opacity="0.05" d="M203.28 242.462C204.671 242.462 205.798 241.336 205.798 239.948C205.798 238.559 204.671 237.433 203.28 237.433C201.89 237.433 200.763 238.559 200.763 239.948C200.763 241.336 201.89 242.462 203.28 242.462Z" fill="#292A2E"/>
<path d="M29.8527 222.926C29.8175 222.927 29.7827 222.92 29.7502 222.906C29.7177 222.893 29.6882 222.873 29.6634 222.848C29.2862 222.472 28.6712 215.558 27.015 194.974C26.3373 186.552 25.6972 178.596 25.23 173.761C25.1968 173.416 25.0626 173.376 25.0187 173.363C24.3791 173.17 22.4345 174.702 21.3488 176.043C21.3042 176.098 21.2394 176.134 21.1688 176.141C21.0981 176.149 21.0274 176.128 20.9721 176.083C20.9169 176.038 20.8817 175.974 20.8742 175.903C20.8667 175.833 20.8876 175.762 20.9322 175.707C21.6503 174.82 23.9903 172.495 25.1727 172.85C25.411 172.922 25.7081 173.129 25.7617 173.71C26.2294 178.549 26.8696 186.506 27.5475 194.931C28.5539 207.44 29.6939 221.611 30.0688 222.503C30.0975 222.543 30.1146 222.59 30.1183 222.639C30.1219 222.688 30.1119 222.737 30.0895 222.781C30.067 222.825 30.0329 222.862 29.9909 222.887C29.9489 222.913 29.9006 222.926 29.8514 222.926H29.8527Z" fill="#494949"/>
<path d="M24.5421 182.634C28.9849 179.076 30.4574 173.539 27.8311 170.266C25.2047 166.993 19.4741 167.224 15.0313 170.781C10.5885 174.339 9.11601 179.876 11.7423 183.149C14.3687 186.422 20.0993 186.191 24.5421 182.634Z" fill="#0CBC8B"/>
<path opacity="0.2" d="M24.5421 182.634C28.9849 179.076 30.4574 173.539 27.8311 170.266C25.2047 166.993 19.4741 167.224 15.0313 170.781C10.5885 174.339 9.11601 179.876 11.7423 183.149C14.3687 186.422 20.0993 186.191 24.5421 182.634Z" fill="white"/>
<path d="M12.9874 183.981C12.962 183.981 12.9371 183.973 12.9156 183.96C12.8942 183.946 12.877 183.927 12.8662 183.904C12.8554 183.881 12.8514 183.855 12.8546 183.83C12.8578 183.805 12.8681 183.781 12.8843 183.761L25.5459 168.509C25.5571 168.496 25.5709 168.485 25.5864 168.476C25.602 168.468 25.619 168.463 25.6365 168.461C25.6541 168.46 25.6717 168.462 25.6885 168.467C25.7053 168.472 25.721 168.481 25.7345 168.492C25.748 168.503 25.7592 168.517 25.7674 168.532C25.7756 168.548 25.7807 168.565 25.7823 168.582C25.7839 168.6 25.7821 168.617 25.7769 168.634C25.7717 168.651 25.7633 168.667 25.752 168.68L13.0905 183.932C13.0779 183.947 13.0621 183.959 13.0443 183.968C13.0265 183.976 13.0071 183.981 12.9874 183.981Z" fill="white"/>
<path d="M32.6137 219.657C32.5837 219.657 32.554 219.652 32.5259 219.642C32.4588 219.618 32.4037 219.569 32.3728 219.506C32.3419 219.442 32.3376 219.368 32.3609 219.301L37.117 205.638C37.2571 205.237 37.4957 204.877 37.811 204.592C38.1264 204.306 38.5084 204.104 38.9221 204.005C39.3357 203.905 39.7679 203.91 40.1788 204.021C40.5898 204.131 40.9665 204.343 41.2744 204.636L43.789 207.035C43.8404 207.084 43.8702 207.152 43.8718 207.223C43.8735 207.294 43.8468 207.362 43.7977 207.414C43.7487 207.465 43.6812 207.495 43.6102 207.496C43.5392 207.498 43.4704 207.471 43.419 207.422L40.9047 205.023C40.6616 204.791 40.3642 204.624 40.0397 204.537C39.7153 204.45 39.3741 204.446 39.0476 204.524C38.721 204.603 38.4194 204.762 38.1704 204.988C37.9214 205.213 37.7331 205.497 37.6225 205.814L32.8667 219.477C32.8484 219.53 32.8143 219.575 32.7689 219.607C32.7236 219.64 32.6693 219.657 32.6137 219.657Z" fill="#494949"/>
<path d="M50.8133 214.599C54.1058 211.996 53.9101 206.27 50.3763 201.811C46.8424 197.351 41.3085 195.846 38.016 198.449C34.7234 201.053 34.9191 206.778 38.453 211.238C41.9869 215.698 47.5208 217.203 50.8133 214.599Z" fill="#0CBC8B"/>
<path d="M27.6915 222.055C27.6314 222.055 27.573 222.035 27.5258 221.998C27.4786 221.96 27.4453 221.908 27.4313 221.85L19.4498 188.514C19.3952 188.287 19.2789 188.079 19.1138 187.914C18.9487 187.748 18.7411 187.631 18.5139 187.576C18.2867 187.521 18.0486 187.529 17.8258 187.6C17.603 187.671 17.4042 187.803 17.2511 187.979L14.7906 190.819C14.768 190.847 14.74 190.87 14.7083 190.886C14.6767 190.903 14.642 190.913 14.6064 190.916C14.5707 190.919 14.5348 190.915 14.5008 190.904C14.4668 190.893 14.4353 190.875 14.4082 190.852C14.3812 190.829 14.3591 190.8 14.3433 190.768C14.3275 190.736 14.3182 190.701 14.3161 190.665C14.314 190.63 14.3191 190.594 14.3311 190.56C14.3431 190.527 14.3617 190.496 14.3858 190.469L16.846 187.629C17.0635 187.378 17.3461 187.192 17.6628 187.091C17.9794 186.99 18.3179 186.978 18.6409 187.056C18.9639 187.135 19.2589 187.301 19.4935 187.536C19.7282 187.771 19.8933 188.067 19.9708 188.39L27.9518 221.726C27.9683 221.795 27.9567 221.867 27.9195 221.928C27.8824 221.988 27.8227 222.031 27.7537 222.048C27.7333 222.053 27.7125 222.055 27.6915 222.055Z" fill="#494949"/>
<path d="M24.7465 198.225C25.7168 192.621 23.149 187.498 19.0113 186.783C14.8736 186.068 10.7327 190.032 9.76251 195.637C8.79227 201.241 11.36 206.364 15.4978 207.079C19.6355 207.794 23.7763 203.83 24.7465 198.225Z" fill="#0CBC8B"/>
<path d="M29.8526 222.926C29.8416 222.927 29.8306 222.926 29.8197 222.925C29.7848 222.92 29.751 222.909 29.7204 222.892C29.6898 222.875 29.6629 222.851 29.6412 222.824C29.6196 222.796 29.6036 222.764 29.5942 222.731C29.5848 222.697 29.5822 222.661 29.5865 222.626L34.6831 181.29C34.7387 180.84 34.9233 180.415 35.2147 180.067C35.5061 179.719 35.8919 179.463 36.3257 179.329C36.7596 179.194 37.223 179.188 37.6603 179.311C38.0976 179.433 38.4901 179.679 38.7908 180.019L44.6162 186.61C44.6395 186.636 44.6573 186.667 44.6687 186.7C44.6801 186.734 44.6849 186.769 44.6827 186.804C44.6805 186.839 44.6714 186.873 44.656 186.905C44.6405 186.936 44.619 186.964 44.5926 186.988C44.5663 187.011 44.5356 187.029 44.5023 187.04C44.469 187.052 44.4338 187.056 44.3987 187.054C44.3636 187.052 44.3293 187.043 44.2977 187.027C44.2661 187.012 44.2379 186.991 44.2146 186.964L38.3892 180.374C38.1568 180.111 37.8534 179.92 37.5154 179.826C37.1775 179.731 36.8193 179.736 36.484 179.84C36.1486 179.943 35.8505 180.142 35.6253 180.411C35.4001 180.68 35.2575 181.008 35.2146 181.356L30.1179 222.692C30.11 222.756 30.0786 222.816 30.0298 222.859C29.9809 222.902 29.9179 222.926 29.8526 222.926Z" fill="#494949"/>
<path d="M50.5905 190.272C52.623 186.602 50.2316 181.395 45.2491 178.642C40.2667 175.889 34.5799 176.632 32.5474 180.303C30.5149 183.973 32.9063 189.181 37.8888 191.934C42.8712 194.687 48.558 193.943 50.5905 190.272Z" fill="#0CBC8B"/>
<path opacity="0.2" d="M50.8133 214.599C54.1058 211.996 53.9101 206.27 50.3763 201.811C46.8424 197.351 41.3085 195.846 38.016 198.449C34.7234 201.053 34.9191 206.778 38.453 211.238C41.9869 215.698 47.5208 217.203 50.8133 214.599Z" fill="white"/>
<path opacity="0.5" d="M24.7465 198.225C25.7168 192.621 23.149 187.498 19.0113 186.783C14.8736 186.068 10.7327 190.032 9.76251 195.637C8.79227 201.241 11.36 206.364 15.4978 207.079C19.6355 207.794 23.7763 203.83 24.7465 198.225Z" fill="white"/>
<path opacity="0.5" d="M50.5905 190.272C52.623 186.602 50.2316 181.395 45.2491 178.642C40.2667 175.889 34.5799 176.632 32.5474 180.303C30.5149 183.973 32.9063 189.181 37.8888 191.934C42.8712 194.687 48.558 193.943 50.5905 190.272Z" fill="white"/>
<path d="M36.3711 258H23.3334L21.1727 216.331H38.5315L36.3711 258Z" fill="#292A2E"/>
<path opacity="0.3" d="M36.3711 258H23.3334L21.1727 216.331H38.5315L36.3711 258Z" fill="white"/>
<path d="M50.8142 214.733C50.794 214.733 50.7741 214.729 50.7559 214.72C50.7377 214.711 50.7218 214.698 50.7092 214.682L37.9114 198.532C37.9005 198.519 37.8924 198.503 37.8876 198.486C37.8827 198.469 37.8813 198.451 37.8833 198.434C37.8854 198.416 37.8908 198.4 37.8994 198.384C37.9079 198.369 37.9194 198.355 37.9332 198.344C37.947 198.334 37.9628 198.325 37.9797 198.321C37.9966 198.316 38.0143 198.314 38.0318 198.316C38.0492 198.318 38.0661 198.324 38.0815 198.332C38.0968 198.341 38.1104 198.352 38.1213 198.366L50.9191 214.516C50.9348 214.536 50.9446 214.56 50.9474 214.585C50.9501 214.61 50.9458 214.635 50.9348 214.658C50.9239 214.68 50.9067 214.699 50.8854 214.713C50.8641 214.726 50.8394 214.733 50.8142 214.733Z" fill="white"/>
<path d="M49.7397 191.567C49.7112 191.566 49.6836 191.557 49.6608 191.54L33.2843 179.595C33.2556 179.574 33.2364 179.543 33.231 179.508C33.2255 179.473 33.2342 179.437 33.2551 179.408C33.2761 179.38 33.3076 179.36 33.3427 179.355C33.3778 179.35 33.4136 179.358 33.4423 179.379L49.8187 191.324C49.8412 191.341 49.8578 191.364 49.8662 191.391C49.8746 191.418 49.8743 191.447 49.8654 191.473C49.8565 191.5 49.8395 191.523 49.8167 191.54C49.7939 191.556 49.7665 191.565 49.7384 191.565L49.7397 191.567Z" fill="white"/>
<path d="M14.8327 206.904C14.821 206.904 14.8094 206.903 14.7981 206.9C14.7641 206.89 14.7351 206.868 14.7175 206.837C14.6999 206.807 14.6951 206.771 14.7042 206.737L19.9173 187.225C19.9216 187.208 19.9292 187.192 19.9399 187.178C19.9505 187.163 19.9639 187.151 19.9792 187.142C19.9945 187.133 20.0114 187.127 20.029 187.125C20.0466 187.123 20.0645 187.124 20.0817 187.128C20.0989 187.133 20.115 187.141 20.129 187.152C20.1431 187.163 20.1548 187.176 20.1636 187.192C20.1724 187.207 20.178 187.224 20.1801 187.242C20.1822 187.259 20.1808 187.277 20.1759 187.294L14.9628 206.805C14.9551 206.834 14.9382 206.859 14.9147 206.877C14.8911 206.895 14.8623 206.904 14.8327 206.904Z" fill="white"/>
<path d="M198.704 14.7195H44.8384C40.4024 14.7195 36.8063 18.3117 36.8063 22.7429V192.298C36.8063 196.729 40.4024 200.321 44.8384 200.321H198.704C203.14 200.321 206.736 196.729 206.736 192.298V22.7429C206.736 18.3117 203.14 14.7195 198.704 14.7195Z" fill="white"/>
<path d="M198.552 200.362H44.6854C42.4849 200.359 40.3753 199.485 38.8193 197.931C37.2633 196.376 36.388 194.269 36.3855 192.071V22.5161C36.388 20.318 37.2633 18.2107 38.8193 16.6564C40.3753 15.1021 42.4849 14.2278 44.6854 14.2253H198.552C200.752 14.2277 202.862 15.102 204.418 16.6563C205.974 18.2106 206.849 20.318 206.852 22.5161V192.071C206.849 194.269 205.974 196.376 204.418 197.931C202.862 199.485 200.752 200.359 198.552 200.362ZM44.6854 14.7601C42.6269 14.7626 40.6534 15.5805 39.1978 17.0345C37.7422 18.4885 36.9234 20.4598 36.921 22.5161V192.071C36.9233 194.127 37.7421 196.099 39.1977 197.553C40.6533 199.007 42.6268 199.824 44.6854 199.827H198.552C200.61 199.824 202.584 199.007 204.04 197.553C205.495 196.099 206.314 194.127 206.316 192.071V22.5161C206.314 20.4598 205.495 18.4885 204.039 17.0345C202.584 15.5805 200.61 14.7626 198.552 14.7601H44.6854Z" fill="#292A2E"/>
<path d="M206.584 22.515V28.7166H36.6552V22.515C36.6552 20.3871 37.5014 18.3463 39.0077 16.8416C40.514 15.3369 42.557 14.4916 44.6873 14.4916H198.552C200.682 14.4916 202.725 15.3369 204.231 16.8416C205.738 18.3463 206.584 20.3871 206.584 22.515Z" fill="#292A2E"/>
<path opacity="0.1" d="M64.9881 77.9712C75.8335 77.9712 84.6253 69.1889 84.6253 58.3553C84.6253 47.5218 75.8335 38.7394 64.9881 38.7394C54.1428 38.7394 45.351 47.5218 45.351 58.3553C45.351 69.1889 54.1428 77.9712 64.9881 77.9712Z" fill="#367CFF"/>
<path opacity="0.2" d="M64.9881 57.5113C68.755 57.5113 71.8087 54.4609 71.8087 50.6981C71.8087 46.9352 68.755 43.8848 64.9881 43.8848C61.2212 43.8848 58.1675 46.9352 58.1675 50.6981C58.1675 54.4609 61.2212 57.5113 64.9881 57.5113Z" fill="#367CFF"/>
<path opacity="0.2" d="M79.7509 71.2904C77.9079 73.3895 75.6374 75.0714 73.0914 76.2235C70.5454 77.3757 67.7824 77.9716 64.9873 77.9713C62.1922 77.9711 59.4293 77.3747 56.8835 76.2221C54.3377 75.0695 52.0675 73.3872 50.2249 71.2877C51.1688 68.1081 53.1163 65.3184 55.7769 63.3346C58.4375 61.3509 61.6688 60.2792 64.9889 60.2795C68.309 60.2798 71.54 61.352 74.2003 63.3363C76.8606 65.3206 78.8076 68.1106 79.7509 71.2904Z" fill="#367CFF"/>
<path opacity="0.2" d="M74.2633 91.353H47.6464C46.6859 91.353 45.9072 92.1308 45.9072 93.0903C45.9072 94.0498 46.6859 94.8276 47.6464 94.8276H74.2633C75.2238 94.8276 76.0025 94.0498 76.0025 93.0903C76.0025 92.1308 75.2238 91.353 74.2633 91.353Z" fill="#367CFF"/>
<path opacity="0.1" d="M137.508 40.0569H95.6714C94.1092 40.0569 92.8428 41.3219 92.8428 42.8825V48.743C92.8428 50.3036 94.1092 51.5686 95.6714 51.5686H137.508C139.071 51.5686 140.337 50.3036 140.337 48.743V42.8825C140.337 41.3219 139.071 40.0569 137.508 40.0569Z" fill="#367CFF"/>
<path opacity="0.2" d="M156.89 57.9328H94.1815C93.4421 57.9328 92.8428 58.5315 92.8428 59.27C92.8428 60.0085 93.4421 60.6072 94.1815 60.6072H156.89C157.629 60.6072 158.228 60.0085 158.228 59.27C158.228 58.5315 157.629 57.9328 156.89 57.9328Z" fill="#367CFF"/>
<path opacity="0.2" d="M156.89 65.9562H94.1815C93.4421 65.9562 92.8428 66.5549 92.8428 67.2934C92.8428 68.0319 93.4421 68.6306 94.1815 68.6306H156.89C157.629 68.6306 158.228 68.0319 158.228 67.2934C158.228 66.5549 157.629 65.9562 156.89 65.9562Z" fill="#367CFF"/>
<path opacity="0.2" d="M146.18 73.9796H94.1815C93.4421 73.9796 92.8428 74.5783 92.8428 75.3168C92.8428 76.0554 93.4421 76.6541 94.1815 76.6541H146.18C146.919 76.6541 147.519 76.0554 147.519 75.3168C147.519 74.5783 146.919 73.9796 146.18 73.9796Z" fill="#367CFF"/>
<path opacity="0.1" d="M113.791 99.8396H48.4215C47.0329 99.8396 45.9072 100.964 45.9072 102.351V108.556C45.9072 109.944 47.0329 111.068 48.4215 111.068H113.791C115.18 111.068 116.306 109.944 116.306 108.556V102.351C116.306 100.964 115.18 99.8396 113.791 99.8396Z" fill="#367CFF"/>
<path opacity="0.2" d="M154.412 91.353H127.795C126.835 91.353 126.056 92.1308 126.056 93.0903C126.056 94.0498 126.835 94.8276 127.795 94.8276H154.412C155.373 94.8276 156.152 94.0498 156.152 93.0903C156.152 92.1308 155.373 91.353 154.412 91.353Z" fill="#367CFF"/>
<path opacity="0.1" d="M193.94 99.8396H128.571C127.182 99.8396 126.056 100.964 126.056 102.351V108.556C126.056 109.944 127.182 111.068 128.571 111.068H193.94C195.329 111.068 196.455 109.944 196.455 108.556V102.351C196.455 100.964 195.329 99.8396 193.94 99.8396Z" fill="#367CFF"/>
<path opacity="0.2" d="M74.2633 120.351H47.6464C46.6859 120.351 45.9072 121.129 45.9072 122.089C45.9072 123.048 46.6859 123.826 47.6464 123.826H74.2633C75.2238 123.826 76.0025 123.048 76.0025 122.089C76.0025 121.129 75.2238 120.351 74.2633 120.351Z" fill="#367CFF"/>
<path opacity="0.1" d="M113.791 128.838H48.4215C47.0329 128.838 45.9072 129.962 45.9072 131.349V137.555C45.9072 138.942 47.0329 140.066 48.4215 140.066H113.791C115.18 140.066 116.306 138.942 116.306 137.555V131.349C116.306 129.962 115.18 128.838 113.791 128.838Z" fill="#367CFF"/>
<path opacity="0.2" d="M154.412 120.351H127.795C126.835 120.351 126.056 121.129 126.056 122.089C126.056 123.048 126.835 123.826 127.795 123.826H154.412C155.373 123.826 156.152 123.048 156.152 122.089C156.152 121.129 155.373 120.351 154.412 120.351Z" fill="#367CFF"/>
<path opacity="0.1" d="M193.94 128.838H128.571C127.182 128.838 126.056 129.962 126.056 131.349V137.555C126.056 138.942 127.182 140.066 128.571 140.066H193.94C195.329 140.066 196.455 138.942 196.455 137.555V131.349C196.455 129.962 195.329 128.838 193.94 128.838Z" fill="#367CFF"/>
<path opacity="0.2" d="M74.2633 149.349H47.6464C46.6859 149.349 45.9072 150.127 45.9072 151.087C45.9072 152.046 46.6859 152.824 47.6464 152.824H74.2633C75.2238 152.824 76.0025 152.046 76.0025 151.087C76.0025 150.127 75.2238 149.349 74.2633 149.349Z" fill="#367CFF"/>
<path opacity="0.1" d="M113.791 157.836H48.4215C47.0329 157.836 45.9072 158.96 45.9072 160.348V166.553C45.9072 167.94 47.0329 169.064 48.4215 169.064H113.791C115.18 169.064 116.306 167.94 116.306 166.553V160.348C116.306 158.96 115.18 157.836 113.791 157.836Z" fill="#367CFF"/>
<path opacity="0.2" d="M154.412 149.349H127.795C126.835 149.349 126.056 150.127 126.056 151.087C126.056 152.046 126.835 152.824 127.795 152.824H154.412C155.373 152.824 156.152 152.046 156.152 151.087C156.152 150.127 155.373 149.349 154.412 149.349Z" fill="#367CFF"/>
<path opacity="0.1" d="M193.94 157.836H128.571C127.182 157.836 126.056 158.96 126.056 160.348V166.553C126.056 167.94 127.182 169.064 128.571 169.064H193.94C195.329 169.064 196.455 167.94 196.455 166.553V160.348C196.455 158.96 195.329 157.836 193.94 157.836Z" fill="#367CFF"/>
<path opacity="0.2" d="M142.049 177.813H101.189C99.5402 177.813 98.2036 179.148 98.2036 180.795V186.3C98.2036 187.947 99.5402 189.282 101.189 189.282H142.049C143.698 189.282 145.034 187.947 145.034 186.3V180.795C145.034 179.148 143.698 177.813 142.049 177.813Z" fill="#367CFF"/>
<path d="M128.747 47.95L133.074 53.0545L132.806 52.1781C132.725 51.8935 132.755 51.5888 132.891 51.3257C133.026 51.0625 133.257 50.8606 133.535 50.7606C133.681 50.7141 133.835 50.6976 133.987 50.7123C134.139 50.7269 134.287 50.7724 134.421 50.846C134.555 50.9195 134.672 51.0196 134.767 51.1401C134.861 51.2605 134.929 51.3989 134.968 51.5467L136.946 58.9868C137.196 59.926 137.068 60.9254 136.59 61.772C136.113 62.6185 135.323 63.2451 134.389 63.5181C133.305 63.8351 132.151 63.8214 131.075 63.479C129.999 63.1365 129.05 62.4808 128.349 61.596L125.182 57.5813C125.013 57.376 124.921 57.1187 124.921 56.8531C124.92 56.5874 125.011 56.3298 125.179 56.1238C125.335 55.9407 125.545 55.812 125.779 55.7567C126.012 55.7014 126.258 55.7222 126.479 55.8162C126.484 55.7985 126.493 55.7824 126.506 55.7697C126.519 55.7584 126.534 55.7504 126.551 55.7466C126.568 55.7428 126.585 55.7432 126.602 55.7477L126.015 55.0069C125.836 54.7898 125.741 54.515 125.748 54.2333C125.755 53.9516 125.864 53.6821 126.055 53.4744C126.25 53.2751 126.512 53.1554 126.791 53.1385C127.07 53.1216 127.345 53.2087 127.563 53.383C127.564 53.3712 127.568 53.3597 127.574 53.3493L127.333 53.0454C127.175 52.8373 127.089 52.5842 127.087 52.3235C127.085 52.0628 127.167 51.8083 127.321 51.5977C127.509 51.3711 127.779 51.2271 128.072 51.1966C128.365 51.166 128.659 51.2514 128.89 51.4343L128.905 51.4191L127.087 49.2744C126.994 49.1645 126.924 49.0366 126.882 48.8988C126.839 48.761 126.826 48.616 126.842 48.4728C126.857 48.3295 126.902 48.191 126.973 48.0656C127.045 47.9402 127.141 47.8307 127.256 47.7436C127.484 47.5827 127.765 47.5145 128.042 47.5529C128.319 47.5912 128.571 47.7332 128.747 47.95Z" fill="#E98862"/>
<path opacity="0.2" d="M128.845 51.5547C128.85 51.5662 128.856 51.5769 128.864 51.5862L130.656 53.6499C130.665 53.6604 130.676 53.669 130.688 53.6753C130.701 53.6816 130.714 53.6853 130.728 53.6864C130.742 53.6874 130.756 53.6857 130.769 53.6813C130.783 53.677 130.795 53.67 130.805 53.661C130.816 53.6519 130.825 53.6408 130.831 53.6284C130.837 53.616 130.841 53.6025 130.842 53.5886C130.843 53.5747 130.841 53.5608 130.837 53.5476C130.833 53.5344 130.826 53.5221 130.816 53.5116L129.027 51.4488C129.01 51.4315 128.988 51.4204 128.964 51.4173C128.94 51.4142 128.916 51.4192 128.895 51.4316C128.874 51.444 128.858 51.4629 128.85 51.4855C128.841 51.508 128.84 51.5328 128.848 51.5558L128.845 51.5547Z" fill="#0C0C0C"/>
<path opacity="0.2" d="M127.566 53.4324C127.57 53.4436 127.576 53.454 127.584 53.4632L128.978 55.0946C128.997 55.1141 129.022 55.1258 129.049 55.1272C129.076 55.1285 129.103 55.1195 129.123 55.102C129.144 55.0845 129.157 55.0598 129.16 55.0329C129.163 55.0061 129.155 54.9792 129.139 54.9577L127.744 53.3263C127.728 53.3071 127.706 53.2944 127.681 53.2903C127.656 53.2862 127.631 53.291 127.609 53.3038C127.588 53.3167 127.572 53.3367 127.564 53.3604C127.556 53.3841 127.556 53.4099 127.565 53.4332L127.566 53.4324Z" fill="#0C0C0C"/>
<path opacity="0.2" d="M126.477 55.8871C126.482 55.8992 126.489 55.9103 126.497 55.92L127.175 56.6752C127.184 56.6856 127.196 56.694 127.208 56.7C127.221 56.706 127.234 56.7095 127.248 56.7102C127.262 56.711 127.276 56.709 127.289 56.7045C127.302 56.6999 127.314 56.6928 127.324 56.6835C127.335 56.6743 127.343 56.6631 127.349 56.6506C127.355 56.6381 127.359 56.6246 127.359 56.6108C127.36 56.5969 127.358 56.5831 127.354 56.57C127.349 56.5569 127.342 56.5449 127.333 56.5346L126.656 55.779C126.64 55.7611 126.617 55.7493 126.593 55.7459C126.569 55.7424 126.544 55.7474 126.524 55.76C126.503 55.7726 126.487 55.792 126.479 55.815C126.47 55.8379 126.47 55.863 126.479 55.886L126.477 55.8871Z" fill="#0C0C0C"/>
<path d="M181.155 99.1474L143.381 96.5066C142.018 96.4114 140.71 95.9324 139.609 95.125C138.507 94.3177 137.657 93.2151 137.158 91.9451L125.214 61.596L138.67 56.3123L148.942 82.4181L182.163 84.7406L181.155 99.1474Z" fill="#367CFF"/>
<path d="M203.088 245.839C203.088 245.839 201.879 252.097 196.012 252.448C190.145 252.798 191.417 257.465 191.417 257.465H213.837V246.276L203.088 245.839Z" fill="#367CFF"/>
<path d="M210.003 131.658C210.003 131.658 209.933 129.776 209.948 134.045C210.003 149.966 210.28 168.151 210.955 178.792C212.042 195.899 214.827 249.834 214.827 249.834L200.094 249.71L185.815 131.011L210.003 131.658Z" fill="#262626"/>
<path d="M176.86 245.839C176.86 245.839 175.651 252.097 169.784 252.448C163.917 252.798 165.19 257.465 165.19 257.465H187.61V246.276L176.86 245.839Z" fill="#367CFF"/>
<path d="M169.727 132.894C169.727 132.894 168.422 187.308 168.613 189.968L174.092 249.421L188.581 249.689L187.169 187.816C187.169 187.816 188.165 170.749 192.293 154.901C194.405 146.767 195.676 138.438 196.086 130.045L169.727 132.894Z" fill="#262626"/>
<path d="M210.163 131.656L210.212 131.659C210.212 131.659 210.177 130.731 210.163 131.656Z" fill="#333333"/>
<path d="M167.653 102.691C167.957 106.257 169.434 128.502 169.727 132.894H209.986C210.214 128.933 211.235 111.612 212.097 103.866C212.921 96.4743 214.536 92.7734 213.352 90.5883C211.417 87.0168 206.131 84.9529 202.526 84.4654C200.324 84.1677 197.014 83.9543 197.014 83.9543C197.014 83.9543 196.734 89.6191 190.049 89.9344C180.95 90.3623 181.558 83.9543 181.513 83.9543C180.039 83.9543 171.455 84.6467 169.557 86.1062C166.238 88.6587 167.008 95.1349 167.653 102.691Z" fill="#367CFF"/>
<path d="M167.097 98.2231C167.063 98.2232 167.03 98.2102 167.005 98.1867C166.98 98.1633 166.965 98.1312 166.963 98.0971L166.64 92.435C166.638 92.3996 166.65 92.3649 166.673 92.3384C166.697 92.3119 166.73 92.2959 166.765 92.2938C166.801 92.2922 166.835 92.3045 166.862 92.328C166.888 92.3516 166.904 92.3845 166.907 92.4198L167.232 98.0816C167.234 98.117 167.222 98.1518 167.198 98.1783C167.174 98.2047 167.141 98.2208 167.106 98.2228L167.097 98.2231Z" fill="#0C0C0C"/>
<path d="M218.691 132.661C219.875 132.661 221.042 132.375 222.091 131.828C223.141 131.28 224.043 130.488 224.72 129.517C225.397 128.547 225.83 127.427 225.98 126.254C226.131 125.081 225.996 123.889 225.587 122.779C225.171 121.652 215.42 95.8586 213.563 91.0796L199.818 96.6425C200.862 99.3298 204.643 109.515 207.682 117.72L202.634 117.172L201.045 131.771L217.896 132.618C218.16 132.647 218.425 132.661 218.691 132.661Z" fill="#367CFF"/>
<path d="M176.717 83.466C176.762 83.4601 177.997 88.1024 187.634 87.38C194.306 86.8807 195.934 82.344 196.086 82.344C195.367 82.1913 194.199 82.0327 193.879 81.8626C192.829 81.2988 192.063 80.6123 191.678 79.1392C191.377 77.987 191.223 73.552 191.223 71.3268L180.956 73.6314C181.099 76.1416 182.101 81.9605 178.59 82.9904C178.006 83.1605 177.377 83.3173 176.717 83.466Z" fill="#E98862"/>
<path d="M181.312 78.5661C185.359 78.8851 190.558 77.178 191.546 71.7839L192.437 66.9163C193.425 61.5222 191.389 56.6311 186.306 55.7023C181.222 54.7734 176.621 58.4519 175.633 63.846L175.238 66.0009C174.859 68.0709 174.09 77.9969 181.312 78.5661Z" fill="#E98862"/>
<path d="M177.559 73.6135C178.285 69.9671 178.618 67.5341 178.58 64.9674C177.556 63.1755 177.825 61.1162 178.058 60.2272C177.353 60.6744 176.525 60.8867 175.692 60.8335C175.692 60.8335 177.384 54.0489 183.135 52.2233C184.192 51.812 186.893 51.2926 190.479 51.7839C193.529 52.2017 201.047 54.4798 202.121 62.9346V62.9394C202.157 63.2197 202.878 71.0096 204.316 74.7472C206.251 79.7717 208.967 81.3328 208.898 87.13C208.81 94.5867 195.086 95.5792 186.81 95.0215C178.534 94.4639 173.912 91.7448 173.851 86.371C173.788 80.3499 176.105 80.9092 177.559 73.6135Z" fill="#0A0A0A"/>
<path d="M210.847 104.016L209.858 132.891L210.125 132.9L211.115 104.025L210.847 104.016Z" fill="#0C0C0C"/>
<path d="M16.1943 258H253.172C253.199 258.001 253.225 257.997 253.25 257.987C253.275 257.978 253.298 257.963 253.317 257.945C253.336 257.927 253.351 257.904 253.361 257.88C253.372 257.856 253.377 257.829 253.377 257.803C253.377 257.776 253.372 257.75 253.361 257.726C253.351 257.702 253.336 257.679 253.317 257.661C253.298 257.643 253.275 257.628 253.25 257.619C253.225 257.609 253.199 257.605 253.172 257.606H16.1943C16.1678 257.605 16.1414 257.609 16.1166 257.619C16.0918 257.628 16.0692 257.643 16.0501 257.661C16.031 257.679 16.0158 257.702 16.0055 257.726C15.9951 257.75 15.9897 257.776 15.9897 257.803C15.9897 257.829 15.9951 257.856 16.0055 257.88C16.0158 257.904 16.031 257.927 16.0501 257.945C16.0692 257.963 16.0918 257.978 16.1166 257.987C16.1414 257.997 16.1678 258.001 16.1943 258Z" fill="#292A2E"/>
<path d="M193.366 150.432C193.366 150.432 192.756 161.986 192.643 164.698C192.382 170.971 192.291 177.466 192.291 184.83L189.969 165.526C189.969 165.526 191.667 159.476 193.366 150.432Z" fill="#0A0A0A"/>
</g>
<defs>
<clipPath id="clip0">
<rect width="268" height="258" fill="white"/>
</clipPath>
</defs>
</svg>
