<svg width="305" height="240" viewBox="0 0 305 240" fill="none" xmlns="http://www.w3.org/2000/svg">
<g clip-path="url(#clip0)">
<path opacity="0.08" d="M70.5824 223.774C127.832 261.774 210.328 227.074 261.294 180.971C310.21 136.723 333.997 21.8235 245.718 3.01566C208.961 -4.81539 192.245 3.35157 165.174 18.904C143.32 31.4601 113.291 25.5168 91.5732 14.2619C60.8641 -1.65218 23.018 21.4946 6.81523 56.4007C-13.0344 99.1775 11.1332 184.313 70.5824 223.774Z" fill="white"/>
<path opacity="0.1" d="M70.5824 223.774C127.832 261.774 210.328 227.074 261.294 180.971C310.21 136.723 333.997 21.8235 245.718 3.01566C208.961 -4.81539 192.245 3.35157 165.174 18.904C143.32 31.4601 113.291 25.5168 91.5732 14.2619C60.8641 -1.65218 23.018 21.4946 6.81523 56.4007C-13.0344 99.1775 11.1332 184.313 70.5824 223.774Z" fill="#367CFF"/>
<path d="M80.7921 37.0435C80.7921 37.0435 79.5413 55.8315 75.3195 62.6455C63.1638 82.2686 59.6422 104.343 71.8148 115.877C83.9874 127.411 161.628 127.571 167.51 101.043C172.462 78.7106 161.836 76.309 159.25 57.8873C158.08 49.5512 154.861 32.0713 154.861 32.0713" fill="#0A0A0A"/>
<path d="M147.414 97.1592C147.28 97.1417 145.792 121.846 117.124 119.692C97.2774 118.204 90.201 97.1224 89.7466 97.1224C91.8863 96.6669 95.4895 96.005 96.4396 95.4977C99.5651 93.8163 103.43 92.0673 104.439 85.9917C105.022 82.4926 104.032 64.5758 104.338 61.0312L134.805 67.8388C134.379 75.3211 131.4 92.668 141.842 95.7379C143.577 96.2459 145.449 96.7124 147.414 97.1592Z" fill="#E98862"/>
<path opacity="0.5" d="M135.23 88.6487C134.752 87.1092 134.445 85.522 134.313 83.9155C133.979 80.2494 134.045 76.5577 134.512 72.9061C128.321 72.0694 122.489 69.511 117.678 65.5218C117.112 67.6131 114 76.7516 114.862 78.7391C116.488 82.496 124.139 88.6487 135.23 88.6487Z" fill="#0C0C0C"/>
<path d="M131.29 80.9518C119.279 82.1182 103.739 77.3057 100.519 61.2937L97.6147 46.8458C94.3955 30.8338 100.187 16.1602 115.246 13.1258C130.307 10.0932 144.173 20.8041 147.392 36.8161L148.679 43.2143C149.914 49.3564 152.72 78.8762 131.29 80.9518Z" fill="#E98862"/>
<path d="M139.833 61.8028C135.931 63.7889 131.479 64.417 127.18 63.5879C127.031 63.5598 126.877 63.5747 126.736 63.6309C126.596 63.687 126.474 63.7821 126.385 63.905C126.297 64.0279 126.245 64.1735 126.236 64.3249C126.227 64.4762 126.261 64.627 126.334 64.7595C127.616 67.0206 130.656 70.883 135.871 69.3084C139.238 68.2913 140.511 64.8231 140.983 62.6781C141.015 62.5298 141.004 62.3754 140.952 62.2329C140.899 62.0905 140.807 61.9661 140.687 61.8742C140.566 61.7822 140.422 61.7267 140.27 61.7141C140.119 61.7014 139.968 61.7322 139.833 61.8028Z" fill="white"/>
<path d="M140.078 44.4279C141.119 44.4279 141.963 43.5827 141.963 42.5401C141.963 41.4975 141.119 40.6523 140.078 40.6523C139.036 40.6523 138.192 41.4975 138.192 42.5401C138.192 43.5827 139.036 44.4279 140.078 44.4279Z" fill="#0C0C0C"/>
<path d="M121.958 47.6039C122.999 47.6039 123.843 46.7587 123.843 45.7161C123.843 44.6735 122.999 43.8283 121.958 43.8283C120.916 43.8283 120.072 44.6735 120.072 45.7161C120.072 46.7587 120.916 47.6039 121.958 47.6039Z" fill="#0C0C0C"/>
<path opacity="0.1" d="M123.656 59.9697C125.632 59.7336 127.095 58.3657 126.922 56.9144C126.749 55.463 125.006 54.4779 123.029 54.714C121.053 54.9501 119.591 56.318 119.764 57.7693C119.937 59.2207 121.679 60.2058 123.656 59.9697Z" fill="#0C0C0C"/>
<path opacity="0.1" d="M144.541 54.1671C144.716 55.6163 146.461 56.6002 148.437 56.3669C148.779 56.3259 149.115 56.2494 149.441 56.1389C149.533 54.4109 149.538 52.7482 149.488 51.2092C148.939 51.0719 148.37 51.0385 147.808 51.1106C145.832 51.3445 144.37 52.7115 144.541 54.1671Z" fill="#0C0C0C"/>
<path opacity="0.5" d="M135.807 58.6466L135.837 58.6419C136.447 58.5146 137.05 58.3536 137.642 58.1596C138.527 57.8633 139.681 57.377 139.523 56.5763C139.34 55.6636 134.862 46.3226 134.354 45.2624C134.333 45.215 134.303 45.1724 134.265 45.137C134.227 45.1017 134.182 45.0743 134.134 45.0564C134.085 45.0386 134.033 45.0307 133.982 45.0332C133.93 45.0358 133.879 45.0487 133.832 45.0711C133.786 45.0936 133.744 45.1253 133.71 45.1642C133.675 45.2031 133.649 45.2485 133.633 45.2976C133.616 45.3468 133.61 45.3988 133.614 45.4506C133.617 45.5023 133.632 45.5528 133.655 45.5989C135.564 49.5768 138.639 56.1167 138.763 56.7314C138.666 57.0177 137.199 57.577 135.685 57.8826C135.584 57.899 135.493 57.955 135.433 58.0384C135.373 58.1218 135.348 58.2257 135.364 58.3273C135.381 58.4288 135.437 58.5197 135.52 58.5799C135.603 58.6401 135.707 58.6647 135.809 58.6483L135.807 58.6466Z" fill="#0C0C0C"/>
<path d="M85.5982 52.0321L99.0996 49.392C109.299 45.1224 112.192 27.3288 112.192 27.3288C112.192 27.3288 124.779 39.3285 154.861 32.0719C154.861 32.0719 148.327 -9.96726 103.908 2.79581C89.5852 6.9102 79.4399 21.5243 80.9488 40.8821C82.0061 54.4453 85.5982 52.0321 85.5982 52.0321Z" fill="#0A0A0A"/>
<path d="M102.435 65.9837C97.8587 66.9057 93.1633 62.7516 92.2405 58.1689C91.3177 53.5862 94.5218 50.3128 99.0984 49.3908L102.074 51.9854L106.369 65.1894L102.435 65.9837Z" fill="#E98862"/>
<path d="M137.601 37.8128C138.746 37.002 140.085 36.5096 141.482 36.3857C142.183 36.3189 142.89 36.3582 143.579 36.5023C144.275 36.6445 144.951 36.8736 145.59 37.1841L145.61 37.1934C145.681 37.2269 145.762 37.2307 145.836 37.2039C145.91 37.1772 145.971 37.1221 146.004 37.0508C146.038 36.9795 146.042 36.8978 146.015 36.8237C145.988 36.7496 145.933 36.6892 145.862 36.6557C145.185 36.298 144.465 36.027 143.72 35.8492C142.97 35.6666 142.197 35.598 141.427 35.6456C139.866 35.7315 138.357 36.235 137.058 37.1036C137.009 37.1365 136.968 37.1787 136.936 37.2276C136.904 37.2766 136.882 37.3314 136.871 37.3889C136.86 37.4464 136.86 37.5055 136.872 37.5628C136.884 37.6201 136.907 37.6745 136.94 37.7229C136.973 37.7713 137.015 37.8128 137.064 37.8449C137.113 37.877 137.167 37.8992 137.225 37.9101C137.282 37.9211 137.341 37.9206 137.399 37.9087C137.456 37.8968 137.51 37.8737 137.559 37.8408L137.569 37.8332L137.601 37.8128Z" fill="#0C0C0C"/>
<path d="M125.265 39.5192C123.732 39.2144 122.145 39.3268 120.67 39.8446C119.941 40.096 119.254 40.4556 118.631 40.9112C118.011 41.361 117.45 41.8871 116.962 42.4771C116.91 42.5355 116.883 42.6118 116.888 42.6897C116.892 42.7676 116.926 42.8407 116.984 42.8932C117.041 42.9458 117.117 42.9735 117.195 42.9705C117.273 42.9675 117.346 42.934 117.4 42.8772L117.415 42.8608C117.887 42.3292 118.423 41.859 119.012 41.4612C119.594 41.0635 120.233 40.7562 120.907 40.5497C122.245 40.1294 123.671 40.0713 125.039 40.3811L125.073 40.3893C125.187 40.4171 125.308 40.3982 125.409 40.3367C125.51 40.2752 125.582 40.1761 125.61 40.0612C125.638 39.9464 125.619 39.8252 125.557 39.7243C125.496 39.6234 125.397 39.5511 125.282 39.5233L125.265 39.5192Z" fill="#0C0C0C"/>
<path d="M99.1089 49.1703C108.185 45.7879 111.196 39.5139 112.124 34.8449C112.724 31.7311 112.668 28.526 111.959 25.4352L111.678 25.5122C112.377 28.5629 112.431 31.726 111.837 34.7988C110.921 39.3914 107.952 45.5651 99.007 48.8974L99.1089 49.1703Z" fill="#0C0C0C"/>
<path d="M183.157 112.401L220.275 211.2L189.469 202.477L259.531 150.165L284.492 184.332L213.46 235.316C210.993 237.083 208.166 238.28 205.181 238.82C202.197 239.359 199.13 239.229 196.202 238.439C193.273 237.648 190.557 236.217 188.249 234.247C185.94 232.278 184.097 229.821 182.853 227.052L182.654 226.592L140.016 130.051L183.157 112.401Z" fill="#367CFF"/>
<path d="M116.589 113.514C96.7287 112.576 95.8927 95.7006 95.8927 95.7006C95.8927 95.7006 86.0521 96.3374 79.5105 97.2233C68.8007 98.6743 61.7354 102.31 56.1125 107.938C50.8822 113.174 47.698 118.839 51.0675 155.008C53.5073 181.197 51.7899 238.8 51.7899 238.8H171.652C171.652 238.8 178.84 163.297 179.842 151.509C181.753 129.004 189.584 116.319 178.639 104.727C170.702 96.3194 150.21 95.7006 141.962 95.7024C141.828 95.7012 143.636 114.79 116.589 113.514Z" fill="#367CFF"/>
<path d="M231.811 117.272C224.361 104.675 207.5 103.162 194.917 110.624L194.119 111.119L193.585 110.257C185.883 97.8123 170.183 91.3214 157.752 99.0312C151.782 102.734 147.527 108.658 145.921 115.502C144.315 122.346 145.49 129.548 149.188 135.524L174.773 175.983C175.602 177.296 176.915 178.229 178.426 178.581C179.937 178.934 181.526 178.677 182.85 177.867L223.454 153.006C229.184 149.28 233.253 143.481 234.81 136.821C236.367 130.162 235.293 123.157 231.811 117.272Z" fill="#367CFF"/>
<path opacity="0.6" d="M231.811 117.272C224.361 104.675 207.5 103.162 194.917 110.624L194.119 111.119L193.585 110.257C185.883 97.8123 170.183 91.3214 157.752 99.0312C151.782 102.734 147.527 108.658 145.921 115.502C144.315 122.346 145.49 129.548 149.188 135.524L174.773 175.983C175.602 177.296 176.915 178.229 178.426 178.581C179.937 178.934 181.526 178.677 182.85 177.867L223.454 153.006C229.184 149.28 233.253 143.481 234.81 136.821C236.367 130.162 235.293 123.157 231.811 117.272Z" fill="white"/>
<path d="M188.915 143.324C175.705 135.353 159.29 142.387 151.328 155.611L150.834 156.471L149.907 155.937C136.54 148.233 118.716 150.062 111.021 163.444C107.325 169.87 106.331 177.503 108.257 184.663C110.182 191.823 114.87 197.924 121.289 201.623L165.257 226.397C166.683 227.201 168.368 227.411 169.948 226.982C171.527 226.552 172.875 225.518 173.699 224.103L198.994 180.693C202.455 174.366 203.338 166.944 201.459 159.98C199.581 153.016 195.086 147.048 188.915 143.324Z" fill="#367CFF"/>
<path opacity="0.5" d="M188.915 143.324C175.705 135.353 159.29 142.387 151.328 155.611L150.834 156.471L149.907 155.937C136.54 148.233 118.716 150.062 111.021 163.444C107.325 169.87 106.331 177.503 108.257 184.663C110.182 191.823 114.87 197.924 121.289 201.623L165.257 226.397C166.683 227.201 168.368 227.411 169.948 226.982C171.527 226.552 172.875 225.518 173.699 224.103L198.994 180.693C202.455 174.366 203.338 166.944 201.459 159.98C199.581 153.016 195.086 147.048 188.915 143.324Z" fill="white"/>
<path d="M177.396 162.076C177.401 161.998 177.437 161.926 177.495 161.875C177.553 161.823 177.629 161.797 177.706 161.802C177.783 161.807 177.855 161.843 177.907 161.901C177.958 161.959 177.984 162.035 177.979 162.112L175.541 201.083C175.537 201.153 175.507 201.22 175.458 201.27C175.409 201.32 175.343 201.351 175.274 201.356C175.26 201.356 175.246 201.356 175.232 201.356C175.155 201.351 175.083 201.316 175.032 201.258C174.981 201.2 174.955 201.124 174.96 201.047" fill="#0C0C0C"/>
<path d="M268.26 158.578C268.291 158.149 268.408 157.732 268.605 157.351C268.803 156.969 269.075 156.632 269.407 156.36C269.738 156.088 270.122 155.886 270.534 155.767C270.946 155.648 271.378 155.614 271.803 155.667C272.623 155.8 273.363 156.239 273.872 156.896C274.381 157.553 274.622 158.379 274.546 159.207L274.241 163.464L280.484 151.996C281.251 150.538 283.123 149.239 284.7 150.208C286.027 150.908 288.528 150.527 289.45 152.281C289.466 152.287 294.285 169.368 293.574 170.724C290.558 176.463 280.417 180.288 273.97 179.646L263.824 178.629L268.26 158.578Z" fill="#E98862"/>
<g opacity="0.1">
<path opacity="0.1" d="M268.26 158.578C268.291 158.149 268.408 157.732 268.605 157.351C268.803 156.969 269.075 156.632 269.407 156.36C269.738 156.088 270.122 155.886 270.534 155.767C270.946 155.648 271.378 155.614 271.803 155.667C272.623 155.8 273.363 156.239 273.872 156.896C274.381 157.553 274.622 158.379 274.546 159.207L274.241 163.464L280.484 151.996C281.251 150.538 283.123 149.239 284.7 150.208C286.027 150.908 288.528 150.527 289.45 152.281C289.466 152.287 294.285 169.368 293.574 170.724C290.558 176.463 280.417 180.288 273.97 179.646L263.824 178.629L268.26 158.578Z" fill="#0C0C0C"/>
</g>
<path d="M279.371 145.595C267.72 130.841 245.99 131.816 231.251 143.481L230.319 144.249L229.49 143.243C217.548 128.721 196.438 123.163 181.933 135.121C178.485 137.965 175.629 141.46 173.53 145.408C171.43 149.357 170.129 153.68 169.698 158.132C169.268 162.584 169.718 167.077 171.023 171.355C172.327 175.633 174.46 179.611 177.301 183.064L216.829 230.177C218.112 231.705 219.943 232.667 221.928 232.855C223.913 233.043 225.892 232.443 227.439 231.183L274.867 192.534C281.521 186.803 285.706 178.719 286.545 169.971C287.385 161.223 284.814 152.49 279.371 145.595Z" fill="#0CBC8B"/>
<path d="M279.896 166.81C279.895 166.246 280.078 165.697 280.418 165.246C280.757 164.796 281.235 164.469 281.777 164.316C281.758 164.274 281.682 164.187 281.755 164.158L279.63 163.781C279.002 163.684 278.43 163.362 278.02 162.876C277.611 162.389 277.391 161.771 277.401 161.134C277.432 160.506 277.695 159.912 278.138 159.467C278.582 159.022 279.174 158.758 279.802 158.725C279.787 158.705 279.792 158.676 279.784 158.652L278.91 158.497C278.319 158.402 277.778 158.106 277.379 157.659C276.981 157.211 276.749 156.64 276.723 156.041C276.714 155.665 276.789 155.292 276.942 154.948C277.095 154.605 277.322 154.299 277.607 154.054C277.892 153.809 278.228 153.631 278.59 153.531C278.953 153.432 279.333 153.415 279.702 153.48L281.717 153.837C281.717 153.826 281.708 153.818 281.709 153.807C281.711 153.796 281.726 153.785 281.73 153.772C281.201 153.549 280.762 153.153 280.487 152.648C280.212 152.143 280.116 151.559 280.216 150.993C280.378 149.514 282.124 148.963 283.426 149.194L287.472 150.244C288.096 150.406 288.671 150.719 289.145 151.157C289.619 151.594 289.978 152.142 290.189 152.752C292.02 158.029 296.474 171.927 292.317 171.19L282.085 169.375C281.487 169.252 280.947 168.933 280.551 168.468C280.155 168.003 279.924 167.42 279.896 166.81Z" fill="#E98862"/>
<path d="M156.318 186.5L172.212 174.424C172.561 174.159 172.962 173.969 173.388 173.867C173.815 173.766 174.257 173.754 174.689 173.833C175.12 173.912 175.53 174.08 175.893 174.326C176.256 174.573 176.564 174.892 176.796 175.264C177.205 175.964 177.339 176.79 177.173 177.584C177.007 178.377 176.553 179.081 175.899 179.558L172.491 182.147L186.942 178.929C188.542 178.544 190.753 179.095 191.067 180.92C191.233 181.615 191.16 182.346 190.858 182.993C190.557 183.641 190.045 184.167 189.406 184.486C189.414 184.5 189.42 184.515 189.424 184.53C189.425 184.542 189.425 184.555 189.424 184.567L191.892 183.972C192.349 183.862 192.825 183.855 193.285 183.953C193.745 184.05 194.177 184.249 194.551 184.535C194.924 184.821 195.229 185.187 195.444 185.606C195.658 186.025 195.776 186.487 195.79 186.957C195.796 187.699 195.548 188.42 195.087 189C194.625 189.58 193.979 189.984 193.256 190.144L192.207 190.398C192.201 190.432 192.188 190.464 192.17 190.493C192.919 190.487 193.646 190.747 194.22 191.228C194.795 191.709 195.18 192.379 195.307 193.117C195.422 193.93 195.226 194.757 194.759 195.432C194.292 196.107 193.588 196.58 192.788 196.758L190.18 197.387C190.223 197.404 190.261 197.431 190.291 197.466C190.322 197.501 190.343 197.543 190.354 197.588C190.365 197.642 190.36 197.699 190.339 197.75C191.008 197.93 191.599 198.325 192.022 198.874C192.444 199.423 192.675 200.096 192.679 200.789C192.667 201.517 192.411 202.22 191.951 202.784C191.491 203.348 190.854 203.74 190.143 203.897L168.134 209.204C165.055 209.947 161.824 209.751 158.857 208.644C155.889 207.536 153.32 205.567 151.478 202.987C149.889 200.764 149.23 198.007 149.639 195.304C150.048 192.602 151.494 190.165 153.669 188.512L156.318 186.5Z" fill="#E98862"/>
<g opacity="0.2">
<path opacity="0.2" d="M175.118 187.742C175.136 187.816 175.183 187.88 175.247 187.92C175.312 187.96 175.39 187.973 175.464 187.957L189.203 184.879C189.279 184.862 189.344 184.816 189.386 184.75C189.427 184.685 189.441 184.606 189.424 184.53C189.407 184.454 189.361 184.389 189.295 184.347C189.23 184.306 189.151 184.292 189.076 184.309L175.336 187.387C175.299 187.395 175.263 187.411 175.232 187.433C175.201 187.456 175.174 187.484 175.154 187.516C175.133 187.549 175.119 187.585 175.113 187.623C175.106 187.661 175.108 187.7 175.116 187.737L175.118 187.742Z" fill="#0C0C0C"/>
</g>
<g opacity="0.2">
<path opacity="0.2" d="M176.307 193.846C176.325 193.92 176.372 193.984 176.437 194.024C176.501 194.064 176.579 194.077 176.654 194.06L191.986 190.625C192.024 190.617 192.059 190.601 192.09 190.579C192.122 190.557 192.149 190.529 192.169 190.496C192.19 190.463 192.204 190.427 192.21 190.389C192.216 190.351 192.215 190.313 192.207 190.275C192.188 190.201 192.141 190.136 192.076 190.095C192.011 190.054 191.933 190.04 191.857 190.055L176.524 193.49C176.487 193.498 176.451 193.514 176.42 193.536C176.389 193.558 176.362 193.586 176.341 193.619C176.321 193.651 176.307 193.687 176.301 193.725C176.294 193.763 176.295 193.802 176.304 193.839L176.307 193.846Z" fill="#0C0C0C"/>
</g>
<g opacity="0.2">
<path opacity="0.2" d="M177.557 200.463C177.575 200.537 177.622 200.601 177.686 200.641C177.751 200.681 177.829 200.694 177.903 200.677L190.137 197.936C190.212 197.919 190.278 197.873 190.319 197.808C190.361 197.743 190.374 197.663 190.357 197.588C190.341 197.512 190.294 197.447 190.229 197.405C190.164 197.364 190.085 197.35 190.009 197.367L177.776 200.108C177.738 200.117 177.703 200.132 177.671 200.154C177.64 200.177 177.613 200.205 177.593 200.237C177.572 200.27 177.558 200.306 177.552 200.344C177.546 200.382 177.547 200.421 177.555 200.458L177.557 200.463Z" fill="#0C0C0C"/>
</g>
<path d="M163.143 215.394L62.1343 238.38C58.7788 238.745 55.3843 238.328 52.2171 237.159C49.0499 235.991 46.1962 234.104 43.88 231.646C41.5637 229.188 39.8479 226.227 38.8671 222.993C37.8864 219.76 37.6673 216.343 38.2272 213.011L49.7864 119.934C50.7476 114.215 53.9392 109.111 58.6591 105.747C63.379 102.383 69.2405 101.034 74.9542 101.996C80.6678 102.958 85.7656 106.153 89.1261 110.878C92.4866 115.603 93.8344 121.471 92.8732 127.191L87.3068 193.811L157.484 177.913L163.143 215.394Z" fill="#367CFF"/>
<path d="M73.1058 196.429C73.0285 196.434 72.9522 196.409 72.8936 196.358C72.835 196.308 72.7989 196.236 72.7933 196.159C72.7876 196.081 72.8129 196.005 72.8635 195.946C72.9142 195.887 72.986 195.851 73.0633 195.846L87.1386 192.838C87.1764 192.831 87.2152 192.833 87.2525 192.842C87.2898 192.851 87.3249 192.867 87.3558 192.89C87.3866 192.913 87.4126 192.942 87.4321 192.975C87.4517 193.008 87.4643 193.044 87.4694 193.083C87.4808 193.159 87.4614 193.237 87.4155 193.299C87.3697 193.361 87.3011 193.402 87.2248 193.414L73.1495 196.422C73.1351 196.426 73.1205 196.428 73.1058 196.429Z" fill="#0C0C0C"/>
<path d="M65.1648 238.8C65.0876 238.805 65.0115 238.779 64.9533 238.728C64.8951 238.677 64.8596 238.604 64.8546 238.527C64.8496 238.45 64.8755 238.374 64.9265 238.315C64.9776 238.257 65.0497 238.222 65.127 238.217L162.509 215.256L156.991 178.34L87.2323 193.418C87.187 193.424 87.141 193.419 87.098 193.404C87.0549 193.389 87.0159 193.364 86.9843 193.331C86.9526 193.298 86.929 193.259 86.9155 193.215C86.9021 193.171 86.899 193.125 86.9066 193.08L90.8197 155.015C90.8254 154.977 90.8388 154.941 90.8589 154.908C90.879 154.875 90.9055 154.847 90.9368 154.825C90.9681 154.802 91.0036 154.787 91.0411 154.778C91.0786 154.77 91.1174 154.769 91.1552 154.776C91.2314 154.789 91.2993 154.832 91.3441 154.895C91.3889 154.958 91.4069 155.036 91.3941 155.112L87.5492 192.786L157.127 177.699C157.164 177.689 157.203 177.686 157.242 177.691C157.28 177.696 157.318 177.709 157.351 177.728C157.385 177.748 157.414 177.774 157.437 177.805C157.46 177.837 157.477 177.872 157.487 177.91L163.145 215.393C163.163 215.467 163.152 215.544 163.113 215.61C163.075 215.675 163.013 215.723 162.94 215.743L65.2027 238.797C65.1901 238.799 65.1775 238.8 65.1648 238.8Z" fill="#0C0C0C"/>
<path d="M288.514 69.0116C284.669 62.5084 275.964 61.7276 269.468 65.5778L269.056 65.8338L268.78 65.3882C264.804 58.9638 256.699 55.6134 250.282 59.5931C247.201 61.5044 245.004 64.5626 244.175 68.0951C243.346 71.6276 243.952 75.3451 245.861 78.4301L259.069 99.3169C259.497 99.9945 260.174 100.476 260.955 100.658C261.735 100.84 262.555 100.707 263.239 100.289L284.199 87.4555C287.156 85.532 289.256 82.5389 290.06 79.1018C290.864 75.6647 290.31 72.0495 288.514 69.0116Z" fill="#0CBC8B"/>
<path opacity="0.2" d="M288.514 69.0116C284.669 62.5084 275.964 61.7276 269.468 65.5778L269.056 65.8338L268.78 65.3882C264.804 58.9638 256.699 55.6134 250.282 59.5931C247.201 61.5044 245.004 64.5626 244.175 68.0951C243.346 71.6276 243.952 75.3451 245.861 78.4301L259.069 99.3169C259.497 99.9945 260.174 100.476 260.955 100.658C261.735 100.84 262.555 100.707 263.239 100.289L284.199 87.4555C287.156 85.532 289.256 82.5389 290.06 79.1018C290.864 75.6647 290.31 72.0495 288.514 69.0116Z" fill="white"/>
<path d="M231.111 7.67826C227.618 5.63185 223.335 7.53246 221.292 11.0287L221.165 11.2555L220.92 11.1191C217.387 9.14322 212.718 9.68326 210.744 13.2185C210.274 14.0595 209.975 14.9849 209.863 15.9417C209.751 16.8986 209.828 17.8682 210.09 18.7952C210.352 19.7222 210.794 20.5884 211.391 21.3444C211.987 22.1003 212.727 22.7312 213.567 23.201L225.185 29.5513C225.562 29.7573 226.005 29.8067 226.418 29.6887C226.831 29.5708 227.181 29.295 227.392 28.9209L233.882 17.4472C234.768 15.7756 234.975 13.8257 234.458 12.0051C233.942 10.1846 232.743 8.63424 231.111 7.67826Z" fill="#367CFF"/>
<path opacity="0.5" d="M231.111 7.67826C227.618 5.63185 223.335 7.53246 221.292 11.0287L221.165 11.2555L220.92 11.1191C217.387 9.14322 212.718 9.68326 210.744 13.2185C210.274 14.0595 209.975 14.9849 209.863 15.9417C209.751 16.8986 209.828 17.8682 210.09 18.7952C210.352 19.7222 210.794 20.5884 211.391 21.3444C211.987 22.1003 212.727 22.7312 213.567 23.201L225.185 29.5513C225.562 29.7573 226.005 29.8067 226.418 29.6887C226.831 29.5708 227.181 29.295 227.392 28.9209L233.882 17.4472C234.768 15.7756 234.975 13.8257 234.458 12.0051C233.942 10.1846 232.743 8.63424 231.111 7.67826Z" fill="white"/>
<path d="M286.412 239.383H29.3868C29.2323 239.383 29.0841 239.322 28.9748 239.212C28.8656 239.103 28.8042 238.954 28.8042 238.8C28.8042 238.645 28.8656 238.497 28.9748 238.387C29.0841 238.278 29.2323 238.217 29.3868 238.217H286.413C286.567 238.217 286.715 238.278 286.825 238.387C286.934 238.497 286.995 238.645 286.995 238.8C286.995 238.954 286.934 239.103 286.825 239.212C286.715 239.322 286.567 239.383 286.413 239.383H286.412Z" fill="#292A2E"/>
</g>
<defs>
<clipPath id="clip0">
<rect width="305" height="240" fill="white"/>
</clipPath>
</defs>
</svg>
