<svg width="237" height="230" viewBox="0 0 237 230" fill="none" xmlns="http://www.w3.org/2000/svg">
<path d="M169.905 230C206.961 230 237 227.222 237 223.796C237 220.37 206.961 217.592 169.905 217.592C132.85 217.592 102.81 220.37 102.81 223.796C102.81 227.222 132.85 230 169.905 230Z" fill="white"/>
<path opacity="0.1" d="M169.905 230C206.961 230 237 227.222 237 223.796C237 220.37 206.961 217.592 169.905 217.592C132.85 217.592 102.81 220.37 102.81 223.796C102.81 227.222 132.85 230 169.905 230Z" fill="#292A2E"/>
<path d="M58.5247 131.538H37.1379V137.774H58.5247V131.538Z" fill="#F4F4F4"/>
<path opacity="0.05" d="M42.8123 131.538H40.01V137.774H42.8123V131.538Z" fill="#292A2E"/>
<path d="M55.7918 132.893H44.1396V136.589H55.7918V132.893Z" fill="white"/>
<path d="M75.5836 132.352L55.7117 123.654L53.221 129.369L73.0929 138.066L75.5836 132.352Z" fill="#F4F4F4"/>
<path opacity="0.05" d="M75.5836 132.352L55.7117 123.654L53.221 129.369L73.0929 138.066L75.5836 132.352Z" fill="#292A2E"/>
<path d="M72.9152 131.184L70.3113 130.044L67.8206 135.758L70.4245 136.898L72.9152 131.184Z" fill="white"/>
<path d="M68.5361 130.746L57.7095 126.008L56.2335 129.394L67.0602 134.133L68.5361 130.746Z" fill="white"/>
<path opacity="0.05" d="M75.6209 210.532H70.2463V214.129H75.6209V210.532Z" fill="#292A2E"/>
<path opacity="0.05" d="M20.6721 210.532H15.2976V214.129H20.6721V210.532Z" fill="#292A2E"/>
<path d="M80.5475 138.066H10.3711V210.41H80.5475V138.066Z" fill="#F4F4F4"/>
<path opacity="0.03" d="M80.5475 138.066H10.3711V210.41H80.5475V138.066Z" fill="#292A2E"/>
<path d="M93.5524 138.066H23.376V210.41H93.5524V138.066Z" fill="#F4F4F4"/>
<path opacity="0.05" d="M88.6257 210.532H83.2512V214.129H88.6257V210.532Z" fill="#292A2E"/>
<path opacity="0.05" d="M33.677 210.532H28.3025V214.129H33.677V210.532Z" fill="#292A2E"/>
<path opacity="0.7" d="M90.9181 141.455H26.0103V155.353H90.9181V141.455Z" fill="white"/>
<path opacity="0.7" d="M90.9181 158.755H26.0103V172.654H90.9181V158.755Z" fill="white"/>
<path opacity="0.7" d="M90.9181 176.056H26.0103V189.955H90.9181V176.056Z" fill="white"/>
<path opacity="0.05" d="M58.4644 150.349C59.5362 150.349 60.4051 149.478 60.4051 148.404C60.4051 147.33 59.5362 146.459 58.4644 146.459C57.3926 146.459 56.5237 147.33 56.5237 148.404C56.5237 149.478 57.3926 150.349 58.4644 150.349Z" fill="#292A2E"/>
<path opacity="0.05" d="M58.4644 167.649C59.5362 167.649 60.4051 166.779 60.4051 165.705C60.4051 164.631 59.5362 163.76 58.4644 163.76C57.3926 163.76 56.5237 164.631 56.5237 165.705C56.5237 166.779 57.3926 167.649 58.4644 167.649Z" fill="#292A2E"/>
<path opacity="0.05" d="M58.4644 184.95C59.5362 184.95 60.4051 184.08 60.4051 183.006C60.4051 181.932 59.5362 181.061 58.4644 181.061C57.3926 181.061 56.5237 181.932 56.5237 183.006C56.5237 184.08 57.3926 184.95 58.4644 184.95Z" fill="#292A2E"/>
<path opacity="0.7" d="M90.9181 193.747H26.0103V207.645H90.9181V193.747Z" fill="white"/>
<path opacity="0.05" d="M58.4641 202.641C59.5359 202.641 60.4048 201.77 60.4048 200.696C60.4048 199.622 59.5359 198.751 58.4641 198.751C57.3923 198.751 56.5234 199.622 56.5234 200.696C56.5234 201.77 57.3923 202.641 58.4641 202.641Z" fill="#292A2E"/>
<path d="M35.2823 66.2614H76.7781V12.1374L35.2823 12.1374L35.2823 66.2614Z" fill="#F4F4F4"/>
<path d="M35.2829 12.1374H33.9368V66.2614H35.2829V12.1374Z" fill="#F4F4F4"/>
<path opacity="0.05" d="M35.2829 12.1374H33.9368V66.2614H35.2829V12.1374Z" fill="#292A2E"/>
<path opacity="0.05" d="M42.8421 56.402H69.2197V21.9967H42.8421V56.402Z" fill="#292A2E"/>
<path opacity="0.03" d="M42.8419 56.402H44.2166L44.2166 21.9967H42.8419L42.8419 56.402Z" fill="#292A2E"/>
<path d="M1.34604 113.891H35.2827L35.2827 79.5712H1.34604L1.34604 113.891Z" fill="#F4F4F4"/>
<path opacity="0.05" d="M7.528 107.639H29.1006L29.1006 85.8232H7.528L7.528 107.639Z" fill="#292A2E"/>
<path d="M1.34616 79.5715H0V113.891H1.34616V79.5715Z" fill="#F4F4F4"/>
<path opacity="0.05" d="M1.34616 79.5715H0V113.891H1.34616V79.5715Z" fill="#292A2E"/>
<path opacity="0.03" d="M7.52794 107.639H8.90259L8.90259 85.8232H7.52794L7.52794 107.639Z" fill="#292A2E"/>
<path d="M208.287 12.0085H121.692V98.7837H208.287V12.0085Z" fill="#F4F4F4"/>
<path d="M121.692 12.0085H120.699V98.7837H121.692V12.0085Z" fill="#F4F4F4"/>
<path opacity="0.05" d="M121.692 12.0085H120.699V98.7837H121.692V12.0085Z" fill="#292A2E"/>
<path opacity="0.05" d="M142.67 71.8037V49.1003H161.229V62.2906H189.976V85.6452H202.194V98.7837H189.976H187.622H125.857V71.8037H142.67Z" fill="#292A2E"/>
<path opacity="0.34" d="M158.846 51.5653H145.332V54.0303H158.846V51.5653Z" fill="#FFFFFA"/>
<path opacity="0.34" d="M158.846 56.6736H145.332V59.1386H158.846V56.6736Z" fill="#FFFFFA"/>
<path opacity="0.34" d="M158.846 61.7818H145.332V64.2468H158.846V61.7818Z" fill="#FFFFFA"/>
<path opacity="0.34" d="M130.745 74.1964H128.254V76.6614H130.745V74.1964Z" fill="#FFFFFA"/>
<path opacity="0.34" d="M130.745 79.3046H128.254V81.7696H130.745V79.3046Z" fill="#FFFFFA"/>
<path opacity="0.34" d="M130.745 84.4126H128.254V86.8776H130.745V84.4126Z" fill="#FFFFFA"/>
<path opacity="0.34" d="M135.353 74.1964H132.862V76.6614H135.353V74.1964Z" fill="#FFFFFA"/>
<path opacity="0.34" d="M135.353 79.3046H132.862V81.7696H135.353V79.3046Z" fill="#FFFFFA"/>
<path opacity="0.34" d="M135.353 84.4126H132.862V86.8776H135.353V84.4126Z" fill="#FFFFFA"/>
<path opacity="0.34" d="M139.837 74.1964H137.346V76.6614H139.837V74.1964Z" fill="#FFFFFA"/>
<path opacity="0.34" d="M139.837 79.3046H137.346V81.7696H139.837V79.3046Z" fill="#FFFFFA"/>
<path opacity="0.34" d="M139.837 84.4126H137.346V86.8776H139.837V84.4126Z" fill="#FFFFFA"/>
<path d="M121.692 54.9092H139.116V12.0083H140.557V54.9092H187.622V12.0083H189.063V54.9092H208.287V56.3531H189.063V98.7837H187.622V56.3531H140.557V98.7837H139.116V56.3531H121.692V54.9092Z" fill="white"/>
<path d="M211.736 98.6788H118.242V101.565H211.736V98.6788Z" fill="#F4F4F4"/>
<path opacity="0.1" d="M211.736 98.6788H118.242V101.565H211.736V98.6788Z" fill="#292A2E"/>
<path opacity="0.1" d="M118.242 98.6788H116.892V101.565H118.242V98.6788Z" fill="#292A2E"/>
<path opacity="0.1" d="M118.242 98.6788H116.892V101.565H118.242V98.6788Z" fill="#292A2E"/>
<path d="M193.438 113.545C180.181 113.545 169.434 117.169 169.434 121.64V131.277H217.443V121.64C217.443 117.169 206.696 113.545 193.438 113.545Z" fill="#367CFF"/>
<path opacity="0.49" d="M193.438 113.545C180.181 113.545 169.434 117.169 169.434 121.64V131.277H217.443V121.64C217.443 117.169 206.696 113.545 193.438 113.545Z" fill="white"/>
<path opacity="0.49" d="M210.903 121.642V131.277H169.433V121.642C169.433 117.544 178.459 114.158 190.168 113.623C201.879 114.158 210.903 117.544 210.903 121.642Z" fill="white"/>
<path d="M217.442 224.918H218.248L217.442 130.422L216.644 131.229L217.213 197.237L188.774 197.722L188.2 131.222L187.402 131.229L187.976 197.735L170.808 198.028L170.232 131.222L169.433 130.429L170.239 224.918L171.031 224.911L170.815 198.828L187.982 198.536L188.2 224.918L188.999 224.911L188.781 198.522L217.22 198.038L217.442 224.918Z" fill="#292A2E"/>
<path d="M145.037 210.77C145.037 210.77 143.609 218.186 136.68 218.599C129.752 219.012 131.254 224.543 131.254 224.543H157.731V211.287L145.037 210.77Z" fill="#367CFF"/>
<path d="M160.143 188.467C160.143 188.467 162.128 195.752 156.094 199.188C150.059 202.623 153.843 206.922 153.843 206.922L177.601 195.209L171.762 183.315L160.143 188.467Z" fill="#367CFF"/>
<path d="M157.629 193.282L139.728 125.597C138.37 118.119 140.414 114.878 143.564 111.73C149.098 106.198 172.031 94.4244 172.031 94.4244L199.542 94.3492C206.837 94.3492 214.008 101.557 214.008 108.867C214.008 116.177 206.592 122.377 199.297 122.377L165.419 125.765L174.603 187.74L157.629 193.282Z" fill="#262626"/>
<path d="M174.602 187.739L170.987 163.341L152.671 174.537L157.629 193.282L174.602 187.739Z" fill="#0C0C0C"/>
<path d="M178.754 108.121C178.754 108.121 167.189 110.704 155.735 122.182C148.79 129.141 149.36 141.734 150.402 165.955L161.778 149.118L174.255 126.567L178.754 108.121Z" fill="#0C0C0C"/>
<path d="M218.797 94.3417L200.114 94.2534L200.107 94.4999H194.449C194.449 94.4999 180.277 107.567 168.869 115.801C160.57 121.79 155.507 127.501 155.069 133.724C154.001 148.895 141.956 213.596 141.956 213.596L160.083 216.346L175.991 139.024C175.991 139.024 200.864 127.532 206.617 123.534C212.035 119.769 215.862 118.313 217.654 114.204C220.751 107.106 218.797 94.3417 218.797 94.3417Z" fill="#262626"/>
<path d="M197.836 99.0574L167.527 99.4597L184.529 109.636L198.676 102.315C199.017 102.131 199.287 101.839 199.442 101.483C199.597 101.128 199.629 100.731 199.532 100.356C199.435 99.9804 199.216 99.6484 198.908 99.413C198.601 99.1776 198.223 99.0524 197.836 99.0574Z" fill="#292A2E"/>
<path opacity="0.2" d="M197.836 99.0574L167.527 99.4597L184.529 109.636L198.676 102.315C199.017 102.131 199.287 101.839 199.442 101.483C199.597 101.128 199.629 100.731 199.532 100.356C199.435 99.9804 199.216 99.6484 198.908 99.413C198.601 99.1776 198.223 99.0524 197.836 99.0574Z" fill="white"/>
<path d="M167.7 44.5682L159.127 72.404L141.955 94.9334L151.986 106.472L172.415 83.6234C173.357 82.878 174.093 81.9047 174.555 80.7953L174.873 80.0234L186.673 51.413L167.7 44.5682Z" fill="#367CFF"/>
<path d="M180.907 15.021C180.907 15.021 177.452 12.4064 176.597 6.39262C175.934 1.7361 180.22 4.75285 180.22 4.75285C180.22 4.75285 179.776 1.39513 182.217 1.72837C184.659 2.06161 186.025 5.58875 186.025 5.58875" fill="#0C0C0C"/>
<path d="M194.835 2.12132C194.835 2.12132 206.947 3.42252 202.569 19.8704L201.497 19.9425L199.321 20.0887" fill="#0C0C0C"/>
<path d="M182.936 37.0478C182.989 37.0409 183.58 46.8662 194.97 46.0105C202.857 45.4185 205.669 37.0339 205.849 37.0339C204.999 36.8528 203.948 36.578 203.531 36.4838C202.621 36.2721 201.796 35.7878 201.168 35.0952C200.539 34.4026 200.136 33.5346 200.011 32.6066C199.781 31.2139 200.171 24.0881 200.051 22.6788L187.947 25.3864C188.116 28.3628 189.3 35.2626 185.151 36.4838C184.461 36.6855 183.717 36.8722 182.936 37.0478Z" fill="#E98862"/>
<path opacity="0.52" d="M187.778 33.6639C187.967 33.0515 188.089 32.4202 188.142 31.7811C188.275 30.3229 188.248 28.8545 188.062 27.4021C190.522 27.0698 192.841 26.0526 194.753 24.4659C194.978 25.2978 196.214 28.9327 195.871 29.7219C195.225 31.216 192.185 33.6639 187.778 33.6639Z" fill="#0C0C0C"/>
<path d="M190.276 31.7192C195.051 31.2899 200.768 28.2662 200.85 21.7699L200.924 15.9082C201.007 9.41205 197.669 4.1024 191.565 4.02449C185.461 3.94685 180.832 9.15485 180.749 15.6513L180.717 18.2462C180.721 19.1374 180.785 20.0273 180.91 20.9097C181.223 23.2442 181.709 26.7935 183.29 29.1945C184.783 31.4612 187.224 31.9932 190.276 31.7192Z" fill="#E98862"/>
<path opacity="0.52" d="M188.06 25.7812C187.075 25.826 186.092 25.638 185.192 25.2324C185.156 25.2157 185.127 25.1854 185.112 25.1477C185.098 25.1101 185.098 25.0682 185.114 25.031C185.13 24.9939 185.16 24.9644 185.197 24.9489C185.234 24.9335 185.276 24.9332 185.313 24.9482C187.252 25.7767 189.012 25.6555 190.403 24.5977C190.431 24.5754 190.461 24.5547 190.491 24.5355C190.526 24.519 190.566 24.5163 190.603 24.5279C190.639 24.5395 190.671 24.5646 190.69 24.5982C190.709 24.6318 190.715 24.6714 190.707 24.7092C190.698 24.747 190.676 24.7802 190.644 24.8023C190.633 24.8092 190.615 24.8234 190.591 24.8426C189.859 25.401 188.978 25.7278 188.06 25.7812Z" fill="#0C0C0C"/>
<path opacity="0.52" d="M188.105 27.2446C187.927 27.2556 187.748 27.2513 187.571 27.2318C187.551 27.2297 187.531 27.2236 187.514 27.2139C187.496 27.2042 187.48 27.1911 187.468 27.1754C187.455 27.1596 187.445 27.1415 187.44 27.1221C187.434 27.1026 187.432 27.0823 187.434 27.0621C187.436 27.042 187.442 27.0224 187.452 27.0046C187.462 26.9868 187.475 26.9711 187.491 26.9584C187.506 26.9457 187.524 26.9362 187.544 26.9304C187.563 26.9247 187.583 26.9228 187.604 26.925C188.67 27.0384 189.179 26.5488 189.201 26.5277C189.23 26.4987 189.269 26.4824 189.31 26.4824C189.351 26.4823 189.39 26.4985 189.419 26.5274C189.448 26.5563 189.464 26.5956 189.464 26.6365C189.464 26.6774 189.448 26.7167 189.419 26.7457C189.052 27.0591 188.587 27.2354 188.105 27.2446Z" fill="#0C0C0C"/>
<path d="M182.765 19.4953C183.181 19.4953 183.517 19.158 183.517 18.7419C183.517 18.3258 183.181 17.9884 182.765 17.9884C182.35 17.9884 182.013 18.3258 182.013 18.7419C182.013 19.158 182.35 19.4953 182.765 19.4953Z" fill="#0C0C0C"/>
<path d="M190.111 19.0335C190.526 19.0335 190.863 18.6962 190.863 18.28C190.863 17.8639 190.526 17.5266 190.111 17.5266C189.696 17.5266 189.359 17.8639 189.359 18.28C189.359 18.6962 189.696 19.0335 190.111 19.0335Z" fill="#0C0C0C"/>
<path d="M200.446 23.7455C202.301 23.7693 203.83 21.7997 203.854 19.9409C203.878 18.0821 202.387 17.0378 200.532 17.0143L199.56 18.2475L198.852 23.7252L200.446 23.7455Z" fill="#E98862"/>
<path d="M198.6 20.7573C198.6 20.7573 197.974 11.5651 195.193 10.9973C193.34 10.6193 188.848 13.2526 184.686 12.4573C182.866 12.1104 181.138 12.5608 180.962 13.4226C180.892 13.7638 179.758 8.86025 182.609 5.13994C184.879 2.17842 192.306 1.34066 195.686 2.31182C205.043 5.00174 200.914 17.4174 200.914 17.4174L200.496 20.5865L198.6 20.7573Z" fill="#0C0C0C"/>
<g opacity="0.52">
<path opacity="0.52" d="M186.939 23.6121C186.935 23.6124 186.931 23.6124 186.927 23.6121C186.329 23.6062 185.327 23.5291 185.331 23.0811C185.335 22.7098 186.39 18.7122 186.51 18.2576C186.52 18.2185 186.546 18.1851 186.581 18.1647C186.616 18.1444 186.657 18.1388 186.696 18.1492C186.735 18.1595 186.769 18.185 186.789 18.22C186.809 18.255 186.815 18.2967 186.804 18.3358C186.336 20.1063 185.638 22.832 185.636 23.0849C185.693 23.1916 186.311 23.3015 186.93 23.3079C186.969 23.3088 187.006 23.3246 187.034 23.3521C187.061 23.3797 187.077 23.4169 187.079 23.456C187.08 23.4951 187.066 23.5331 187.04 23.5623C187.014 23.5914 186.978 23.6095 186.939 23.6126V23.6121Z" fill="#0C0C0C"/>
</g>
<path d="M184.9 14.6565C184.271 14.4833 183.608 14.4833 182.98 14.6565C182.671 14.7397 182.377 14.8689 182.107 15.0397C181.839 15.2069 181.594 15.4074 181.377 15.6362C181.337 15.677 181.314 15.7317 181.314 15.7889C181.313 15.8461 181.334 15.9014 181.373 15.9433C181.412 15.9852 181.465 16.0105 181.522 16.014C181.579 16.0174 181.635 15.9987 181.679 15.9617L181.692 15.95C181.893 15.7634 182.117 15.6031 182.358 15.4727C182.594 15.3429 182.849 15.2497 183.113 15.1963C183.633 15.087 184.173 15.1173 184.678 15.2841L184.699 15.2915C184.782 15.3182 184.871 15.3116 184.949 15.273C185.027 15.2344 185.087 15.1669 185.115 15.0849C185.144 15.0029 185.14 14.9128 185.104 14.8338C185.068 14.7548 185.002 14.6931 184.921 14.6619L184.9 14.6565Z" fill="#0C0C0C"/>
<path d="M189.348 15.0346C189.826 14.8019 190.357 14.6998 190.887 14.7388C191.156 14.7563 191.421 14.8145 191.672 14.9116C191.928 15.0089 192.171 15.138 192.395 15.2958L192.409 15.3054C192.457 15.3365 192.515 15.3477 192.571 15.3368C192.627 15.3259 192.677 15.2937 192.71 15.2469C192.743 15.2002 192.757 15.1424 192.748 15.0858C192.74 15.0291 192.71 14.9779 192.665 14.9429C192.419 14.745 192.15 14.5791 191.863 14.449C191.572 14.3158 191.263 14.2272 190.946 14.1859C190.301 14.0978 189.643 14.186 189.044 14.4413C189.003 14.4588 188.967 14.4841 188.936 14.5157C188.906 14.5473 188.882 14.5846 188.866 14.6255C188.85 14.6663 188.842 14.71 188.843 14.7539C188.844 14.7979 188.853 14.8412 188.87 14.8815C188.906 14.9629 188.972 15.0269 189.054 15.0594C189.095 15.0755 189.139 15.0834 189.182 15.0826C189.226 15.0818 189.27 15.0724 189.31 15.0549L189.328 15.0461L189.348 15.0346Z" fill="#0C0C0C"/>
<path d="M189.043 5.18185C189.465 3.15676 188.695 1.28206 187.322 0.994601C185.949 0.70714 184.493 2.11578 184.071 4.14086C183.649 6.16595 184.42 8.04063 185.793 8.3281C187.166 8.61556 188.621 7.20694 189.043 5.18185Z" fill="#0C0C0C"/>
<path d="M168.782 58.6434C169.141 62.8674 171.684 89.2217 172.031 94.4249H218.777C219.046 89.7321 220.252 69.212 221.27 60.034C222.243 51.2769 223.605 47.292 222.485 44.5708C220.51 39.771 214.224 37.6278 209.967 37.0502C207.367 36.6975 203.457 36.4448 203.457 36.4448C203.457 36.4448 203.126 43.1557 195.232 43.5292C184.487 44.0362 185.204 36.4448 185.151 36.4448C183.41 36.4448 173.935 37.7135 171.565 39.2609C168.218 41.4466 167.229 44.4254 167.19 47.162C167.145 50.3138 168.376 53.8519 168.782 58.6434Z" fill="#367CFF"/>
<path d="M171.153 84.0393C171.119 84.0394 171.087 84.027 171.063 84.0045C171.038 83.9819 171.023 83.951 171.02 83.9176L169.249 63.6192C169.245 63.584 169.256 63.549 169.279 63.5219C169.302 63.4947 169.334 63.4778 169.369 63.4746C169.387 63.4728 169.405 63.4746 169.421 63.4798C169.438 63.4849 169.454 63.4934 169.467 63.5047C169.481 63.5161 169.492 63.53 169.5 63.5457C169.508 63.5613 169.512 63.5785 169.514 63.596L171.285 83.8944C171.288 83.9296 171.277 83.9646 171.254 83.9917C171.231 84.0187 171.199 84.0357 171.164 84.0388C171.16 84.0392 171.156 84.0394 171.153 84.0393Z" fill="#0C0C0C"/>
<path d="M174.542 95.8299L180.961 90.6115L179.881 90.9175C179.53 91.0093 179.158 90.9642 178.839 90.7915C178.52 90.6188 178.279 90.3312 178.164 89.9869C178.11 89.8072 178.094 89.6184 178.116 89.4321C178.138 89.2459 178.197 89.0661 178.291 88.9036C178.384 88.7412 178.51 88.5995 178.66 88.4873C178.81 88.375 178.981 88.2946 179.163 88.2508L192.647 84.9643L193.808 89.2684C194.168 90.6051 194.122 92.0193 193.675 93.3296C193.228 94.6399 192.401 95.7866 191.3 96.6229L186.304 100.401C186.048 100.602 185.731 100.709 185.406 100.703C185.081 100.696 184.768 100.578 184.52 100.367C184.3 100.172 184.148 99.9112 184.086 99.6232C184.024 99.3351 184.056 99.0349 184.177 98.7664C184.155 98.76 184.136 98.7478 184.121 98.7311C184.107 98.715 184.098 98.6957 184.094 98.6751C184.089 98.6545 184.09 98.6331 184.096 98.6129L183.176 99.3114C182.892 99.5365 182.532 99.645 182.171 99.615C181.81 99.5849 181.474 99.4185 181.23 99.1495C181.021 98.9015 180.906 98.5875 180.905 98.2627C180.904 97.938 181.018 97.6234 181.225 97.3742C181.211 97.372 181.197 97.3672 181.184 97.36L180.806 97.6471C180.55 97.8482 180.233 97.9546 179.908 97.9484C179.583 97.9422 179.27 97.8237 179.022 97.613C178.755 97.3761 178.59 97.0449 178.562 96.6888C178.533 96.3327 178.644 95.9794 178.869 95.7029C178.864 95.6952 178.86 95.6869 178.856 95.6781L176.183 97.8512C176.05 97.9589 175.898 98.0395 175.734 98.0882C175.571 98.1369 175.399 98.1528 175.23 98.1351C175.06 98.1174 174.895 98.0663 174.745 97.9848C174.595 97.9034 174.463 97.7931 174.355 97.6603C174.248 97.5275 174.167 97.3748 174.119 97.2109C174.07 97.047 174.054 96.8751 174.072 96.705C174.09 96.535 174.141 96.3701 174.222 96.2197C174.303 96.0694 174.413 95.9366 174.546 95.8289L174.542 95.8299Z" fill="#E98862"/>
<path opacity="0.2" d="M179.016 95.7557C179.03 95.7507 179.043 95.7432 179.055 95.7336L181.627 93.5925C181.64 93.5816 181.651 93.5682 181.658 93.5532C181.666 93.5381 181.671 93.5216 181.673 93.5046C181.674 93.4877 181.672 93.4706 181.667 93.4543C181.662 93.4381 181.654 93.423 181.643 93.4099C181.632 93.3968 181.619 93.386 181.604 93.3781C181.589 93.3701 181.573 93.3653 181.556 93.3637C181.539 93.3622 181.522 93.364 181.505 93.369C181.489 93.3741 181.474 93.3823 181.461 93.3932L178.889 95.534C178.866 95.5535 178.85 95.5806 178.845 95.6106C178.839 95.6406 178.845 95.6716 178.86 95.698C178.875 95.7245 178.899 95.7448 178.927 95.7553C178.956 95.7659 178.987 95.766 179.016 95.7557Z" fill="#0A0A0A"/>
<path opacity="0.2" d="M181.283 97.3728C181.296 97.3679 181.309 97.3606 181.321 97.3512L183.355 95.6842C183.382 95.6624 183.398 95.631 183.402 95.5968C183.405 95.5626 183.395 95.5284 183.373 95.5017C183.352 95.4751 183.32 95.4582 183.286 95.4547C183.252 95.4513 183.218 95.4615 183.191 95.4833L181.157 97.1503C181.133 97.1696 181.117 97.1967 181.111 97.2268C181.106 97.2569 181.111 97.2881 181.126 97.3147C181.141 97.3414 181.165 97.3618 181.194 97.3725C181.222 97.3831 181.254 97.3832 181.283 97.3728Z" fill="#0A0A0A"/>
<path opacity="0.2" d="M184.26 98.7706C184.275 98.7652 184.289 98.7571 184.301 98.7469L185.243 97.9371C185.256 97.9261 185.267 97.9126 185.274 97.8974C185.282 97.8822 185.286 97.8657 185.288 97.8487C185.289 97.8318 185.287 97.8147 185.282 97.7985C185.276 97.7824 185.268 97.7674 185.257 97.7545C185.246 97.7416 185.232 97.731 185.217 97.7233C185.202 97.7156 185.186 97.711 185.169 97.7097C185.152 97.7084 185.135 97.7104 185.119 97.7157C185.103 97.721 185.088 97.7294 185.075 97.7405L184.132 98.5502C184.109 98.57 184.094 98.5971 184.089 98.627C184.084 98.6568 184.09 98.6874 184.105 98.7136C184.12 98.7397 184.144 98.7597 184.172 98.7702C184.201 98.7806 184.232 98.7807 184.26 98.7706Z" fill="#0A0A0A"/>
<path d="M231.273 83.0482L231.223 82.8291L222.691 45.0119L205.811 48.8357L212.47 78.3546L185.793 84.9235L189.076 100.008L224.627 93.2131C224.707 93.1974 224.825 93.1734 224.906 93.155C225.987 92.9102 227.008 92.4547 227.913 91.8144C228.817 91.174 229.587 90.3614 230.178 89.4229C230.77 88.4843 231.17 87.4383 231.358 86.3446C231.546 85.2508 231.517 84.1307 231.273 83.0482Z" fill="#367CFF"/>
<path d="M185.662 84.952C185.655 84.9182 185.662 84.8829 185.68 84.8537C185.698 84.8244 185.727 84.8034 185.761 84.7952L212.32 78.2585L208.002 59.1457C207.997 59.1283 207.995 59.1101 207.998 59.0922C208 59.0743 208.006 59.057 208.015 59.0415C208.025 59.026 208.037 59.0125 208.052 59.0018C208.066 58.9912 208.083 58.9837 208.1 58.9797C208.118 58.9757 208.136 58.9753 208.154 58.9786C208.172 58.9818 208.189 58.9887 208.204 58.9987C208.219 59.0087 208.231 59.0217 208.241 59.0368C208.251 59.052 208.258 59.069 208.261 59.0868L212.608 78.3273C212.616 78.3615 212.611 78.3976 212.592 78.4276C212.574 78.4575 212.544 78.479 212.51 78.4874L185.95 85.0241C185.95 85.0241 186.127 85.8021 186.178 86.0646C186.182 86.0988 186.172 86.1331 186.151 86.1601C186.129 86.1871 186.098 86.2045 186.064 86.2084C186.03 86.2124 185.996 86.2026 185.969 86.1812C185.942 86.1599 185.924 86.1287 185.92 86.0945C185.859 85.8066 185.662 84.952 185.662 84.952Z" fill="#0C0C0C"/>
<path d="M186.703 106.016L176.446 74.4205C176.266 73.8652 175.915 73.3814 175.444 73.0383C174.972 72.6952 174.404 72.5104 173.822 72.5105H132.033C131.597 72.5104 131.168 72.6137 130.78 72.8119C130.392 73.0101 130.056 73.2976 129.8 73.6508C129.544 74.004 129.375 74.4129 129.307 74.8441C129.239 75.2752 129.274 75.7164 129.409 76.1315L139.666 107.727C139.846 108.282 140.197 108.766 140.669 109.109C141.14 109.452 141.708 109.637 142.291 109.637H184.079C184.515 109.637 184.944 109.534 185.332 109.336C185.72 109.137 186.056 108.85 186.312 108.497C186.568 108.144 186.737 107.735 186.805 107.304C186.873 106.872 186.838 106.431 186.703 106.016Z" fill="#292A2E"/>
<path opacity="0.2" d="M186.703 106.016L176.446 74.4205C176.266 73.8652 175.915 73.3814 175.444 73.0383C174.972 72.6952 174.404 72.5104 173.822 72.5105H132.033C131.597 72.5104 131.168 72.6137 130.78 72.8119C130.392 73.0101 130.056 73.2976 129.8 73.6508C129.544 74.004 129.375 74.4129 129.307 74.8441C129.239 75.2752 129.274 75.7164 129.409 76.1315L139.666 107.727C139.846 108.282 140.197 108.766 140.669 109.109C141.14 109.452 141.708 109.637 142.291 109.637H184.079C184.515 109.637 184.944 109.534 185.332 109.336C185.72 109.137 186.056 108.85 186.312 108.497C186.568 108.144 186.737 107.735 186.805 107.304C186.873 106.872 186.838 106.431 186.703 106.016Z" fill="white"/>
<path d="M156.852 95.4657C159.273 95.4657 161.235 93.4994 161.235 91.0738C161.235 88.6483 159.273 86.682 156.852 86.682C154.432 86.682 152.47 88.6483 152.47 91.0738C152.47 93.4994 154.432 95.4657 156.852 95.4657Z" fill="white"/>
<path d="M115.594 3.33881H32.6534C28.811 3.33881 25.696 6.46021 25.696 10.3106V111.208C25.696 115.058 28.811 118.18 32.6534 118.18H115.594C119.436 118.18 122.551 115.058 122.551 111.208V10.3106C122.551 6.46021 119.436 3.33881 115.594 3.33881Z" fill="#292A2E"/>
<path d="M118.659 0.266815H35.7191C31.8766 0.266815 28.7617 3.38821 28.7617 7.23866V108.136C28.7617 111.986 31.8766 115.108 35.7191 115.108H118.659C122.502 115.108 125.617 111.986 125.617 108.136V7.23866C125.617 3.38821 122.502 0.266815 118.659 0.266815Z" fill="white"/>
<path d="M118.659 115.374H35.719C33.8038 115.372 31.9676 114.609 30.6133 113.252C29.2591 111.895 28.4974 110.055 28.4954 108.135V7.23864C28.4975 5.31949 29.2592 3.47954 30.6134 2.12249C31.9677 0.765439 33.8038 0.00211859 35.719 0L118.659 0C120.574 0.00218919 122.41 0.765541 123.764 2.12258C125.119 3.47963 125.88 5.31953 125.882 7.23864V108.135C125.88 110.055 125.119 111.895 123.765 113.252C122.41 114.609 120.574 115.372 118.659 115.374ZM35.719 0.533607C33.945 0.535584 32.2442 1.24264 30.9898 2.49965C29.7354 3.75666 29.0298 5.46096 29.0279 7.23864V108.135C29.0298 109.913 29.7354 111.617 30.9898 112.874C32.2442 114.131 33.945 114.838 35.719 114.84H118.659C120.433 114.838 122.134 114.131 123.388 112.874C124.643 111.617 125.348 109.913 125.35 108.135V7.23864C125.348 5.46099 124.643 3.75668 123.388 2.49967C122.134 1.24265 120.433 0.535584 118.659 0.533607H35.719Z" fill="#292A2E"/>
<path d="M27.6446 129.545C37.1844 129.545 44.918 121.795 44.918 112.235C44.918 102.676 37.1844 94.926 27.6446 94.926C18.1047 94.926 10.3711 102.676 10.3711 112.235C10.3711 121.795 18.1047 129.545 27.6446 129.545Z" fill="#292A2E"/>
<path d="M24.0585 109.976C23.8311 109.976 23.613 109.886 23.4522 109.725C23.2914 109.564 23.201 109.345 23.2009 109.117V104.958C23.2009 102.657 25.1943 100.786 27.6444 100.786C30.0944 100.786 32.0878 102.657 32.0878 104.958V108.832C32.0898 108.946 32.0691 109.059 32.0269 109.165C31.9847 109.271 31.9219 109.368 31.8421 109.449C31.7622 109.531 31.667 109.595 31.562 109.639C31.457 109.684 31.3442 109.706 31.2303 109.706C31.1164 109.706 31.0037 109.684 30.8987 109.639C30.7936 109.595 30.6984 109.531 30.6186 109.449C30.5388 109.368 30.476 109.271 30.4338 109.165C30.3916 109.059 30.3709 108.946 30.3729 108.832V104.958C30.3729 103.605 29.1481 102.504 27.6444 102.504C26.1406 102.504 24.9158 103.605 24.9158 104.958V109.118C24.9157 109.346 24.8253 109.564 24.6645 109.725C24.5038 109.886 24.2858 109.976 24.0585 109.976Z" fill="white"/>
<path d="M33.1148 108.398H22.1741C21.536 108.398 21.0188 108.917 21.0188 109.556V119.883C21.0188 120.522 21.536 121.04 22.1741 121.04H33.1148C33.7528 121.04 34.27 120.522 34.27 119.883V109.556C34.27 108.917 33.7528 108.398 33.1148 108.398Z" fill="white"/>
<path d="M26.555 113.697C26.5549 113.902 26.6123 114.102 26.7206 114.276C26.8289 114.45 26.9837 114.59 27.1674 114.679V116.356C27.1674 116.483 27.2175 116.604 27.3067 116.693C27.3959 116.783 27.5168 116.833 27.6429 116.833C27.7691 116.833 27.89 116.783 27.9792 116.693C28.0684 116.604 28.1185 116.483 28.1185 116.356V114.679C28.2934 114.594 28.4425 114.464 28.5501 114.301C28.6578 114.139 28.7201 113.951 28.7306 113.756C28.7411 113.562 28.6994 113.368 28.6098 113.195C28.5202 113.022 28.3861 112.876 28.2212 112.772C28.0564 112.669 27.8669 112.612 27.6725 112.606C27.4781 112.601 27.2858 112.648 27.1156 112.742C26.9454 112.837 26.8035 112.975 26.7047 113.143C26.6059 113.311 26.5538 113.502 26.5537 113.697H26.555Z" fill="#292A2E"/>
<path d="M111.417 57.569H42.962C41.3279 57.569 40.0032 58.8964 40.0032 60.534V70.1506C40.0032 71.7881 41.3279 73.1156 42.962 73.1156H111.417C113.051 73.1156 114.375 71.7881 114.375 70.1506V60.534C114.375 58.8964 113.051 57.569 111.417 57.569Z" fill="white"/>
<path d="M111.416 73.3821H42.9619C42.1069 73.3811 41.2871 73.0403 40.6825 72.4344C40.0779 71.8286 39.7378 71.0071 39.7368 70.1503V60.5339C39.7378 59.6771 40.0779 58.8556 40.6825 58.2497C41.2871 57.6438 42.1068 57.3029 42.9619 57.3019H111.416C112.271 57.3029 113.091 57.6437 113.696 58.2496C114.3 58.8555 114.641 59.677 114.642 60.5339V70.1503C114.641 71.0072 114.3 71.8287 113.696 72.4345C113.091 73.0404 112.271 73.3812 111.416 73.3821ZM42.9619 57.8355C42.248 57.8363 41.5635 58.1208 41.0587 58.6267C40.5539 59.1326 40.27 59.8185 40.2693 60.5339V70.1503C40.2701 70.8657 40.554 71.5515 41.0588 72.0574C41.5636 72.5632 42.248 72.8477 42.9619 72.8485H111.416C112.13 72.8477 112.815 72.5632 113.319 72.0574C113.824 71.5515 114.108 70.8657 114.109 70.1503V60.5339C114.108 59.8185 113.824 59.1326 113.319 58.6267C112.815 58.1208 112.13 57.8363 111.416 57.8355H42.9619Z" fill="#292A2E"/>
<path d="M111.417 79.7868H42.962C41.3279 79.7868 40.0032 81.1143 40.0032 82.7518V92.3684C40.0032 94.006 41.3279 95.3334 42.962 95.3334H111.417C113.051 95.3334 114.375 94.006 114.375 92.3684V82.7518C114.375 81.1143 113.051 79.7868 111.417 79.7868Z" fill="white"/>
<path d="M111.416 95.5999H42.9619C42.1067 95.5989 41.2869 95.258 40.6822 94.652C40.0776 94.046 39.7376 93.2243 39.7368 92.3674V82.7518C39.7378 81.8949 40.0779 81.0735 40.6825 80.4676C41.2871 79.8618 42.1069 79.521 42.9619 79.52H111.416C112.271 79.5209 113.091 79.8617 113.696 80.4675C114.3 81.0734 114.641 81.8949 114.642 82.7518V92.3674C114.641 93.2244 114.301 94.046 113.696 94.6521C113.091 95.2581 112.271 95.599 111.416 95.5999ZM42.9619 80.0536C42.248 80.0544 41.5636 80.3389 41.0588 80.8447C40.554 81.3506 40.2701 82.0364 40.2693 82.7518V92.3674C40.2701 93.0827 40.554 93.7686 41.0588 94.2744C41.5636 94.7802 42.248 95.0647 42.9619 95.0655H111.416C112.13 95.0648 112.815 94.7803 113.319 94.2745C113.824 93.7686 114.108 93.0828 114.109 92.3674V82.7518C114.108 82.0364 113.824 81.3505 113.319 80.8446C112.815 80.3388 112.13 80.0543 111.416 80.0536H42.9619Z" fill="#292A2E"/>
<path d="M77.1891 46.0049C85.9669 46.0049 93.0826 38.8744 93.0826 30.0784C93.0826 21.2824 85.9669 14.1518 77.1891 14.1518C68.4114 14.1518 61.2957 21.2824 61.2957 30.0784C61.2957 38.8744 68.4114 46.0049 77.1891 46.0049Z" fill="white"/>
<path d="M77.189 46.2717C73.9929 46.2717 70.8686 45.322 68.2112 43.5426C65.5537 41.7633 63.4825 39.2342 62.2594 36.2753C61.0363 33.3163 60.7163 30.0604 61.3398 26.9192C61.9633 23.778 63.5024 20.8926 65.7624 18.6279C68.0224 16.3632 70.9017 14.821 74.0364 14.1961C77.1711 13.5713 80.4203 13.892 83.3731 15.1176C86.3259 16.3433 88.8497 18.4188 90.6253 21.0818C92.401 23.7448 93.3488 26.8756 93.3488 30.0783C93.344 34.3716 91.6399 38.4877 88.6104 41.5235C85.5809 44.5593 81.4734 46.2669 77.189 46.2717ZM77.189 14.4186C74.0983 14.4186 71.0769 15.337 68.507 17.0577C65.9371 18.7784 63.9341 21.2242 62.7514 24.0856C61.5686 26.9471 61.2591 30.0957 61.8621 33.1334C62.4651 36.1711 63.9534 38.9614 66.1389 41.1515C68.3244 43.3415 71.1089 44.833 74.1403 45.4372C77.1717 46.0414 80.3138 45.7313 83.1693 44.5461C86.0248 43.3608 88.4655 41.3537 90.1826 38.7784C91.8997 36.2032 92.8163 33.1755 92.8163 30.0783C92.8116 25.9265 91.1637 21.9461 88.234 19.0104C85.3043 16.0746 81.3322 14.4232 77.189 14.4186Z" fill="#292A2E"/>
<path opacity="0.5" d="M92.7294 30.0784C92.734 33.7647 91.4287 37.3323 89.0472 40.1419C87.5805 38.4284 85.7612 37.0531 83.7142 36.1103C81.6672 35.1675 79.4409 34.6796 77.188 34.68C74.9352 34.6804 72.7091 35.1691 70.6624 36.1126C68.6157 37.0561 66.7969 38.4321 65.3308 40.1462C63.7137 38.2336 62.5812 35.9582 62.0296 33.5131C61.4779 31.0681 61.5234 28.5257 62.1622 26.1021C62.8009 23.6784 64.0141 21.4451 65.6986 19.5919C67.3831 17.7387 69.4891 16.3203 71.8377 15.4573C74.1863 14.5942 76.7081 14.3121 79.1889 14.6348C81.6696 14.9575 84.0359 15.8755 86.0868 17.3108C88.1377 18.7461 89.8125 20.6563 90.969 22.8791C92.1254 25.1019 92.7294 27.5716 92.7294 30.0784Z" fill="#367CFF"/>
<path d="M89.0472 40.1419C87.5886 41.868 85.7723 43.2549 83.7247 44.2063C81.677 45.1578 79.4471 45.6508 77.19 45.6512C74.9329 45.6516 72.7029 45.1594 70.6548 44.2087C68.6068 43.258 66.79 41.8717 65.3308 40.1462C66.797 38.4322 68.6157 37.0562 70.6624 36.1127C72.7091 35.1691 74.9352 34.6804 77.1881 34.68C79.4409 34.6796 81.6672 35.1675 83.7142 36.1103C85.7612 37.0531 87.5805 38.4284 89.0472 40.1419Z" fill="white"/>
<path d="M77.1891 31.7745C80.6583 31.7745 83.4707 28.9562 83.4707 25.4798C83.4707 22.0033 80.6583 19.1851 77.1891 19.1851C73.7198 19.1851 70.9075 22.0033 70.9075 25.4798C70.9075 28.9562 73.7198 31.7745 77.1891 31.7745Z" fill="white"/>
<g opacity="0.4">
<path opacity="0.4" d="M45.7653 89.4533C46.8087 89.4533 47.6546 88.6057 47.6546 87.5601C47.6546 86.5145 46.8087 85.6668 45.7653 85.6668C44.7218 85.6668 43.876 86.5145 43.876 87.5601C43.876 88.6057 44.7218 89.4533 45.7653 89.4533Z" fill="#292A2E"/>
<path opacity="0.4" d="M51.6752 89.4533C52.7186 89.4533 53.5645 88.6057 53.5645 87.5601C53.5645 86.5145 52.7186 85.6668 51.6752 85.6668C50.6318 85.6668 49.7859 86.5145 49.7859 87.5601C49.7859 88.6057 50.6318 89.4533 51.6752 89.4533Z" fill="#292A2E"/>
<path opacity="0.4" d="M57.5851 89.4533C58.6286 89.4533 59.4744 88.6057 59.4744 87.5601C59.4744 86.5145 58.6286 85.6668 57.5851 85.6668C56.5417 85.6668 55.6958 86.5145 55.6958 87.5601C55.6958 88.6057 56.5417 89.4533 57.5851 89.4533Z" fill="#292A2E"/>
<path opacity="0.4" d="M63.4953 89.4533C64.5387 89.4533 65.3846 88.6057 65.3846 87.5601C65.3846 86.5145 64.5387 85.6668 63.4953 85.6668C62.4518 85.6668 61.606 86.5145 61.606 87.5601C61.606 88.6057 62.4518 89.4533 63.4953 89.4533Z" fill="#292A2E"/>
<path opacity="0.4" d="M69.4047 89.4533C70.4481 89.4533 71.294 88.6057 71.294 87.5601C71.294 86.5145 70.4481 85.6668 69.4047 85.6668C68.3613 85.6668 67.5154 86.5145 67.5154 87.5601C67.5154 88.6057 68.3613 89.4533 69.4047 89.4533Z" fill="#292A2E"/>
<path opacity="0.4" d="M75.3146 89.4533C76.358 89.4533 77.2039 88.6057 77.2039 87.5601C77.2039 86.5145 76.358 85.6668 75.3146 85.6668C74.2712 85.6668 73.4253 86.5145 73.4253 87.5601C73.4253 88.6057 74.2712 89.4533 75.3146 89.4533Z" fill="#292A2E"/>
<path opacity="0.4" d="M81.2248 89.4533C82.2682 89.4533 83.114 88.6057 83.114 87.5601C83.114 86.5145 82.2682 85.6668 81.2248 85.6668C80.1813 85.6668 79.3354 86.5145 79.3354 87.5601C79.3354 88.6057 80.1813 89.4533 81.2248 89.4533Z" fill="#292A2E"/>
</g>
<g opacity="0.3">
<path opacity="0.3" d="M47.6392 65.2281V65.8684H45.2129V65.2281H47.6392Z" fill="black"/>
<path opacity="0.3" d="M50.6546 65.2281V65.8684H48.2283V65.2281H50.6546Z" fill="black"/>
<path opacity="0.3" d="M53.6695 65.2281V65.8684H51.2432V65.2281H53.6695Z" fill="black"/>
<path opacity="0.3" d="M56.6844 65.2281V65.8684H54.2581V65.2281H56.6844Z" fill="black"/>
<path opacity="0.3" d="M59.7 65.2281V65.8684H57.2734V65.2281H59.7Z" fill="black"/>
<path opacity="0.3" d="M65.1413 68.8409C64.6016 69.1187 64.0003 69.2545 63.3939 69.2355C61.7828 69.2355 60.4172 68.0541 60.4172 66.164C60.4172 64.1363 61.8222 62.384 64.0028 62.384C65.7121 62.384 66.8615 63.5846 66.8615 65.2289C66.8615 66.7056 66.0362 67.5717 65.1128 67.5717C64.7201 67.5717 64.3567 67.3049 64.3859 66.7057H64.3465C64.2195 66.9652 64.0225 67.1839 63.7778 67.3369C63.5331 67.49 63.2505 67.5713 62.962 67.5717C62.3923 67.5717 61.901 67.1091 61.901 66.3316C61.9 66.0249 61.9594 65.721 62.0761 65.4374C62.1927 65.1539 62.3641 64.8962 62.5806 64.6793C62.797 64.4625 63.0541 64.2906 63.3371 64.1738C63.6201 64.0569 63.9233 63.9973 64.2294 63.9984C64.5903 63.9931 64.9484 64.0636 65.2805 64.2052L64.9464 65.9869C64.7992 66.7339 64.9171 67.0808 65.2411 67.0896C65.7422 67.0992 66.3021 66.4298 66.3021 65.2881C66.3021 63.8607 65.4475 62.837 63.9248 62.837C62.3236 62.837 60.9777 64.1067 60.9777 66.1051C60.9777 67.7491 62.0485 68.763 63.5025 68.763C64.018 68.775 64.5281 68.6565 64.9858 68.4185L65.1413 68.8409ZM64.6011 64.5883C64.4416 64.5413 64.2761 64.5182 64.1098 64.5195C63.2453 64.5195 62.548 65.3364 62.548 66.2913C62.548 66.7243 62.7642 67.0384 63.1963 67.0384C63.7661 67.0384 64.2866 66.31 64.3945 65.6995L64.6011 64.5883Z" fill="black"/>
<path opacity="0.3" d="M69.9537 65.2281V65.8684H67.5273V65.2281H69.9537Z" fill="black"/>
<path opacity="0.3" d="M72.9688 65.2281V65.8684H70.5422V65.2281H72.9688Z" fill="black"/>
<path opacity="0.3" d="M75.9837 65.2281V65.8684H73.5574V65.2281H75.9837Z" fill="black"/>
</g>
</svg>
